<svg width="24" height="24" viewBox="0 0 24 24" fill="none" xmlns="http://www.w3.org/2000/svg">
<path d="M2 12C2 6.47715 6.47715 2 12 2C17.5228 2 22 6.47715 22 12C22 17.5228 17.5228 22 12 22C6.47715 22 2 17.5228 2 12ZM7.2167 12.2122C6.9238 11.9193 6.44893 11.9193 6.15604 12.2122C5.86316 12.5051 5.86318 12.98 6.15608 13.2729L9.69175 16.8083C9.98464 17.1012 10.4595 17.1012 10.7524 16.8083L18.5304 9.03024C18.8233 8.73735 18.8233 8.26247 18.5304 7.96958C18.2375 7.67669 17.7627 7.67669 17.4698 7.96958L10.222 15.2173L7.2167 12.2122Z" fill="#82B886"/>
</svg>
