<svg width="242" height="242" viewBox="0 0 242 242" fill="none" xmlns="http://www.w3.org/2000/svg">
<g opacity="0.2" filter="url(#filter0_d_2166_193778)">
<path d="M57.8115 78.095C57.8115 76.931 58.7566 75.9883 59.9224 75.9883H129.055L143.303 90.2087V187.645C143.303 188.809 142.359 189.752 141.192 189.752H59.9224C58.7566 189.752 57.8115 188.809 57.8115 187.645V78.095Z" fill="white"/>
</g>
<g opacity="0.2" filter="url(#filter1_d_2166_193778)">
<path d="M57.8115 187.645V78.095C57.8115 77.0037 58.6424 76.1073 59.707 75.9999L59.9224 75.9883H129.055L143.303 90.2087V187.645L143.292 187.86C143.191 188.852 142.402 189.64 141.408 189.74L141.192 189.752V91.0809L128.181 78.095H59.9224V189.752L59.707 189.74C58.7132 189.64 57.9236 188.852 57.8228 187.86L57.8115 187.645ZM141.192 187.645V189.752H59.9224V187.645H141.192Z" fill="#CCCCCC"/>
</g>
<g opacity="0.4" filter="url(#filter2_d_2166_193778)">
<path d="M66.2549 69.6692C66.2549 68.5053 67.1999 67.5625 68.3658 67.5625H137.498L151.747 81.7829V179.219C151.747 180.383 150.802 181.326 149.636 181.326H68.3658C67.1999 181.326 66.2549 180.383 66.2549 179.219V69.6692Z" fill="white"/>
</g>
<g opacity="0.4" filter="url(#filter3_d_2166_193778)">
<path d="M66.2549 179.219V69.6692C66.2549 68.5779 67.0857 67.6815 68.1504 67.5741L68.3658 67.5625H137.498L151.747 81.7829V179.219L151.735 179.434C151.635 180.426 150.845 181.214 149.851 181.314L149.636 181.326V82.6551L136.624 69.6692H68.3658V181.326L68.1504 181.314C67.1566 181.214 66.367 180.426 66.2662 179.434L66.2549 179.219ZM149.636 179.219V181.326H68.3658V179.219H149.636Z" fill="#CCCCCC"/>
</g>
<g opacity="0.8" filter="url(#filter4_d_2166_193778)">
<path d="M73.6436 62.2942C73.6436 61.1307 74.5882 60.1875 75.7545 60.1875H144.887L159.135 74.4079V171.844C159.135 173.008 158.191 173.951 157.024 173.951H75.7545C74.5882 173.951 73.6436 173.008 73.6436 171.844V62.2942Z" fill="white"/>
</g>
<g opacity="0.8" filter="url(#filter5_d_2166_193778)">
<path d="M73.6436 171.844V62.2942C73.6436 61.2033 74.4742 60.3065 75.5391 60.1988L75.7545 60.1875H144.887L159.135 74.4079V171.844L159.124 172.059C159.023 173.051 158.234 173.839 157.24 173.939L157.024 173.951V75.2801L144.013 62.2942H75.7545V173.951L75.5391 173.939C74.5449 173.839 73.7554 173.051 73.6552 172.059L73.6436 171.844ZM157.024 171.844V173.951H75.7545V171.844H157.024Z" fill="#CCCCCC"/>
</g>
<g filter="url(#filter6_d_2166_193778)">
<path d="M82.0869 53.8684C82.0869 52.7049 83.0315 51.7617 84.1978 51.7617H153.33L167.579 65.9821V163.418C167.579 164.582 166.634 165.525 165.468 165.525H84.1978C83.0315 165.525 82.0869 164.582 82.0869 163.418V53.8684Z" fill="white"/>
</g>
<g filter="url(#filter7_d_2166_193778)">
<path d="M82.0869 163.418V53.8684C82.0869 52.7775 82.9176 51.8807 83.9825 51.773L84.1978 51.7617H153.33L167.579 65.9821V163.418L167.567 163.633C167.467 164.626 166.677 165.413 165.683 165.514L165.468 165.525V66.8543L152.456 53.8684H84.1978V165.525L83.9825 165.514C82.9883 165.413 82.1988 164.626 82.0985 163.633L82.0869 163.418ZM165.468 163.418V165.525H84.1978V163.418H165.468Z" fill="#AAAAAA"/>
</g>
<path d="M151.747 51.7617L166.523 66.5088H152.803C152.22 66.5088 151.747 66.0369 151.747 65.4555V51.7617Z" fill="#AAAAAA"/>
<path d="M83.0329 107.25C83.1711 107.777 82.884 108.316 82.3827 108.502L82.2803 108.536L80.2095 109.085C78.0311 109.653 75.575 110.223 73.2383 110.266C70.1557 110.322 67.091 109.464 65.0339 106.425L64.8375 106.125C64.3538 105.351 64.3473 104.448 64.5161 103.626C64.6867 102.796 65.0646 101.905 65.5425 101.013C66.501 99.224 67.98 97.2173 69.496 95.3297C71.0173 93.4358 72.6208 91.605 73.8378 90.1851C74.452 89.4677 74.9597 88.8642 75.3207 88.3996C75.5022 88.1658 75.6331 87.9846 75.7186 87.8508C75.7587 87.7876 75.7798 87.7497 75.7882 87.7339C75.9349 87.2146 76.4563 86.8838 76.9978 86.985C77.535 87.0861 77.9002 87.5759 77.8538 88.1089L77.84 88.2142L77.8126 88.3301C77.7387 88.5966 77.5931 88.8347 77.4981 88.9842C77.363 89.196 77.1878 89.4351 76.9904 89.69C76.5946 90.1998 76.0553 90.8392 75.4431 91.5545C74.2061 92.9986 72.6367 94.7872 71.1426 96.6475C69.6439 98.513 68.267 100.396 67.4041 102.007C66.9716 102.814 66.6961 103.502 66.5835 104.051C66.4694 104.606 66.5482 104.881 66.6279 105.008L66.7744 105.232C68.3038 107.499 70.556 108.207 73.1992 108.159C75.2964 108.121 77.5192 107.607 79.6512 107.051L81.7442 106.497L81.8508 106.475C82.3785 106.392 82.8946 106.722 83.0329 107.25Z" fill="#AAAAAA"/>
<path d="M75.2838 80.703C74.4183 81.4077 73.3186 82.9593 73.3302 84.7363L73.3376 84.9649C73.4463 86.9895 74.7951 87.9807 75.7883 88.5853L76.1999 88.8297L76.296 88.8802C76.7815 89.1046 77.3673 88.9298 77.6459 88.461C77.9246 87.9923 77.7968 87.395 77.3673 87.0779L77.2765 87.0179L76.8786 86.7788C76.0596 86.2721 75.5297 85.8223 75.4516 84.9343L75.4411 84.7216C75.4347 83.7535 76.0976 82.7591 76.6168 82.3367C77.0686 81.9702 77.1372 81.3066 76.7688 80.8547C76.4015 80.4038 75.7366 80.3364 75.2838 80.703Z" fill="#AAAAAA"/>
<path d="M165.573 106.197C165.434 106.725 165.723 107.263 166.224 107.449L166.326 107.483L168.397 108.032C170.574 108.601 173.031 109.171 175.367 109.214C178.45 109.27 181.515 108.411 183.572 105.372L183.769 105.072C184.252 104.299 184.258 103.395 184.09 102.573C183.92 101.743 183.542 100.852 183.064 99.9599C182.105 98.1713 180.626 96.1646 179.11 94.277C177.589 92.383 175.985 90.5523 174.768 89.1323C174.155 88.415 173.646 87.8114 173.285 87.3469C173.103 87.113 172.972 86.9319 172.888 86.7981C172.847 86.7349 172.826 86.697 172.817 86.6812C172.671 86.1619 172.149 85.8311 171.608 85.9322C171.071 86.0334 170.706 86.5232 170.752 87.0562L170.767 87.1615L170.793 87.2774C170.868 87.5439 171.012 87.7819 171.107 87.9315C171.243 88.1432 171.418 88.3824 171.615 88.6373C172.012 89.1471 172.55 89.7865 173.163 90.5017C174.4 91.9459 175.97 93.7345 177.463 95.5947C178.962 97.4603 180.338 99.3437 181.202 100.954C181.635 101.761 181.91 102.449 182.022 102.998C182.136 103.553 182.058 103.828 181.978 103.955L181.832 104.18C180.303 106.447 178.05 107.154 175.406 107.106C173.309 107.068 171.086 106.554 168.954 105.998L166.861 105.445L166.756 105.423C166.227 105.339 165.712 105.669 165.573 106.197Z" fill="#AAAAAA"/>
<path d="M173.321 79.6502C174.188 80.3549 175.288 81.9065 175.275 83.6836L175.268 83.9122C175.159 85.9367 173.81 86.9279 172.818 87.5326L172.405 87.777L172.309 87.8275C171.824 88.0519 171.238 87.877 170.959 87.4083C170.681 86.9395 170.808 86.3423 171.239 86.0252L171.329 85.9652L171.728 85.7261C172.547 85.2194 173.077 84.7696 173.154 83.8816L173.164 83.6688C173.17 82.7008 172.508 81.7064 171.988 81.284C171.537 80.9174 171.468 80.2538 171.836 79.8019C172.205 79.3511 172.87 79.2837 173.321 79.6502Z" fill="#AAAAAA"/>
<path d="M116.607 86.0724L116.68 86.1525C117.018 86.5665 116.994 87.1764 116.607 87.5619C116.221 87.9474 115.61 87.9717 115.195 87.6346L115.115 87.5619L108.782 81.2417C108.369 80.8309 108.369 80.1631 108.782 79.7523C109.194 79.3404 109.863 79.3404 110.275 79.7523L116.607 86.0724Z" fill="#AAAAAA"/>
<path d="M115.115 79.7519L115.195 79.6792C115.61 79.3421 116.221 79.3664 116.607 79.7519C116.994 80.1374 117.018 80.7473 116.68 81.1613L116.607 81.2414L110.275 87.5615C109.863 87.9734 109.194 87.9734 108.782 87.5615C108.369 87.1507 108.369 86.4829 108.782 86.0721L115.115 79.7519Z" fill="#AAAAAA"/>
<path d="M139.828 86.0724L139.901 86.1525C140.239 86.5665 140.214 87.1764 139.828 87.5619C139.442 87.9474 138.831 87.9717 138.416 87.6346L138.336 87.5619L132.003 81.2417C131.59 80.8309 131.59 80.1631 132.003 79.7523C132.414 79.3404 133.084 79.3404 133.495 79.7523L139.828 86.0724Z" fill="#AAAAAA"/>
<path d="M138.336 79.7519L138.416 79.6792C138.831 79.3421 139.442 79.3664 139.828 79.7519C140.214 80.1374 140.239 80.7473 139.901 81.1613L139.828 81.2414L133.495 87.5615C133.084 87.9734 132.414 87.9734 132.003 87.5615C131.59 87.1507 131.59 86.4829 132.003 86.0721L138.336 79.7519Z" fill="#AAAAAA"/>
<path d="M127.472 98.6366C127.472 101.254 126.291 103.377 124.833 103.377C123.375 103.377 122.194 101.254 122.194 98.6366C122.194 96.019 123.375 93.8965 124.833 93.8965C126.291 93.8965 127.472 96.019 127.472 98.6366Z" fill="#AAAAAA"/>
<defs>
<filter id="filter0_d_2166_193778" x="42.8115" y="67.9883" width="115.491" height="143.764" filterUnits="userSpaceOnUse" color-interpolation-filters="sRGB">
<feFlood flood-opacity="0" result="BackgroundImageFix"/>
<feColorMatrix in="SourceAlpha" type="matrix" values="0 0 0 0 0 0 0 0 0 0 0 0 0 0 0 0 0 0 127 0" result="hardAlpha"/>
<feOffset dy="7"/>
<feGaussianBlur stdDeviation="7.5"/>
<feColorMatrix type="matrix" values="0 0 0 0 0.333333 0 0 0 0 0.333333 0 0 0 0 0.333333 0 0 0 0.1 0"/>
<feBlend mode="normal" in2="BackgroundImageFix" result="effect1_dropShadow_2166_193778"/>
<feBlend mode="normal" in="SourceGraphic" in2="effect1_dropShadow_2166_193778" result="shape"/>
</filter>
<filter id="filter1_d_2166_193778" x="42.8115" y="67.9883" width="115.491" height="143.764" filterUnits="userSpaceOnUse" color-interpolation-filters="sRGB">
<feFlood flood-opacity="0" result="BackgroundImageFix"/>
<feColorMatrix in="SourceAlpha" type="matrix" values="0 0 0 0 0 0 0 0 0 0 0 0 0 0 0 0 0 0 127 0" result="hardAlpha"/>
<feOffset dy="7"/>
<feGaussianBlur stdDeviation="7.5"/>
<feColorMatrix type="matrix" values="0 0 0 0 0.333333 0 0 0 0 0.333333 0 0 0 0 0.333333 0 0 0 0.1 0"/>
<feBlend mode="normal" in2="BackgroundImageFix" result="effect1_dropShadow_2166_193778"/>
<feBlend mode="normal" in="SourceGraphic" in2="effect1_dropShadow_2166_193778" result="shape"/>
</filter>
<filter id="filter2_d_2166_193778" x="51.2549" y="59.5625" width="115.491" height="143.764" filterUnits="userSpaceOnUse" color-interpolation-filters="sRGB">
<feFlood flood-opacity="0" result="BackgroundImageFix"/>
<feColorMatrix in="SourceAlpha" type="matrix" values="0 0 0 0 0 0 0 0 0 0 0 0 0 0 0 0 0 0 127 0" result="hardAlpha"/>
<feOffset dy="7"/>
<feGaussianBlur stdDeviation="7.5"/>
<feColorMatrix type="matrix" values="0 0 0 0 0.333333 0 0 0 0 0.333333 0 0 0 0 0.333333 0 0 0 0.1 0"/>
<feBlend mode="normal" in2="BackgroundImageFix" result="effect1_dropShadow_2166_193778"/>
<feBlend mode="normal" in="SourceGraphic" in2="effect1_dropShadow_2166_193778" result="shape"/>
</filter>
<filter id="filter3_d_2166_193778" x="51.2549" y="59.5625" width="115.491" height="143.764" filterUnits="userSpaceOnUse" color-interpolation-filters="sRGB">
<feFlood flood-opacity="0" result="BackgroundImageFix"/>
<feColorMatrix in="SourceAlpha" type="matrix" values="0 0 0 0 0 0 0 0 0 0 0 0 0 0 0 0 0 0 127 0" result="hardAlpha"/>
<feOffset dy="7"/>
<feGaussianBlur stdDeviation="7.5"/>
<feColorMatrix type="matrix" values="0 0 0 0 0.333333 0 0 0 0 0.333333 0 0 0 0 0.333333 0 0 0 0.1 0"/>
<feBlend mode="normal" in2="BackgroundImageFix" result="effect1_dropShadow_2166_193778"/>
<feBlend mode="normal" in="SourceGraphic" in2="effect1_dropShadow_2166_193778" result="shape"/>
</filter>
<filter id="filter4_d_2166_193778" x="58.6436" y="52.1875" width="115.491" height="143.764" filterUnits="userSpaceOnUse" color-interpolation-filters="sRGB">
<feFlood flood-opacity="0" result="BackgroundImageFix"/>
<feColorMatrix in="SourceAlpha" type="matrix" values="0 0 0 0 0 0 0 0 0 0 0 0 0 0 0 0 0 0 127 0" result="hardAlpha"/>
<feOffset dy="7"/>
<feGaussianBlur stdDeviation="7.5"/>
<feColorMatrix type="matrix" values="0 0 0 0 0.333333 0 0 0 0 0.333333 0 0 0 0 0.333333 0 0 0 0.1 0"/>
<feBlend mode="normal" in2="BackgroundImageFix" result="effect1_dropShadow_2166_193778"/>
<feBlend mode="normal" in="SourceGraphic" in2="effect1_dropShadow_2166_193778" result="shape"/>
</filter>
<filter id="filter5_d_2166_193778" x="58.6436" y="52.1875" width="115.491" height="143.764" filterUnits="userSpaceOnUse" color-interpolation-filters="sRGB">
<feFlood flood-opacity="0" result="BackgroundImageFix"/>
<feColorMatrix in="SourceAlpha" type="matrix" values="0 0 0 0 0 0 0 0 0 0 0 0 0 0 0 0 0 0 127 0" result="hardAlpha"/>
<feOffset dy="7"/>
<feGaussianBlur stdDeviation="7.5"/>
<feColorMatrix type="matrix" values="0 0 0 0 0.333333 0 0 0 0 0.333333 0 0 0 0 0.333333 0 0 0 0.1 0"/>
<feBlend mode="normal" in2="BackgroundImageFix" result="effect1_dropShadow_2166_193778"/>
<feBlend mode="normal" in="SourceGraphic" in2="effect1_dropShadow_2166_193778" result="shape"/>
</filter>
<filter id="filter6_d_2166_193778" x="67.0869" y="43.7617" width="115.491" height="143.764" filterUnits="userSpaceOnUse" color-interpolation-filters="sRGB">
<feFlood flood-opacity="0" result="BackgroundImageFix"/>
<feColorMatrix in="SourceAlpha" type="matrix" values="0 0 0 0 0 0 0 0 0 0 0 0 0 0 0 0 0 0 127 0" result="hardAlpha"/>
<feOffset dy="7"/>
<feGaussianBlur stdDeviation="7.5"/>
<feColorMatrix type="matrix" values="0 0 0 0 0.333333 0 0 0 0 0.333333 0 0 0 0 0.333333 0 0 0 0.1 0"/>
<feBlend mode="normal" in2="BackgroundImageFix" result="effect1_dropShadow_2166_193778"/>
<feBlend mode="normal" in="SourceGraphic" in2="effect1_dropShadow_2166_193778" result="shape"/>
</filter>
<filter id="filter7_d_2166_193778" x="67.0869" y="43.7617" width="115.491" height="143.764" filterUnits="userSpaceOnUse" color-interpolation-filters="sRGB">
<feFlood flood-opacity="0" result="BackgroundImageFix"/>
<feColorMatrix in="SourceAlpha" type="matrix" values="0 0 0 0 0 0 0 0 0 0 0 0 0 0 0 0 0 0 127 0" result="hardAlpha"/>
<feOffset dy="7"/>
<feGaussianBlur stdDeviation="7.5"/>
<feColorMatrix type="matrix" values="0 0 0 0 0.333333 0 0 0 0 0.333333 0 0 0 0 0.333333 0 0 0 0.1 0"/>
<feBlend mode="normal" in2="BackgroundImageFix" result="effect1_dropShadow_2166_193778"/>
<feBlend mode="normal" in="SourceGraphic" in2="effect1_dropShadow_2166_193778" result="shape"/>
</filter>
</defs>
</svg>
