<svg width="242" height="242" viewBox="0 0 242 242" fill="none" xmlns="http://www.w3.org/2000/svg">
<g filter="url(#filter0_d_2249_35176)">
<path d="M76.2848 84.2898C76.2848 83.1676 77.1958 82.2578 78.3205 82.2578H144.99L158.731 95.974V189.955C158.731 191.078 157.82 191.987 156.695 191.987H78.3205C77.1958 191.987 76.2848 191.078 76.2848 189.955V84.2898Z" fill="white"/>
</g>
<g filter="url(#filter1_d_2249_35176)">
<path d="M76.2848 189.955V84.2898C76.2848 83.2376 77.0858 82.3726 78.1129 82.2687L78.3205 82.2578H144.99L158.731 95.974V189.955L158.72 190.163C158.623 191.12 157.862 191.88 156.903 191.976L156.695 191.987V96.8153L144.147 84.2898H78.3205V191.987L78.1129 191.976C77.154 191.88 76.3927 191.12 76.296 190.163L76.2848 189.955ZM156.695 189.955V191.987H78.3205V189.955H156.695Z" fill="#AAAAAA"/>
</g>
<path fill-rule="evenodd" clip-rule="evenodd" d="M117.508 109.989C119.082 109.882 123.047 109.689 127.673 109.689C132.472 109.689 135.45 110.105 136.338 110.312C136.338 113.738 134.989 120.903 131.672 121.523C128.34 122.146 122.674 122.146 121.34 119.966C120.274 118.222 119.119 114.256 118.674 112.493L117.508 111.947L116.341 112.493C115.897 114.256 114.741 118.222 113.676 119.966C112.342 122.146 106.676 122.146 103.343 121.523C100.027 120.903 98.6776 113.738 98.6776 110.312C99.5662 110.105 102.543 109.689 107.343 109.689C111.969 109.689 115.934 109.882 117.508 109.989Z" fill="#AAAAAA"/>
<path fill-rule="evenodd" clip-rule="evenodd" d="M76.1149 125.687C76.1149 124.708 76.8864 123.914 77.8381 123.914C78.7898 123.914 79.5603 124.708 79.5603 125.687V141.997C79.5603 142.584 80.0235 143.061 80.5945 143.061C81.1655 143.061 81.6286 142.584 81.6286 141.997V128.524C81.6286 127.544 82.3991 126.751 83.3508 126.751C84.3025 126.751 85.0741 127.544 85.0741 128.524V143.061V145.987C85.0741 146.693 85.9667 146.965 86.3413 146.373L90.1409 140.357C90.6896 139.49 91.8041 139.221 92.6683 139.749C93.4795 140.242 93.8083 141.279 93.4357 142.17L87.1413 157.243C85.3071 160.748 82.506 162.551 78.8713 163.27C77.2956 163.582 74.5698 163.671 73.0135 163.27C68.6184 162.14 65.737 158.104 65.151 153.481L65.0885 152.988V147.315V143.061V133.487C65.0885 132.509 65.8598 131.714 66.8114 131.714C67.7624 131.714 68.5339 132.509 68.5339 133.487V141.997C68.5339 142.584 68.9971 143.061 69.5681 143.061C70.1391 143.061 70.6022 142.584 70.6022 141.997V129.233C70.6022 128.253 71.3727 127.46 72.3244 127.46C73.2761 127.46 74.0476 128.253 74.0476 129.233V141.997C74.0476 142.584 74.5108 143.061 75.0808 143.061C75.6518 143.061 76.1149 142.584 76.1149 141.997V125.687Z" fill="white"/>
<path d="M78.0905 120.872C80.0122 120.971 81.5655 122.193 82.2434 123.832C82.5976 123.748 82.9671 123.702 83.3508 123.702L83.6042 123.708C86.2018 123.842 88.1276 126.029 88.1276 128.523V137.993C89.6177 136.396 92.0351 135.933 94.0393 137.019L94.2591 137.146L94.4556 137.271C96.3752 138.566 97.1132 141.007 96.3366 143.13L96.2541 143.341L89.9607 158.415L89.9088 158.536L89.8478 158.653C87.6054 162.939 84.1152 165.238 79.8779 166.173L79.4657 166.26C78.4488 166.461 77.1785 166.573 75.9673 166.585C74.9342 166.596 73.7504 166.537 72.6959 166.323L72.2511 166.222C66.5448 164.754 63.0479 159.734 62.1959 154.382L62.1214 153.863L62.0587 153.37L62.0349 153.18V133.486C62.0351 130.912 64.0866 128.666 66.8111 128.666L67.0645 128.672C67.2372 128.68 67.4082 128.699 67.5741 128.725C67.8224 126.37 69.7808 124.41 72.3244 124.41L72.5778 124.417C72.7936 124.428 73.0043 124.455 73.2099 124.493C73.729 122.455 75.5449 120.865 77.8371 120.865L78.0905 120.872ZM77.8371 123.913C76.8864 123.913 76.1149 124.708 76.1149 125.686V141.996C76.1149 142.584 75.6518 143.06 75.0807 143.06C74.5107 143.06 74.0476 142.584 74.0476 141.996V129.231C74.0476 128.253 73.2761 127.458 72.3244 127.458C71.3737 127.458 70.6022 128.253 70.6022 129.231V141.996C70.6022 142.584 70.1391 143.059 69.568 143.06C68.998 143.06 68.5349 142.584 68.5349 141.996V133.486C68.5349 132.507 67.7624 131.714 66.8111 131.714C65.8598 131.714 65.0887 132.508 65.0885 133.486V152.988L65.1511 153.48C65.737 158.102 68.6184 162.139 73.0135 163.27C74.5698 163.67 77.2956 163.582 78.8712 163.27C82.506 162.55 85.3071 160.747 87.1413 157.243L93.4367 142.169C93.8082 141.278 93.4795 140.242 92.6692 139.748C91.8041 139.221 90.6885 139.489 90.1409 140.356L86.3412 146.372C85.9677 146.965 85.074 146.691 85.074 145.986V128.523C85.074 127.543 84.3025 126.75 83.3508 126.75C82.4001 126.75 81.6286 127.543 81.6286 128.523V141.996C81.6286 142.584 81.1655 143.059 80.5945 143.06C80.0245 143.06 79.5613 142.584 79.5613 141.996V125.686C79.5613 124.707 78.7888 123.913 77.8371 123.913Z" fill="#FF6F3D"/>
<path d="M123.106 127.979C123.668 127.979 124.124 128.434 124.124 128.995C124.124 129.555 123.668 130.011 123.106 130.011H112.928C112.366 130.011 111.91 129.555 111.91 128.995C111.91 128.434 112.366 127.979 112.928 127.979H123.106Z" fill="#AAAAAA"/>
<path d="M88.2009 52.0735L88.2712 52.1506C88.5969 52.5497 88.5735 53.1384 88.2009 53.5104C87.8284 53.8823 87.238 53.906 86.839 53.5806L86.7617 53.5104L84.726 51.4786C84.328 51.0818 84.328 50.4385 84.726 50.0417C85.1229 49.645 85.7683 49.645 86.1652 50.0417L88.2009 52.0735Z" fill="#FF6F3D"/>
<path d="M90.8329 57.5746L90.7627 57.4974C90.437 57.0983 90.4604 56.5097 90.8329 56.1377C91.2055 55.7657 91.7958 55.742 92.1948 56.0675L92.2722 56.1377L94.3079 58.1695C94.7059 58.5663 94.7059 59.2096 94.3079 59.6064C93.9109 60.0032 93.2656 60.0032 92.8686 59.6064L90.8329 57.5746Z" fill="#FF6F3D"/>
<path d="M92.2722 53.5104L92.1948 53.5805C91.7958 53.906 91.2055 53.8823 90.8329 53.5104C90.4604 53.1384 90.437 52.5497 90.7627 52.1506L90.8329 52.0735L92.8686 50.0417C93.2656 49.645 93.9109 49.645 94.3079 50.0417C94.7059 50.4385 94.7059 51.0818 94.3079 51.4786L92.2722 53.5104Z" fill="#FF6F3D"/>
<path d="M86.7617 56.1376L86.839 56.0675C87.238 55.742 87.8284 55.7657 88.2009 56.1376C88.5735 56.5096 88.5969 57.0983 88.2712 57.4974L88.2009 57.5745L86.1652 59.6063C85.7683 60.0031 85.1229 60.0031 84.726 59.6063C84.328 59.2096 84.328 58.5662 84.726 58.1695L86.7617 56.1376Z" fill="#FF6F3D"/>
<path d="M45.4509 100.844L45.5211 100.921C45.8473 101.319 45.8236 101.908 45.4509 102.28C45.0783 102.652 44.4885 102.676 44.0887 102.35L44.0115 102.28L41.976 100.248C41.5785 99.851 41.5785 99.2079 41.976 98.8116C42.3734 98.4144 43.0179 98.4144 43.4154 98.8116L45.4509 100.844Z" fill="#FF6F3D"/>
<path d="M48.0832 106.344L48.013 106.266C47.6869 105.867 47.7106 105.279 48.0832 104.907C48.4559 104.535 49.0456 104.512 49.4454 104.837L49.5227 104.907L51.5582 106.939C51.9557 107.335 51.9557 107.978 51.5582 108.376C51.1607 108.772 50.5162 108.772 50.1188 108.376L48.0832 106.344Z" fill="#FF6F3D"/>
<path d="M49.5227 102.28L49.4454 102.35C49.0456 102.676 48.4559 102.652 48.0832 102.28C47.7106 101.908 47.6869 101.319 48.013 100.921L48.0832 100.844L50.1188 98.8116C50.5162 98.4144 51.1607 98.4144 51.5582 98.8116C51.9557 99.2079 51.9557 99.852 51.5582 100.248L49.5227 102.28Z" fill="#FF6F3D"/>
<path d="M44.0115 104.907L44.0887 104.837C44.4885 104.512 45.0783 104.535 45.4509 104.907C45.8236 105.279 45.8473 105.868 45.5211 106.266L45.4509 106.344L43.4154 108.376C43.0179 108.773 42.3734 108.773 41.976 108.376C41.5785 107.979 41.5785 107.335 41.976 106.939L44.0115 104.907Z" fill="#FF6F3D"/>
<path d="M194.058 123.195L194.128 123.272C194.454 123.671 194.43 124.26 194.058 124.632C193.685 125.004 193.095 125.027 192.696 124.702L192.618 124.632L190.583 122.6C190.185 122.203 190.185 121.559 190.583 121.163C190.98 120.766 191.625 120.766 192.022 121.163L194.058 123.195Z" fill="#FF6F3D"/>
<path d="M196.69 128.695L196.62 128.618C196.294 128.219 196.317 127.63 196.69 127.259C197.062 126.887 197.653 126.863 198.052 127.188L198.129 127.259L200.165 129.291C200.563 129.687 200.563 130.33 200.165 130.727C199.768 131.123 199.123 131.123 198.726 130.727L196.69 128.695Z" fill="#FF6F3D"/>
<path d="M198.129 124.632L198.052 124.702C197.653 125.027 197.062 125.004 196.69 124.632C196.317 124.26 196.294 123.671 196.62 123.272L196.69 123.195L198.726 121.163C199.123 120.766 199.768 120.766 200.165 121.163C200.563 121.559 200.563 122.204 200.165 122.6L198.129 124.632Z" fill="#FF6F3D"/>
<path d="M192.618 127.259L192.696 127.188C193.095 126.863 193.685 126.887 194.058 127.259C194.43 127.63 194.454 128.22 194.128 128.618L194.058 128.695L192.022 130.727C191.625 131.124 190.98 131.124 190.583 130.727C190.185 130.331 190.185 129.687 190.583 129.291L192.618 127.259Z" fill="#FF6F3D"/>
<path d="M143.463 82.2559L157.713 96.4801H144.481C143.919 96.4801 143.463 96.0249 143.463 95.464V82.2559Z" fill="#AAAAAA"/>
<path d="M138.374 76.5475L151.606 72.0957L164.838 76.5475V88.1133C164.838 92.1337 162.852 95.8958 159.53 98.1687L152.181 103.198C151.835 103.436 151.377 103.436 151.031 103.198L143.682 98.1687C140.36 95.8958 138.374 92.1337 138.374 88.1133V76.5475Z" fill="#808080"/>
<path d="M158.038 81.4117C158.637 80.9236 159.522 80.959 160.081 81.517C160.64 82.0749 160.674 82.9574 160.186 83.5559L160.081 83.672L150.867 92.87L145.268 87.2806L145.162 87.1655C144.673 86.567 144.709 85.6836 145.268 85.1256C145.827 84.5678 146.711 84.5333 147.311 85.0214L147.427 85.1256L150.867 88.5596L157.922 81.517L158.038 81.4117Z" fill="white"/>
<path d="M157.013 119.294C157.301 118.854 157.873 118.708 158.331 118.944L158.422 118.997L159.488 119.693C162.123 121.418 165.684 123.846 168.466 126.68C171.501 129.771 173.921 133.674 172.627 137.849L172.491 138.253C171.526 140.885 168.811 142.062 166.23 142.554C163.919 142.994 161.418 142.947 159.533 142.722L158.766 142.614C158.758 142.613 158.75 142.614 158.744 142.614C158.694 143.504 158.8 144.325 159.105 144.8C159.237 145.005 159.398 145.133 159.626 145.198C159.876 145.269 160.303 145.29 160.992 145.085L161.092 145.06C161.599 144.963 162.106 145.264 162.258 145.768C162.419 146.305 162.113 146.871 161.575 147.032L161.231 147.125C160.438 147.318 159.713 147.337 159.067 147.153C158.307 146.936 157.758 146.468 157.392 145.898C156.705 144.832 156.65 143.41 156.717 142.404L156.746 142.167C156.958 141.016 158.116 140.453 159.088 140.609L159.788 140.705C161.507 140.91 163.789 140.951 165.848 140.559C168.261 140.1 170.002 139.127 170.579 137.555L170.678 137.262C171.62 134.225 169.96 131.106 167.012 128.102C164.39 125.432 160.998 123.114 158.38 121.397L157.31 120.7L157.226 120.638C156.824 120.315 156.726 119.735 157.013 119.294Z" fill="#AAAAAA"/>
<defs>
<filter id="filter0_d_2249_35176" x="61.2848" y="74.2578" width="112.446" height="139.73" filterUnits="userSpaceOnUse" color-interpolation-filters="sRGB">
<feFlood flood-opacity="0" result="BackgroundImageFix"/>
<feColorMatrix in="SourceAlpha" type="matrix" values="0 0 0 0 0 0 0 0 0 0 0 0 0 0 0 0 0 0 127 0" result="hardAlpha"/>
<feOffset dy="7"/>
<feGaussianBlur stdDeviation="7.5"/>
<feColorMatrix type="matrix" values="0 0 0 0 0.333333 0 0 0 0 0.333333 0 0 0 0 0.333333 0 0 0 0.1 0"/>
<feBlend mode="normal" in2="BackgroundImageFix" result="effect1_dropShadow_2249_35176"/>
<feBlend mode="normal" in="SourceGraphic" in2="effect1_dropShadow_2249_35176" result="shape"/>
</filter>
<filter id="filter1_d_2249_35176" x="61.2848" y="74.2578" width="112.446" height="139.73" filterUnits="userSpaceOnUse" color-interpolation-filters="sRGB">
<feFlood flood-opacity="0" result="BackgroundImageFix"/>
<feColorMatrix in="SourceAlpha" type="matrix" values="0 0 0 0 0 0 0 0 0 0 0 0 0 0 0 0 0 0 127 0" result="hardAlpha"/>
<feOffset dy="7"/>
<feGaussianBlur stdDeviation="7.5"/>
<feColorMatrix type="matrix" values="0 0 0 0 0.333333 0 0 0 0 0.333333 0 0 0 0 0.333333 0 0 0 0.1 0"/>
<feBlend mode="normal" in2="BackgroundImageFix" result="effect1_dropShadow_2249_35176"/>
<feBlend mode="normal" in="SourceGraphic" in2="effect1_dropShadow_2249_35176" result="shape"/>
</filter>
</defs>
</svg>
