<svg width="75" height="75" viewBox="0 0 75 75" fill="none" xmlns="http://www.w3.org/2000/svg">
<path fill-rule="evenodd" clip-rule="evenodd" d="M52.0621 66.3005L49.4303 64.5704C48.2968 63.8245 46.8646 63.7647 45.615 64.2959C44.3692 64.8233 43.3914 65.902 43.1044 67.2507L42.4375 70.3764C42.2358 71.3204 41.417 71.9986 40.47 71.9984L29.0398 72C28.0928 71.9998 27.2698 71.3253 27.0717 70.3772L26.4074 67.2552C26.1199 65.9064 25.1455 64.8312 23.8956 64.2994C22.6497 63.7715 21.2175 63.8307 20.0804 64.5723L17.4493 66.3013C16.6499 66.8247 15.6058 66.7095 14.9342 66.0231L6.84798 57.7586C6.17639 57.0722 6.06363 56.0051 6.57579 55.1881L8.26747 52.4989C9.00079 51.3368 9.05484 49.877 8.53451 48.5996C8.01805 47.3262 6.96604 46.3303 5.64248 46.0325L2.58782 45.3535C1.66405 45.1471 1.00019 44.3099 1 43.3421L1.00157 31.6599C1.00138 30.692 1.66102 29.8511 2.58859 29.649L5.64687 28.9674C6.96643 28.6741 8.01804 27.6786 8.53787 26.4014C9.05382 25.1282 8.99531 23.6644 8.26929 22.502L6.57267 19.8082C6.06018 18.991 6.17252 17.9239 6.84384 17.2378L14.9229 8.98061C15.5942 8.29449 16.6383 8.17967 17.4379 8.70345L20.0697 10.4335C21.2032 11.1795 22.6393 11.2353 23.885 10.708C25.1308 10.1807 26.1125 9.10589 26.3956 7.75327L27.0625 4.62758C27.2642 3.68352 28.083 3.00537 29.0339 3.0016L40.4641 3C41.4111 3.0002 42.2341 3.67472 42.4322 4.62283L43.0965 7.74483C43.384 9.0936 44.3584 10.1688 45.6083 10.7006C46.8542 11.2284 48.2864 11.1692 49.4234 10.4277L52.0546 8.69871C52.854 8.17526 53.8981 8.29051 54.5697 8.97691L62.652 17.2374C63.3236 17.9238 63.4325 18.9949 62.9242 19.808L61.2325 22.4971C60.5031 23.6553 60.4452 25.119 60.9655 26.3964C61.482 27.6699 62.5301 28.6697 63.8575 28.9635L66.9122 29.6425C67.836 29.8489 68.4998 30.6861 68.5 31.654L68.4984 43.3362C68.4986 44.3041 67.839 45.1449 66.9075 45.351L63.8493 46.0326C62.5297 46.3259 61.4781 47.3214 60.9582 48.5986C60.4423 49.8718 60.4969 51.3395 61.2268 52.498L62.9196 55.1878C63.4321 56.0051 63.3197 57.0721 62.6484 57.7582L54.5654 66.0194C53.9058 66.7095 52.8579 66.8283 52.0621 66.3005ZM43.7445 46.5969C48.4631 41.7743 48.465 33.3821 43.7445 28.5575C39.0239 23.7329 30.9049 23.9268 26.1863 28.7495C21.4677 33.5721 21.1529 41.7723 25.8735 46.5969C30.594 51.4215 39.0259 51.4196 43.7445 46.5969Z" fill="url(#paint0_linear_1557_39637)"/>
<path d="M43.7174 46.6463C48.6178 41.6792 48.616 33.6019 43.7139 28.6331C38.8081 23.6605 30.8276 23.6587 25.9235 28.6296C21.023 33.5967 21.0248 41.674 25.9269 46.6428C30.8327 51.6154 38.8132 51.6173 43.7174 46.6463Z" stroke="#333333" stroke-linecap="round" stroke-linejoin="round"/>
<path d="M65.7307 51.3568V51.8568H66.2307H67.8388C68.1974 51.8568 68.5464 51.8998 68.8757 51.9843L69.5 52.1445V51.5V48.0438C69.5 43.9209 66.3075 40.5 62.3449 40.5H56.6551C52.6925 40.5 49.5 43.9209 49.5 48.0438V51.5V52.1429L50.1231 51.9846C50.4576 51.8997 50.8032 51.8568 51.1612 51.8568H52.7692H53.2692V51.3568V48.6205C53.2692 46.2482 54.8374 44.5002 56.9592 44.5002H62.0026C64.1301 44.5002 65.7307 46.2545 65.7307 48.6205V51.3568Z" fill="#EFEFEF" stroke="#333333"/>
<path d="M50.897 50.5H69.103C72.0866 50.5 74.5 52.8553 74.5 55.6947V69.3053C74.5 72.1447 72.0866 74.5 69.103 74.5H50.897C47.9134 74.5 45.5 72.1447 45.5 69.3053V55.6904C45.5 52.8515 47.9129 50.5 50.897 50.5Z" fill="#D9F4FF" stroke="#333333"/>
<path d="M62.2018 67.5H62.8234L62.6902 66.8928L61.6553 62.1775C62.3136 61.7084 62.75 60.9585 62.75 60.1002V60.1002V60.1002V60.1001V60.1001V60.1V60.1V60.0999V60.0999V60.0999V60.0998V60.0998V60.0997V60.0997V60.0997V60.0996V60.0996V60.0995V60.0995V60.0995V60.0994V60.0994V60.0993V60.0993V60.0993V60.0992V60.0992V60.0991V60.0991V60.0991V60.099V60.099V60.0989V60.0989V60.0989V60.0988V60.0988V60.0987V60.0987V60.0987V60.0986V60.0986V60.0985V60.0985V60.0985V60.0984V60.0984V60.0983V60.0983V60.0983V60.0982V60.0982V60.0981V60.0981V60.0981V60.098V60.098V60.0979V60.0979V60.0979V60.0978V60.0978V60.0978V60.0977V60.0977V60.0976V60.0976V60.0976V60.0975V60.0975V60.0974V60.0974V60.0974V60.0973V60.0973V60.0973V60.0972V60.0972V60.0971V60.0971V60.0971V60.097V60.097V60.0969V60.0969V60.0969V60.0968V60.0968V60.0968V60.0967V60.0967V60.0966V60.0966V60.0966V60.0965V60.0965V60.0965V60.0964V60.0964V60.0963V60.0963V60.0963V60.0962V60.0962V60.0962V60.0961V60.0961V60.0961V60.096V60.096V60.0959V60.0959V60.0959V60.0958V60.0958V60.0958V60.0957V60.0957V60.0956V60.0956V60.0956V60.0955V60.0955V60.0955V60.0954V60.0954V60.0954V60.0953V60.0953V60.0952V60.0952V60.0952V60.0951V60.0951V60.0951V60.095V60.095V60.095V60.0949V60.0949V60.0948V60.0948V60.0948V60.0947V60.0947V60.0947V60.0946V60.0946V60.0946V60.0945V60.0945V60.0944V60.0944V60.0944V60.0943V60.0943V60.0943V60.0942V60.0942V60.0942V60.0941V60.0941V60.0941V60.094V60.094V60.0939V60.0939V60.0939V60.0938V60.0938V60.0938V60.0937V60.0937V60.0937V60.0936V60.0936V60.0936V60.0935V60.0935V60.0935V60.0934V60.0934V60.0933V60.0933V60.0933V60.0932V60.0932V60.0932V60.0931V60.0931V60.0931V60.093V60.093V60.093V60.0929V60.0929V60.0929V60.0928V60.0928V60.0927V60.0927V60.0927V60.0926V60.0926V60.0926V60.0925V60.0925V60.0925V60.0924V60.0924V60.0924V60.0923V60.0923V60.0923V60.0922V60.0922V60.0922V60.0921V60.0921V60.0921V60.092V60.092V60.0919V60.0919V60.0919V60.0918V60.0918V60.0918V60.0917V60.0917V60.0917V60.0916V60.0916V60.0916V60.0915V60.0915V60.0915V60.0914V60.0914V60.0914V60.0913V60.0913V60.0913V60.0912V60.0912V60.0911V60.0911V60.0911V60.091V60.091V60.091V60.0909V60.0909V60.0909V60.0908V60.0908V60.0908V60.0907V60.0907V60.0907V60.0906V60.0906V60.0906V60.0905V60.0905V60.0905V60.0904V60.0904V60.0903V60.0903V60.0903V60.0902V60.0902V60.0902V60.0901V60.0901V60.0901V60.09V60.09V60.09V60.0899V60.0899V60.0899V60.0898V60.0898V60.0898V60.0897V60.0897V60.0897V60.0896V60.0896V60.0896V60.0895V60.0895V60.0894V60.0894V60.0894V60.0893V60.0893V60.0893V60.0892V60.0892V60.0892V60.0891V60.0891V60.0891V60.089V60.089V60.089V60.0889V60.0889V60.0889V60.0888V60.0888V60.0887V60.0887V60.0887V60.0886V60.0886V60.0886V60.0885V60.0885V60.0885V60.0884V60.0884V60.0884V60.0883V60.0883V60.0883V60.0882V60.0882V60.0881V60.0881V60.0881V60.088V60.088V60.088V60.0879V60.0879V60.0879V60.0878V60.0878V60.0878V60.0877V60.0877V60.0877V60.0876V60.0876V60.0875V60.0875V60.0875V60.0874V60.0874V60.0874V60.0873V60.0873V60.0873V60.0872V60.0872V60.0872V60.0871V60.0871V60.087V60.087V60.087V60.0869V60.0869V60.0869V60.0868V60.0868V60.0868V60.0867V60.0867V60.0867V60.0866V60.0866V60.0865V60.0865V60.0865V60.0864V60.0864V60.0864V60.0863V60.0863V60.0863V60.0862V60.0862V60.0861V60.0861V60.0861V60.086V60.086V60.086V60.0859V60.0859V60.0858V60.0858V60.0858V60.0857V60.0857V60.0857V60.0856V60.0856V60.0856V60.0855V60.0855V60.0854V60.0854V60.0854V60.0853V60.0853V60.0853V60.0852V60.0852V60.0851V60.0851V60.0851V60.085V60.085V60.085V60.0849V60.0849V60.0848V60.0848V60.0848V60.0847V60.0847V60.0847V60.0846V60.0846V60.0845V60.0845V60.0845V60.0844V60.0844V60.0844V60.0843V60.0843V60.0842V60.0842V60.0842V60.0841V60.0841V60.084V60.084V60.084V60.0839V60.0839V60.0839V60.0838V60.0838V60.0837V60.0837V60.0837V60.0836V60.0836V60.0835V60.0835V60.0835V60.0834V60.0834V60.0834V60.0833V60.0833V60.0832V60.0832V60.0832V60.0831V60.0831V60.083V60.083V60.083V60.0829V60.0829V60.0828V60.0828V60.0828V60.0827V60.0827V60.0826V60.0826V60.0826V60.0825V60.0825V60.0824V60.0824V60.0824V60.0823V60.0823V60.0822V60.0822V60.0822V60.0821V60.0821V60.082V60.082V60.082V60.0819V60.0819V60.0818V60.0818V60.0817V60.0817V60.0817V60.0816V60.0816V60.0815V60.0815V60.0815V60.0814V60.0814V60.0813V60.0813H62.75L62.75 60.0769C62.7371 58.6201 61.477 57.5 60 57.5C58.523 57.5 57.2629 58.6201 57.25 60.0769H57.25V60.0813V60.0813V60.0814V60.0814V60.0815V60.0815V60.0815V60.0816V60.0816V60.0817V60.0817V60.0817V60.0818V60.0818V60.0819V60.0819V60.082V60.082V60.082V60.0821V60.0821V60.0822V60.0822V60.0822V60.0823V60.0823V60.0824V60.0824V60.0824V60.0825V60.0825V60.0826V60.0826V60.0826V60.0827V60.0827V60.0828V60.0828V60.0828V60.0829V60.0829V60.083V60.083V60.083V60.0831V60.0831V60.0832V60.0832V60.0832V60.0833V60.0833V60.0834V60.0834V60.0834V60.0835V60.0835V60.0835V60.0836V60.0836V60.0837V60.0837V60.0837V60.0838V60.0838V60.0839V60.0839V60.0839V60.084V60.084V60.084V60.0841V60.0841V60.0842V60.0842V60.0842V60.0843V60.0843V60.0844V60.0844V60.0844V60.0845V60.0845V60.0845V60.0846V60.0846V60.0847V60.0847V60.0847V60.0848V60.0848V60.0848V60.0849V60.0849V60.085V60.085V60.085V60.0851V60.0851V60.0851V60.0852V60.0852V60.0853V60.0853V60.0853V60.0854V60.0854V60.0854V60.0855V60.0855V60.0856V60.0856V60.0856V60.0857V60.0857V60.0857V60.0858V60.0858V60.0858V60.0859V60.0859V60.086V60.086V60.086V60.0861V60.0861V60.0861V60.0862V60.0862V60.0863V60.0863V60.0863V60.0864V60.0864V60.0864V60.0865V60.0865V60.0865V60.0866V60.0866V60.0867V60.0867V60.0867V60.0868V60.0868V60.0868V60.0869V60.0869V60.0869V60.087V60.087V60.087V60.0871V60.0871V60.0872V60.0872V60.0872V60.0873V60.0873V60.0873V60.0874V60.0874V60.0874V60.0875V60.0875V60.0875V60.0876V60.0876V60.0877V60.0877V60.0877V60.0878V60.0878V60.0878V60.0879V60.0879V60.0879V60.088V60.088V60.088V60.0881V60.0881V60.0881V60.0882V60.0882V60.0883V60.0883V60.0883V60.0884V60.0884V60.0884V60.0885V60.0885V60.0885V60.0886V60.0886V60.0886V60.0887V60.0887V60.0887V60.0888V60.0888V60.0889V60.0889V60.0889V60.089V60.089V60.089V60.0891V60.0891V60.0891V60.0892V60.0892V60.0892V60.0893V60.0893V60.0893V60.0894V60.0894V60.0894V60.0895V60.0895V60.0896V60.0896V60.0896V60.0897V60.0897V60.0897V60.0898V60.0898V60.0898V60.0899V60.0899V60.0899V60.09V60.09V60.09V60.0901V60.0901V60.0901V60.0902V60.0902V60.0902V60.0903V60.0903V60.0903V60.0904V60.0904V60.0905V60.0905V60.0905V60.0906V60.0906V60.0906V60.0907V60.0907V60.0907V60.0908V60.0908V60.0908V60.0909V60.0909V60.0909V60.091V60.091V60.091V60.0911V60.0911V60.0911V60.0912V60.0912V60.0913V60.0913V60.0913V60.0914V60.0914V60.0914V60.0915V60.0915V60.0915V60.0916V60.0916V60.0916V60.0917V60.0917V60.0917V60.0918V60.0918V60.0918V60.0919V60.0919V60.0919V60.092V60.092V60.0921V60.0921V60.0921V60.0922V60.0922V60.0922V60.0923V60.0923V60.0923V60.0924V60.0924V60.0924V60.0925V60.0925V60.0925V60.0926V60.0926V60.0926V60.0927V60.0927V60.0927V60.0928V60.0928V60.0929V60.0929V60.0929V60.093V60.093V60.093V60.0931V60.0931V60.0931V60.0932V60.0932V60.0932V60.0933V60.0933V60.0933V60.0934V60.0934V60.0935V60.0935V60.0935V60.0936V60.0936V60.0936V60.0937V60.0937V60.0937V60.0938V60.0938V60.0938V60.0939V60.0939V60.0939V60.094V60.094V60.0941V60.0941V60.0941V60.0942V60.0942V60.0942V60.0943V60.0943V60.0943V60.0944V60.0944V60.0944V60.0945V60.0945V60.0946V60.0946V60.0946V60.0947V60.0947V60.0947V60.0948V60.0948V60.0948V60.0949V60.0949V60.095V60.095V60.095V60.0951V60.0951V60.0951V60.0952V60.0952V60.0952V60.0953V60.0953V60.0954V60.0954V60.0954V60.0955V60.0955V60.0955V60.0956V60.0956V60.0956V60.0957V60.0957V60.0958V60.0958V60.0958V60.0959V60.0959V60.0959V60.096V60.096V60.0961V60.0961V60.0961V60.0962V60.0962V60.0962V60.0963V60.0963V60.0963V60.0964V60.0964V60.0965V60.0965V60.0965V60.0966V60.0966V60.0966V60.0967V60.0967V60.0968V60.0968V60.0968V60.0969V60.0969V60.0969V60.097V60.097V60.0971V60.0971V60.0971V60.0972V60.0972V60.0973V60.0973V60.0973V60.0974V60.0974V60.0974V60.0975V60.0975V60.0976V60.0976V60.0976V60.0977V60.0977V60.0978V60.0978V60.0978V60.0979V60.0979V60.0979V60.098V60.098V60.0981V60.0981V60.0981V60.0982V60.0982V60.0983V60.0983V60.0983V60.0984V60.0984V60.0985V60.0985V60.0985V60.0986V60.0986V60.0987V60.0987V60.0987V60.0988V60.0988V60.0989V60.0989V60.0989V60.099V60.099V60.0991V60.0991V60.0991V60.0992V60.0992V60.0993V60.0993V60.0993V60.0994V60.0994V60.0995V60.0995V60.0995V60.0996V60.0996V60.0997V60.0997V60.0997V60.0998V60.0998V60.0999V60.0999V60.0999V60.1V60.1V60.1001V60.1001V60.1002V60.1002V60.1002C57.25 60.959 57.6886 61.7083 58.3448 62.177L57.3098 66.8928L57.1766 67.5H57.7982H59.9975H62.2018Z" fill="white" stroke="#333333"/>
<defs>
<linearGradient id="paint0_linear_1557_39637" x1="-0.268134" y1="-1.9155" x2="40.9909" y2="42.5603" gradientUnits="userSpaceOnUse">
<stop stop-color="#FFC671"/>
<stop offset="1" stop-color="#FF6F3D"/>
</linearGradient>
</defs>
</svg>
