<svg width="212" height="24" viewBox="0 0 212 24" fill="none" xmlns="http://www.w3.org/2000/svg">
<path fill-rule="evenodd" clip-rule="evenodd" d="M11.911 23.7054L1.18526 18.7644C0.271581 18.333 0.271581 17.6664 1.18526 17.2743L4.9194 15.5488L11.8713 18.7644C12.785 19.1958 14.2548 19.1958 15.1287 18.7644L22.0806 15.5488L25.8147 17.2743C26.7284 17.7056 26.7284 18.3723 25.8147 18.7644L15.089 23.7054C14.2548 24.0976 12.785 24.0976 11.911 23.7054Z" fill="#FF6F3D"/>
<path fill-rule="evenodd" clip-rule="evenodd" d="M11.8762 17.5916L1.18317 12.6449C0.272277 12.213 0.272277 11.5456 1.18317 11.153L4.82673 9.46484L11.8762 12.7234C12.7871 13.1553 14.2525 13.1553 15.1238 12.7234L22.1733 9.46484L25.8168 11.153C26.7277 11.5849 26.7277 12.2523 25.8168 12.6449L15.1238 17.5916C14.2129 18.0235 12.7475 18.0235 11.8762 17.5916Z" fill="#95C038"/>
<path fill-rule="evenodd" clip-rule="evenodd" d="M11.8762 11.5408L1.18317 6.6652C0.272277 6.23956 0.272277 5.58174 1.18317 5.19479L11.8762 0.319233C12.7871 -0.106411 14.2525 -0.106411 15.1238 0.319233L25.8168 5.19479C26.7277 5.62044 26.7277 6.27825 25.8168 6.6652L15.1238 11.5408C14.2129 11.9277 12.7475 11.9277 11.8762 11.5408Z" fill="#5DC0E8"/>
<path fill-rule="evenodd" clip-rule="evenodd" d="M172.444 17.1226C173.218 16.5249 173.606 15.6921 173.606 14.624C173.606 13.7939 173.365 13.1188 172.884 12.5986C172.408 12.0785 171.533 11.5915 170.26 11.1377C169.502 10.8665 168.938 10.6203 168.567 10.3989C168.202 10.172 167.942 9.92578 167.787 9.66016C167.632 9.389 167.554 9.04313 167.554 8.62256C167.554 8.05257 167.765 7.6071 168.185 7.28613C168.606 6.96517 169.19 6.80469 169.937 6.80469C170.883 6.80469 171.857 7.01497 172.859 7.43555L173.299 6.20703C172.286 5.76432 171.176 5.54297 169.97 5.54297C168.813 5.54297 167.884 5.81966 167.181 6.37305C166.478 6.92643 166.127 7.67074 166.127 8.60596C166.127 9.49691 166.367 10.2191 166.849 10.7725C167.336 11.3258 168.144 11.8045 169.273 12.2085C170.081 12.4963 170.681 12.7536 171.074 12.9805C171.472 13.2074 171.755 13.4564 171.921 13.7275C172.092 13.9932 172.178 14.3363 172.178 14.7568C172.178 15.3932 171.94 15.8913 171.464 16.251C170.988 16.6051 170.28 16.7822 169.339 16.7822C168.764 16.7822 168.183 16.7214 167.596 16.5996C167.009 16.4779 166.467 16.3118 165.969 16.1016V17.4629C166.744 17.8337 167.851 18.019 169.289 18.019C170.617 18.019 171.669 17.7202 172.444 17.1226ZM144.54 16.2676C145.63 15.2051 146.175 13.6722 146.175 11.6689C146.175 9.79297 145.652 8.33203 144.606 7.28613C143.561 6.24023 142.094 5.71729 140.207 5.71729H136.488V17.853H139.85C141.892 17.853 143.455 17.3245 144.54 16.2676ZM143.486 8.14111C144.283 8.94352 144.681 10.1361 144.681 11.7188C144.681 13.3402 144.258 14.5659 143.411 15.396C142.564 16.2205 141.3 16.6328 139.618 16.6328H137.899V6.9375H139.95C141.516 6.9375 142.694 7.3387 143.486 8.14111ZM155.244 16.7739C155.991 15.9383 156.365 14.779 156.365 13.2959C156.365 11.8516 155.988 10.7061 155.236 9.85938C154.489 9.0127 153.479 8.58936 152.206 8.58936C150.889 8.58936 149.86 9.00439 149.118 9.83447C148.377 10.659 148.006 11.8128 148.006 13.2959C148.006 14.2533 148.177 15.0889 148.52 15.8027C148.864 16.5166 149.351 17.0645 149.981 17.4463C150.612 17.8281 151.334 18.019 152.148 18.019C153.465 18.019 154.497 17.604 155.244 16.7739ZM150.131 15.9521C149.666 15.3434 149.434 14.458 149.434 13.2959C149.434 12.1227 149.663 11.2401 150.122 10.6479C150.582 10.0558 151.262 9.75977 152.164 9.75977C153.078 9.75977 153.767 10.0614 154.231 10.6646C154.702 11.2622 154.937 12.1393 154.937 13.2959C154.937 14.4635 154.702 15.3517 154.231 15.9604C153.767 16.5636 153.083 16.8652 152.181 16.8652C151.279 16.8652 150.596 16.5609 150.131 15.9521ZM162.254 18.019C160.937 18.019 159.916 17.6151 159.191 16.8071C158.472 15.9937 158.112 14.8454 158.112 13.3623C158.112 11.8405 158.477 10.6646 159.208 9.83447C159.944 9.00439 160.99 8.58936 162.346 8.58936C162.783 8.58936 163.22 8.63639 163.657 8.73047C164.094 8.82454 164.437 8.93522 164.686 9.0625L164.263 10.2329C163.959 10.1112 163.627 10.0116 163.267 9.93408C162.907 9.85107 162.589 9.80957 162.312 9.80957C160.464 9.80957 159.54 10.9883 159.54 13.3457C159.54 14.4635 159.764 15.3213 160.212 15.9189C160.666 16.5166 161.336 16.8154 162.221 16.8154C162.979 16.8154 163.757 16.6522 164.554 16.3257V17.5459C163.945 17.8613 163.178 18.019 162.254 18.019ZM179.944 18.019C179.351 18.019 178.809 17.9111 178.317 17.6953C177.83 17.474 177.42 17.1364 177.088 16.6826H176.988C177.055 17.2139 177.088 17.7174 177.088 18.1934V21.937H175.71V8.75537H176.831L177.022 10.0005H177.088C177.442 9.50244 177.855 9.14274 178.325 8.92139C178.795 8.70003 179.335 8.58936 179.944 8.58936C181.15 8.58936 182.08 9.00163 182.733 9.82617C183.391 10.6507 183.72 11.8073 183.72 13.2959C183.72 14.79 183.386 15.9521 182.716 16.7822C182.052 17.6068 181.128 18.019 179.944 18.019ZM179.744 9.75977C178.815 9.75977 178.142 10.0171 177.727 10.5317C177.312 11.0464 177.099 11.8654 177.088 12.9888V13.2959C177.088 14.5742 177.301 15.4901 177.727 16.0435C178.153 16.5913 178.837 16.8652 179.778 16.8652C180.563 16.8652 181.178 16.547 181.62 15.9106C182.069 15.2743 182.293 14.3971 182.293 13.2793C182.293 12.1449 182.069 11.276 181.62 10.6729C181.178 10.0641 180.552 9.75977 179.744 9.75977ZM191.287 16.5581L191.561 17.853H192.582V11.644C192.582 10.5815 192.319 9.80957 191.793 9.32812C191.273 8.84668 190.47 8.60596 189.386 8.60596C188.849 8.60596 188.312 8.67513 187.775 8.81348C187.244 8.95182 186.754 9.14274 186.306 9.38623L186.73 10.4404C187.687 9.97559 188.545 9.74316 189.303 9.74316C189.978 9.74316 190.468 9.91471 190.772 10.2578C191.082 10.5954 191.237 11.1211 191.237 11.835V12.3994L189.693 12.4492C186.754 12.5378 185.285 13.5007 185.285 15.3379C185.285 16.1956 185.54 16.8569 186.049 17.3218C186.564 17.7866 187.272 18.019 188.174 18.019C188.849 18.019 189.411 17.9194 189.859 17.7202C190.313 17.5155 190.767 17.1281 191.22 16.5581H191.287ZM190.465 16.1763C189.978 16.6466 189.306 16.8818 188.448 16.8818C187.906 16.8818 187.482 16.7518 187.178 16.4917C186.879 16.2316 186.73 15.8525 186.73 15.3545C186.73 14.7181 186.97 14.2505 187.452 13.9517C187.939 13.6473 188.73 13.4757 189.826 13.437L191.204 13.3789V14.2007C191.204 15.0474 190.957 15.7059 190.465 16.1763ZM198.895 18.019C197.577 18.019 196.557 17.6151 195.832 16.8071C195.112 15.9937 194.752 14.8454 194.752 13.3623C194.752 11.8405 195.118 10.6646 195.848 9.83447C196.584 9.00439 197.63 8.58936 198.986 8.58936C199.423 8.58936 199.86 8.63639 200.297 8.73047C200.735 8.82454 201.078 8.93522 201.327 9.0625L200.903 10.2329C200.599 10.1112 200.267 10.0116 199.907 9.93408C199.548 9.85107 199.229 9.80957 198.953 9.80957C197.104 9.80957 196.18 10.9883 196.18 13.3457C196.18 14.4635 196.404 15.3213 196.853 15.9189C197.306 16.5166 197.976 16.8154 198.861 16.8154C199.619 16.8154 200.397 16.6522 201.194 16.3257V17.5459C200.585 17.8613 199.819 18.019 198.895 18.019ZM203.846 16.7905C204.626 17.6095 205.689 18.019 207.034 18.019C207.648 18.019 208.171 17.972 208.602 17.8779C209.04 17.7894 209.502 17.64 209.989 17.4297V16.2012C209.031 16.6107 208.063 16.8154 207.083 16.8154C206.154 16.8154 205.432 16.5387 204.917 15.9854C204.408 15.432 204.139 14.6213 204.112 13.5532H210.379V12.6816C210.379 11.4531 210.047 10.4653 209.383 9.71826C208.719 8.96566 207.817 8.58936 206.677 8.58936C205.459 8.58936 204.488 9.021 203.763 9.88428C203.044 10.7476 202.684 11.9124 202.684 13.3789C202.684 14.8343 203.071 15.9715 203.846 16.7905ZM204.909 10.457C205.346 9.98112 205.93 9.74316 206.66 9.74316C207.38 9.74316 207.933 9.97559 208.32 10.4404C208.708 10.8997 208.901 11.5638 208.901 12.4326H204.145C204.222 11.5915 204.477 10.9329 204.909 10.457ZM32.7354 11.999C32.7354 7.64744 35.702 5.86569 38.7211 5.86569C41.7401 5.86569 44.7068 7.64744 44.7068 11.999C44.7068 16.3506 41.7401 18.1323 38.7211 18.1323C35.702 18.1323 32.7354 16.3506 32.7354 11.999ZM42.0891 11.999C42.0891 7.93869 39.646 7.57891 38.7211 7.57891C37.7962 7.57891 35.353 7.93869 35.353 11.999C35.353 16.0593 37.7962 16.4191 38.7211 16.4191C39.646 16.4191 42.0891 16.0593 42.0891 11.999ZM49.1982 17.9953H46.7201V6.00275H49.9311L54.1543 13.558L54.8 15.1856H54.8523L54.8 13.0612V6.00275H57.278V17.9953H54.067L49.8089 10.1487L49.1982 8.81243H49.1458L49.1982 10.9368V17.9953ZM59.7232 17.9953H67.0527V15.9737H62.2013V6.00275H59.7232V17.9953ZM69.4609 13.0955L64.9585 6.00275H67.8205L70.3335 10.2173L70.7174 11.0396H70.7698L71.1886 10.2173L73.719 6.00275H76.3367L71.939 13.1297V17.9953H69.4609V13.0955ZM82.1103 5.86569C79.0912 5.86569 76.1245 7.64744 76.1245 11.999C76.1245 16.3506 79.0912 18.1323 82.1103 18.1323C85.1293 18.1323 88.096 16.3506 88.096 11.999C88.096 7.64744 85.1293 5.86569 82.1103 5.86569ZM82.1103 7.57891C83.0352 7.57891 85.4783 7.93869 85.4783 11.999C85.4783 16.0593 83.0352 16.4191 82.1103 16.4191C81.1853 16.4191 78.7422 16.0593 78.7422 11.999C78.7422 7.93869 81.1853 7.57891 82.1103 7.57891ZM92.5873 17.9953H90.1093V6.00275H96.9501V8.02435H92.5873V10.9368H96.7407V12.907H92.5873V17.9953ZM98.6985 17.9953H101.177V12.907H105.33V10.9368H101.177V8.02435H105.539V6.00275H98.6985V17.9953ZM109.766 17.9953H107.288V6.00275H109.766V17.9953ZM121.13 15.5796C120.52 15.8538 119.664 16.1107 118.583 16.1107C116.384 16.1107 114.394 14.9286 114.394 12.0333C114.394 9.58338 116.017 7.88729 118.757 7.88729C119.682 7.88729 120.467 8.05861 121.183 8.33273L121.287 6.27686C120.363 5.98562 119.542 5.86569 118.583 5.86569C114.743 5.86569 111.777 7.93869 111.777 12.0675C111.777 16.4363 115.092 18.1323 118.129 18.1323C119.106 18.1323 120.205 17.9782 121.287 17.6184L121.13 15.5796ZM130.5 17.9953H123.205V6.00275H130.5V8.12714H125.683V10.834H130.063V12.8042H125.683V15.8709H130.5V17.9953Z" fill="white"/>
</svg>
