<svg width="242" height="242" viewBox="0 0 242 242" fill="none" xmlns="http://www.w3.org/2000/svg">
<path d="M97.7994 162.335L88.6379 168.032C88.0607 168.39 87.6864 168.999 87.6281 169.676L85.3237 196.007C85.2201 197.194 86.0983 198.24 87.285 198.344L170.039 205.584C171.227 205.687 172.274 204.81 172.377 203.622L174.681 177.291C174.74 176.615 174.478 175.95 173.972 175.497L165.909 168.27C165.208 167.642 164.182 167.541 163.372 168.019L154.103 173.487C153.294 173.965 152.267 173.863 151.566 173.235L143.906 166.369C143.191 165.728 142.141 165.637 141.326 166.143L132.59 171.575C131.791 172.072 130.762 171.993 130.048 171.382L121.869 164.387C121.154 163.777 120.126 163.698 119.328 164.195L110.59 169.627C109.777 170.133 108.726 170.041 108.012 169.402L100.379 162.561C99.6647 161.921 98.6139 161.828 97.7994 162.335Z" fill="white"/>
<path d="M170.228 203.435L170.039 205.584L87.285 198.344L87.4738 196.195L170.228 203.435ZM172.532 177.104L164.468 169.876L155.199 175.345C153.681 176.24 151.782 176.117 150.397 175.065L150.126 174.841L142.465 167.976L133.729 173.407C132.232 174.338 130.331 174.259 128.921 173.238L128.646 173.021L120.467 166.027L111.73 171.459C110.204 172.408 108.261 172.306 106.847 171.235L106.57 171.008L98.9386 164.167L89.7771 169.863L87.285 198.344L87.0671 198.312C85.9926 198.109 85.2266 197.119 85.3237 196.006L87.6281 169.675C87.6799 169.083 87.9723 168.543 88.4308 168.177L88.6379 168.032L97.7994 162.335C98.6139 161.828 99.6658 161.921 100.379 162.561L108.011 169.401C108.681 170 109.646 170.119 110.435 169.715L110.591 169.626L119.328 164.194C120.126 163.698 121.155 163.776 121.869 164.387L130.048 171.382C130.718 171.955 131.663 172.059 132.437 171.661L132.59 171.576L141.326 166.144C142.141 165.637 143.191 165.728 143.906 166.369L151.568 173.236C152.223 173.824 153.166 173.95 153.949 173.569L154.103 173.487L163.372 168.018C164.182 167.541 165.208 167.642 165.909 168.27L173.972 175.497C174.478 175.95 174.74 176.615 174.681 177.291L172.377 203.622C172.274 204.809 171.227 205.687 170.039 205.584L172.532 177.104Z" fill="#AAAAAA"/>
<g filter="url(#filter0_d_2221_35678)">
<path d="M87.6939 85.519C87.6939 84.3273 88.6595 83.3613 89.8516 83.3613H159.059L175.08 99.3076V163.035C175.08 164.842 172.991 165.848 171.578 164.722L164.829 159.348C164.435 159.034 163.878 159.034 163.484 159.348L153.905 166.976C153.512 167.288 152.955 167.288 152.561 166.976L142.982 159.348C142.588 159.034 142.032 159.034 141.638 159.348L132.059 166.976C131.665 167.288 131.109 167.288 130.715 166.976L121.136 159.348C120.742 159.034 120.185 159.034 119.792 159.348L110.213 166.976C109.819 167.288 109.262 167.288 108.868 166.976L99.2893 159.348C98.8955 159.034 98.3388 159.034 97.945 159.348L91.1958 164.722C89.7826 165.848 87.6939 164.842 87.6939 163.035V85.519Z" fill="white"/>
</g>
<g filter="url(#filter1_d_2221_35678)">
<path d="M87.6939 85.519C87.6939 84.4017 88.543 83.4832 89.6315 83.3729L89.8516 83.3613H159.059L175.08 99.3076V163.035L175.073 163.202C174.954 164.847 173.074 165.753 171.713 164.822L171.578 164.722L164.829 159.348C164.435 159.034 163.878 159.034 163.484 159.348L153.905 166.976L153.75 167.079C153.429 167.255 153.038 167.255 152.717 167.079L152.561 166.976L142.982 159.348C142.588 159.034 142.032 159.034 141.638 159.348L132.059 166.976L131.904 167.079C131.582 167.255 131.192 167.255 130.87 167.079L130.715 166.976L121.136 159.348C120.742 159.034 120.185 159.034 119.792 159.348L110.213 166.976L110.057 167.079C109.736 167.255 109.345 167.255 109.024 167.079L108.868 166.976L99.2893 159.348C98.8955 159.034 98.3388 159.034 97.945 159.348L91.1958 164.722L91.061 164.822C89.6995 165.753 87.8201 164.847 87.7004 163.202L87.6939 163.035V85.519ZM89.8516 163.035L96.6008 157.66L96.8284 157.495C97.9105 156.775 99.3238 156.775 100.406 157.495L100.634 157.66L109.54 164.751L118.447 157.66L118.675 157.495C119.757 156.775 121.17 156.775 122.252 157.495L122.48 157.66L131.387 164.751L140.294 157.66L140.521 157.495C141.603 156.775 143.017 156.775 144.099 157.495L144.326 157.66L153.233 164.751L162.14 157.66L162.368 157.495C163.45 156.775 164.863 156.775 165.945 157.495L166.173 157.66L172.922 163.035V100.204L158.168 85.519H89.8516V163.035Z" fill="#AAAAAA"/>
</g>
<path d="M130.847 130.832C130.847 132.024 129.882 132.989 128.69 132.989C127.498 132.989 126.532 132.024 126.532 130.832C126.532 129.639 127.498 128.674 128.69 128.674C129.882 128.674 130.847 129.639 130.847 130.832Z" fill="#AAAAAA"/>
<path d="M117.834 114.066C118.135 113.597 118.741 113.439 119.227 113.686L119.323 113.742L124.491 117.064L124.614 117.149C125.81 118.067 125.181 120.044 123.617 120.044H116.823C116.227 120.044 115.744 119.561 115.744 118.965C115.744 118.369 116.227 117.886 116.823 117.886H121.78L118.157 115.557L118.067 115.492C117.639 115.151 117.531 114.535 117.834 114.066Z" fill="#AAAAAA"/>
<path d="M144.941 114.066C144.64 113.597 144.033 113.439 143.547 113.686L143.451 113.742L138.283 117.064L138.16 117.149C136.964 118.067 137.593 120.044 139.157 120.044H145.951C146.547 120.044 147.03 119.561 147.03 118.965C147.03 118.369 146.547 117.886 145.951 117.886H140.994L144.617 115.557L144.708 115.492C145.135 115.151 145.243 114.535 144.941 114.066Z" fill="#AAAAAA"/>
<path d="M87.5428 132.161C88.0013 131.779 88.6809 131.84 89.0628 132.299C89.4437 132.756 89.3811 133.437 88.9237 133.818C83.8801 138.017 80.7914 141.859 79.5033 144.897C78.8614 146.411 78.7006 147.644 78.8797 148.591C79.0512 149.501 79.5529 150.242 80.4634 150.802C82.4194 152.004 85.3139 152.079 88.3487 151.534C90.9627 151.064 93.4926 150.169 95.2349 149.392L95.9307 149.067L96.0321 149.024C96.5457 148.835 97.1282 149.062 97.3731 149.565C97.618 150.067 97.4368 150.666 96.9718 150.954L96.8758 151.007L96.1238 151.358C94.2456 152.196 91.5453 153.152 88.7306 153.658C85.5609 154.227 81.9911 154.274 79.3339 152.64C77.9371 151.783 77.0516 150.535 76.7597 148.993C76.4752 147.489 76.7732 145.808 77.5166 144.055C78.9995 140.559 82.3859 136.453 87.5428 132.161Z" fill="#AAAAAA"/>
<path d="M95.8976 149.244C96.1899 148.769 96.7919 148.599 97.285 148.838L97.3821 148.891L97.4953 148.955C98.0941 149.265 99.1772 149.429 100.46 148.9C101.01 148.674 101.64 148.936 101.868 149.486C102.094 150.036 101.833 150.667 101.282 150.895C99.4728 151.642 97.7111 151.505 96.4877 150.864L96.2514 150.729L96.1597 150.666C95.726 150.334 95.6052 149.72 95.8976 149.244Z" fill="#AAAAAA"/>
<path d="M175.23 132.698C174.772 132.318 174.093 132.38 173.712 132.839C173.33 133.296 173.393 133.976 173.851 134.357C178.901 138.561 181.879 142.264 183.063 145.156C183.651 146.59 183.767 147.744 183.562 148.635C183.364 149.495 182.843 150.225 181.906 150.801C179.95 152.003 177.056 152.079 174.02 151.533C171.406 151.062 168.877 150.167 167.134 149.39L166.438 149.067L166.337 149.023C165.823 148.835 165.24 149.062 164.996 149.564C164.751 150.067 164.932 150.665 165.397 150.953L165.493 151.006L166.246 151.357C168.125 152.195 170.825 153.151 173.64 153.657C176.808 154.227 180.378 154.273 183.035 152.64C184.405 151.798 185.322 150.607 185.664 149.118C186 147.659 185.756 146.033 185.06 144.336C183.676 140.961 180.38 136.986 175.23 132.698Z" fill="#AAAAAA"/>
<path d="M166.472 149.244C166.18 148.769 165.578 148.599 165.085 148.838L164.988 148.891L164.874 148.955C164.275 149.265 163.192 149.429 161.91 148.9C161.359 148.674 160.729 148.936 160.503 149.486C160.275 150.036 160.537 150.667 161.088 150.895C162.897 151.642 164.66 151.505 165.882 150.864L166.118 150.729L166.21 150.666C166.644 150.334 166.764 149.72 166.472 149.244Z" fill="#AAAAAA"/>
<path d="M61.4857 167.829L61.5602 167.911C61.9058 168.335 61.8807 168.959 61.4857 169.354C61.0908 169.749 60.4657 169.774 60.0419 169.429L59.9601 169.354L57.8026 167.197C57.3813 166.776 57.3813 166.093 57.8026 165.671C58.2239 165.25 58.907 165.25 59.3283 165.671L61.4857 167.829Z" fill="#FF6F3D"/>
<path d="M64.2758 173.669L64.2014 173.587C63.8557 173.163 63.8809 172.538 64.2758 172.142C64.6708 171.747 65.2959 171.723 65.7196 172.068L65.8015 172.142L67.959 174.3C68.3803 174.722 68.3803 175.405 67.959 175.825C67.5377 176.247 66.8546 176.247 66.4333 175.825L64.2758 173.669Z" fill="#FF6F3D"/>
<path d="M65.8015 169.353L65.7196 169.427C65.2959 169.773 64.6708 169.748 64.2758 169.353C63.8809 168.958 63.8557 168.332 64.2014 167.91L64.2758 167.828L66.4333 165.67C66.8546 165.248 67.5377 165.248 67.959 165.67C68.3803 166.091 68.3803 166.775 67.959 167.195L65.8015 169.353Z" fill="#FF6F3D"/>
<path d="M59.9601 172.142L60.0419 172.068C60.4657 171.723 61.0908 171.747 61.4857 172.142C61.8807 172.537 61.9058 173.163 61.5602 173.586L61.4857 173.668L59.3283 175.825C58.907 176.247 58.2239 176.247 57.8026 175.825C57.3813 175.405 57.3813 174.721 57.8026 174.3L59.9601 172.142Z" fill="#FF6F3D"/>
<path d="M117.585 39.4461L117.66 39.5281C118.005 39.9518 117.98 40.5768 117.585 40.9718C117.19 41.3668 116.565 41.392 116.142 41.0463L116.06 40.9718L113.902 38.8144C113.48 38.393 113.48 37.71 113.902 37.2886C114.323 36.8673 115.007 36.8673 115.428 37.2886L117.585 39.4461Z" fill="#FF6F3D"/>
<path d="M120.375 45.2873L120.301 45.2053C119.956 44.7816 119.981 44.1566 120.375 43.7615C120.77 43.3666 121.396 43.3414 121.819 43.6871L121.901 43.7615L124.059 45.919C124.48 46.3404 124.48 47.0234 124.059 47.4447C123.638 47.8661 122.954 47.8661 122.533 47.4447L120.375 45.2873Z" fill="#FF6F3D"/>
<path d="M121.901 40.9718L121.819 41.0462C121.396 41.3919 120.77 41.3667 120.375 40.9718C119.981 40.5768 119.956 39.9517 120.301 39.528L120.375 39.4461L122.533 37.2886C122.954 36.8673 123.638 36.8673 124.059 37.2886C124.48 37.7099 124.48 38.393 124.059 38.8143L121.901 40.9718Z" fill="#FF6F3D"/>
<path d="M116.06 43.7615L116.142 43.6871C116.565 43.3414 117.19 43.3666 117.585 43.7615C117.98 44.1565 118.005 44.7816 117.66 45.2053L117.585 45.2872L115.428 47.4447C115.007 47.866 114.323 47.866 113.902 47.4447C113.48 47.0234 113.48 46.3403 113.902 45.919L116.06 43.7615Z" fill="#FF6F3D"/>
<path d="M35.5935 109.571L35.6679 109.653C36.0136 110.077 35.9884 110.702 35.5935 111.096C35.1985 111.491 34.5734 111.516 34.1497 111.171L34.0678 111.096L31.9103 108.939C31.489 108.518 31.489 107.835 31.9103 107.413C32.3316 106.992 33.0147 106.992 33.436 107.413L35.5935 109.571Z" fill="#FF6F3D"/>
<path d="M38.3839 115.413L38.3095 115.331C37.9638 114.907 37.9889 114.282 38.3839 113.886C38.7789 113.491 39.4039 113.467 39.8277 113.812L39.9096 113.886L42.0671 116.044C42.4883 116.466 42.4883 117.149 42.0671 117.569C41.6458 117.991 40.9626 117.991 40.5414 117.569L38.3839 115.413Z" fill="#FF6F3D"/>
<path d="M39.9096 111.095L39.8277 111.17C39.4039 111.515 38.7789 111.49 38.3839 111.095C37.9889 110.7 37.9638 110.075 38.3095 109.652L38.3839 109.57L40.5414 107.412C40.9626 106.99 41.6458 106.99 42.0671 107.412C42.4883 107.833 42.4883 108.517 42.0671 108.938L39.9096 111.095Z" fill="#FF6F3D"/>
<path d="M34.0678 113.886L34.1497 113.812C34.5734 113.467 35.1985 113.491 35.5935 113.886C35.9884 114.281 36.0136 114.907 35.6679 115.33L35.5935 115.412L33.436 117.569C33.0147 117.991 32.3316 117.991 31.9103 117.569C31.489 117.149 31.489 116.465 31.9103 116.044L34.0678 113.886Z" fill="#FF6F3D"/>
<path d="M203.892 100.94L203.967 101.022C204.312 101.446 204.287 102.071 203.892 102.466C203.498 102.86 202.872 102.885 202.449 102.54L202.367 102.466L200.209 100.308C199.787 99.8871 199.787 99.2042 200.209 98.7824C200.63 98.3616 201.314 98.3616 201.735 98.7824L203.892 100.94Z" fill="#FF6F3D"/>
<path d="M206.682 106.782L206.608 106.7C206.263 106.276 206.287 105.651 206.682 105.255C207.077 104.861 207.703 104.836 208.126 105.181L208.208 105.255L210.365 107.413C210.787 107.835 210.787 108.518 210.365 108.939C209.945 109.36 209.261 109.36 208.84 108.939L206.682 106.782Z" fill="#FF6F3D"/>
<path d="M208.208 102.466L208.126 102.541C207.703 102.886 207.077 102.861 206.682 102.466C206.287 102.071 206.263 101.446 206.608 101.023L206.682 100.941L208.84 98.7832C209.261 98.3613 209.945 98.3613 210.365 98.7832C210.787 99.2039 210.787 99.8879 210.365 100.309L208.208 102.466Z" fill="#FF6F3D"/>
<path d="M202.367 105.255L202.449 105.181C202.872 104.836 203.498 104.861 203.892 105.255C204.287 105.65 204.312 106.276 203.967 106.699L203.892 106.781L201.735 108.939C201.314 109.36 200.63 109.36 200.209 108.939C199.787 108.518 199.787 107.834 200.209 107.413L202.367 105.255Z" fill="#FF6F3D"/>
<path d="M158.897 84.4414L174.001 99.5451H159.976C159.381 99.5451 158.897 99.0618 158.897 98.4663V84.4414Z" fill="#AAAAAA"/>
<path d="M105.31 170.074C103.923 164.894 106.997 159.57 112.176 158.183L144.481 149.526C149.66 148.139 154.984 151.213 156.373 156.392C157.76 161.573 154.687 166.897 149.507 168.284L117.203 176.94C112.023 178.328 106.699 175.255 105.31 170.074Z" fill="#F5F5F5"/>
<path d="M155.33 156.672C154.096 152.068 149.364 149.336 144.76 150.569L112.455 159.226C107.851 160.459 105.119 165.192 106.352 169.796C107.586 174.399 112.319 177.132 116.923 175.899L149.227 167.242C153.832 166.009 156.564 161.276 155.33 156.672ZM157.415 156.114C158.956 161.869 155.541 167.785 149.786 169.327L117.482 177.982C111.726 179.525 105.811 176.109 104.268 170.354C102.726 164.599 106.142 158.683 111.897 157.141L144.201 148.486C149.957 146.943 155.872 150.359 157.415 156.114Z" fill="#FF6F3D"/>
<path d="M133.651 159.13C133.497 158.555 132.906 158.213 132.329 158.367L126.078 160.043C125.501 160.197 125.16 160.788 125.314 161.364L126.989 167.616C127.143 168.192 127.736 168.533 128.311 168.379L134.564 166.704C135.139 166.549 135.481 165.958 135.326 165.383L133.651 159.13ZM137.411 164.824C137.873 166.55 136.849 168.325 135.122 168.788L128.87 170.463C127.142 170.926 125.368 169.901 124.905 168.175L123.231 161.922C122.768 160.196 123.792 158.421 125.519 157.958L131.771 156.283C133.498 155.82 135.273 156.845 135.735 158.571L137.411 164.824Z" fill="#FF6F3D"/>
<path d="M146.026 163.633C145.872 163.058 146.213 162.466 146.789 162.312C147.364 162.158 147.956 162.499 148.111 163.075C148.265 163.65 147.923 164.241 147.348 164.396C146.772 164.55 146.181 164.209 146.026 163.633Z" fill="#AAAAAA"/>
<path d="M146.789 162.312C147.364 162.158 147.956 162.499 148.111 163.075C148.265 163.65 147.923 164.241 147.348 164.396C146.772 164.55 146.181 164.209 146.026 163.633C145.872 163.058 146.213 162.466 146.789 162.312Z" fill="#FF6F3D"/>
<path d="M115.806 171.73C115.652 171.155 115.994 170.562 116.569 170.408C117.145 170.254 117.736 170.596 117.891 171.171C118.045 171.747 117.703 172.338 117.128 172.492C116.552 172.647 115.961 172.306 115.806 171.73Z" fill="#AAAAAA"/>
<path d="M116.569 170.408C117.145 170.254 117.736 170.596 117.891 171.171C118.045 171.747 117.703 172.338 117.128 172.492C116.552 172.647 115.961 172.306 115.806 171.73C115.652 171.155 115.994 170.562 116.569 170.408Z" fill="#FF6F3D"/>
<path d="M143.792 155.296C143.638 154.72 143.98 154.129 144.555 153.975C145.131 153.82 145.722 154.162 145.877 154.737C146.031 155.313 145.689 155.905 145.114 156.059C144.539 156.213 143.947 155.871 143.792 155.296Z" fill="#AAAAAA"/>
<path d="M144.555 153.975C145.131 153.82 145.722 154.162 145.877 154.737C146.031 155.313 145.689 155.905 145.114 156.059C144.539 156.213 143.947 155.871 143.792 155.296C143.638 154.72 143.98 154.129 144.555 153.975Z" fill="#FF6F3D"/>
<path d="M113.572 163.394C113.417 162.818 113.759 162.227 114.336 162.072C114.911 161.918 115.502 162.259 115.656 162.835C115.81 163.41 115.469 164.002 114.893 164.157C114.318 164.311 113.726 163.969 113.572 163.394Z" fill="#AAAAAA"/>
<path d="M114.336 162.072C114.911 161.918 115.502 162.259 115.656 162.835C115.81 163.41 115.469 164.002 114.893 164.157C114.318 164.311 113.726 163.969 113.572 163.394C113.417 162.818 113.759 162.227 114.336 162.072Z" fill="#FF6F3D"/>
<path d="M149.078 158.348C148.924 157.773 149.266 157.182 149.841 157.027C150.417 156.873 151.008 157.214 151.162 157.79C151.316 158.365 150.974 158.956 150.399 159.111C149.824 159.265 149.232 158.924 149.078 158.348Z" fill="#AAAAAA"/>
<path d="M149.841 157.027C150.417 156.873 151.008 157.214 151.162 157.79C151.316 158.365 150.974 158.956 150.399 159.111C149.824 159.265 149.232 158.924 149.078 158.348C148.924 157.773 149.266 157.182 149.841 157.027Z" fill="#FF6F3D"/>
<path d="M118.857 166.445C118.703 165.868 119.045 165.277 119.621 165.123C120.196 164.969 120.787 165.311 120.941 165.886C121.096 166.462 120.755 167.053 120.179 167.207C119.604 167.362 119.011 167.02 118.857 166.445Z" fill="#AAAAAA"/>
<path d="M119.621 165.123C120.196 164.969 120.787 165.311 120.941 165.886C121.096 166.462 120.755 167.053 120.179 167.207C119.604 167.362 119.011 167.02 118.857 166.445C118.703 165.868 119.045 165.277 119.621 165.123Z" fill="#FF6F3D"/>
<path d="M140.742 160.581C140.588 160.005 140.928 159.414 141.505 159.26C142.08 159.105 142.672 159.447 142.826 160.022C142.98 160.597 142.638 161.19 142.063 161.344C141.487 161.498 140.896 161.156 140.742 160.581Z" fill="#AAAAAA"/>
<path d="M141.505 159.26C142.08 159.105 142.672 159.447 142.826 160.022C142.98 160.597 142.638 161.19 142.063 161.344C141.487 161.498 140.896 161.156 140.742 160.581C140.588 160.005 140.928 159.414 141.505 159.26Z" fill="#FF6F3D"/>
<path d="M110.521 168.678C110.367 168.103 110.709 167.512 111.284 167.357C111.86 167.203 112.451 167.544 112.605 168.12C112.76 168.695 112.418 169.287 111.843 169.442C111.266 169.596 110.675 169.254 110.521 168.678Z" fill="#AAAAAA"/>
<path d="M111.284 167.357C111.86 167.203 112.451 167.544 112.605 168.12C112.76 168.695 112.418 169.287 111.843 169.442C111.266 169.596 110.675 169.254 110.521 168.678C110.367 168.103 110.709 167.512 111.284 167.357Z" fill="#FF6F3D"/>
<defs>
<filter id="filter0_d_2221_35678" x="72.6939" y="75.3613" width="117.386" height="113.85" filterUnits="userSpaceOnUse" color-interpolation-filters="sRGB">
<feFlood flood-opacity="0" result="BackgroundImageFix"/>
<feColorMatrix in="SourceAlpha" type="matrix" values="0 0 0 0 0 0 0 0 0 0 0 0 0 0 0 0 0 0 127 0" result="hardAlpha"/>
<feOffset dy="7"/>
<feGaussianBlur stdDeviation="7.5"/>
<feColorMatrix type="matrix" values="0 0 0 0 0.333333 0 0 0 0 0.333333 0 0 0 0 0.333333 0 0 0 0.1 0"/>
<feBlend mode="normal" in2="BackgroundImageFix" result="effect1_dropShadow_2221_35678"/>
<feBlend mode="normal" in="SourceGraphic" in2="effect1_dropShadow_2221_35678" result="shape"/>
</filter>
<filter id="filter1_d_2221_35678" x="72.6939" y="75.3613" width="117.386" height="113.85" filterUnits="userSpaceOnUse" color-interpolation-filters="sRGB">
<feFlood flood-opacity="0" result="BackgroundImageFix"/>
<feColorMatrix in="SourceAlpha" type="matrix" values="0 0 0 0 0 0 0 0 0 0 0 0 0 0 0 0 0 0 127 0" result="hardAlpha"/>
<feOffset dy="7"/>
<feGaussianBlur stdDeviation="7.5"/>
<feColorMatrix type="matrix" values="0 0 0 0 0.333333 0 0 0 0 0.333333 0 0 0 0 0.333333 0 0 0 0.1 0"/>
<feBlend mode="normal" in2="BackgroundImageFix" result="effect1_dropShadow_2221_35678"/>
<feBlend mode="normal" in="SourceGraphic" in2="effect1_dropShadow_2221_35678" result="shape"/>
</filter>
</defs>
</svg>
