<svg width="16" height="16" viewBox="0 0 16 16" fill="none" xmlns="http://www.w3.org/2000/svg">
<path fill-rule="evenodd" clip-rule="evenodd" d="M4.49855 10.4663C3.47095 9.6138 2.66305 8.61284 2.21425 8C2.66305 7.38716 3.47095 6.3862 4.49855 5.53367C5.58253 4.63435 6.7903 4 7.99904 4C9.20777 4 10.4155 4.63435 11.4995 5.53367C12.5271 6.3862 13.335 7.38716 13.7838 8C13.335 8.61284 12.5271 9.6138 11.4995 10.4663C10.4155 11.3656 9.20777 12 7.99904 12C6.7903 12 5.58253 11.3656 4.49855 10.4663ZM7.99904 2C6.11062 2 4.45615 2.97015 3.22154 3.99443C1.97136 5.03163 1.02734 6.22746 0.541537 6.8996C0.0642782 7.55992 0.0642803 8.44008 0.541538 9.1004C1.02735 9.77254 1.97136 10.9684 3.22154 12.0056C4.45615 13.0298 6.11062 14 7.99904 14C9.88745 14 11.5419 13.0298 12.7765 12.0056C14.0267 10.9684 14.9707 9.77254 15.4565 9.1004C15.9338 8.44008 15.9338 7.55992 15.4565 6.8996C14.9707 6.22746 14.0267 5.03163 12.7765 3.99443C11.5419 2.97015 9.88745 2 7.99904 2ZM7.99904 6C6.89447 6 5.99904 6.89543 5.99904 8C5.99904 9.10457 6.89447 10 7.99904 10C9.10361 10 9.99903 9.10457 9.99903 8C9.99903 6.89543 9.10361 6 7.99904 6Z" fill="#A3A9AE"/>
</svg>
