<svg width="214" height="214" viewBox="0 0 214 214" fill="none" xmlns="http://www.w3.org/2000/svg">
<rect width="214" height="214" fill="white"/>
<path d="M52.7214 102.637V95.4143C52.7214 89.9276 53.8389 85.2909 56.08 81.5102C58.321 77.7296 62.2979 74.0499 68.0105 70.4654C72.5461 67.6062 75.8096 65.0322 77.795 62.7377C79.7805 60.4431 80.7791 57.8097 80.7791 54.8434C80.7791 52.4894 79.7151 50.6288 77.587 49.2557C75.4589 47.8825 72.6887 47.1989 69.2707 47.1989C60.8117 47.1989 50.9261 50.1949 39.6139 56.1869L27.939 33.3305C41.8846 25.3768 56.4485 21.4 71.6247 21.4C84.114 21.4 93.9164 24.1463 101.026 29.633C108.135 35.1198 111.696 42.5979 111.696 52.0614C111.696 58.8381 110.115 64.7053 106.947 69.6629C103.784 74.6206 98.7254 79.3108 91.7823 83.7334C85.9032 87.5438 82.2177 90.3258 80.7375 92.0913C79.2574 93.8568 78.5084 95.9433 78.5084 98.3508V102.637H52.7214ZM49.1071 132.044C49.1071 126.89 50.6051 122.913 53.6011 120.113C56.5971 117.314 61.0079 115.911 66.8335 115.911C72.4331 115.911 76.731 117.326 79.727 120.155C82.723 122.985 84.221 126.944 84.221 132.044C84.221 137.138 82.6695 141.091 79.5605 143.891C76.4516 146.691 72.2072 148.094 66.8335 148.094C61.2873 148.094 56.9479 146.709 53.8092 143.933C50.6765 141.157 49.1071 137.198 49.1071 132.044Z" fill="#DBDBDB"/>
<path d="M122.319 192.642C157.349 192.642 185.746 189.988 185.746 186.715C185.746 183.442 157.349 180.788 122.319 180.788C87.2889 180.788 58.8916 183.442 58.8916 186.715C58.8916 189.988 87.2889 192.642 122.319 192.642Z" fill="#DDDDDD"/>
<path d="M152.528 166.843L160.197 170.98C163.282 171.878 165.107 170.742 166.111 168.258C170.011 170.077 172.216 169.012 173.601 166.557C167.948 163.71 162.016 158.057 155.869 150.222L152.528 166.843Z" fill="#19AADB"/>
<path d="M155.869 167.681C160.946 168.62 163.888 168.269 163.906 166.153C168.287 166.468 169.417 165.042 166.551 161.481L173.607 166.326C172.478 168.798 170.237 169.732 166.117 168.026C165.713 169.702 164.405 170.76 161.992 171.051L155.869 167.681Z" fill="#045C7C"/>
<path d="M152.528 166.605L160.197 170.742C163.282 171.64 165.107 170.505 166.111 168.02C170.011 169.839 172.216 168.775 173.601 166.32C167.948 163.472 162.016 157.819 155.869 149.984L152.528 166.605Z" stroke="#082E41" stroke-width="2.5" stroke-miterlimit="10" stroke-linecap="round" stroke-linejoin="round"/>
<path d="M69.758 119.531C69.6035 119.263 87.526 66.2152 89.8265 61.2813C90.4566 59.599 96.294 42.7643 98.8382 38.3476C98.8382 38.3476 101.561 41.4387 100.931 44.0008C100.693 44.9816 103.463 46.224 103.166 49.0238C102.833 52.109 103.196 53.2325 102.221 56.1096C103.029 56.4722 129.892 63.3381 130.486 63.3381C141.632 64.2535 147.167 56.1453 147.933 55.2952C148.046 55.1585 149.657 48.7742 150.43 47.187C150.923 46.1764 155.085 47.8112 154.764 53.1968C154.734 53.7199 156.25 54.463 156.975 56.1096C157.391 59.8784 156.297 64.3367 155.887 68.1412C155.637 72.7243 155.394 77.3075 155.144 81.8907C154.972 85.1304 154.728 96.3178 154.835 98.6481C154.865 99.3138 157.664 150.876 157.938 155.495C158.336 160.987 159.959 180.586 159.216 185.306C158.96 186.959 131.949 170.291 117.248 169.096C101.371 166.777 89.6541 175.973 81.5756 182.988C61.2694 161.148 69.5143 121.873 69.758 119.531Z" fill="#19AADB"/>
<path d="M98.3508 39.2571C99.8072 39.7327 100.842 42.479 100.931 44.0008C101.026 44.0424 103.647 47.8112 103.647 47.8112C103.647 47.8112 103.582 49.9571 103.582 50.0106C103.582 50.1771 102.851 53.393 102.91 53.1968C104.004 49.755 99.8072 49.7728 99.8072 49.7728C99.0582 46.8838 97.4591 43.5252 96.8944 44.4704C96.6566 44.8687 97.8217 39.0847 98.3508 39.2571Z" fill="#045C7C"/>
<path d="M152.927 59.3315C154.942 56.7813 156.03 66.9582 156.089 66.5837C157.254 59.3137 158.574 53.9993 154.77 53.1909C156.06 50.5456 151.453 44.94 150.436 47.5496C150.299 47.8944 147.934 55.0753 148.177 54.5819C149.241 52.4538 153.509 55.6638 152.927 59.3315Z" fill="#045C7C"/>
<path opacity="0.21" d="M156.184 54.4154C149.907 85.3266 138.155 73.5209 156.916 148.676C158.336 125.309 154.579 115.602 154.829 94.7604C155.542 75.5004 157.783 54.2847 156.184 54.4154Z" fill="#082E41"/>
<path opacity="0.2" d="M157.314 143.856C159.769 171.224 144.307 176.883 121.195 169.702C136.889 174.565 151.084 179.796 159.18 186.519C161.671 182.435 159.008 161.719 157.314 143.856Z" fill="#082E41"/>
<path opacity="0.19" d="M103.285 169.958C81.5518 178.387 77.5393 166.266 68.1173 137.192C67.3148 134.077 67.9747 169.898 81.5815 182.988C84.8807 180.2 92.763 174.434 103.285 169.958Z" fill="#082E41"/>
<path opacity="0.19" d="M100.931 44.0008C102.72 49.006 100.663 55.6103 96.8589 55.7767L102.583 56.4187C103.178 52.8104 105.811 47.8112 100.931 44.0008Z" fill="#082E41"/>
<path d="M86.5451 70.0374C89.2676 62.5534 95.6222 44.7082 98.3507 39.2571C98.541 38.8707 98.9095 39.0491 99.2721 39.2749C100.259 39.8932 101.002 41.4387 100.931 43.9948C100.919 44.3634 103.98 45.2907 103.671 49.0179C103.398 52.2992 103.195 53.2266 102.227 56.1037C103.035 56.4663 129.898 63.3321 130.492 63.3321C141.626 64.2476 146.091 58.0059 146.643 56.8289C146.643 56.8289 146.643 56.8289 146.643 56.8229C147.939 55.2833 149.693 48.5364 150.436 47.1751C151.631 44.9994 155.804 50.3911 154.769 53.1849C154.668 53.4584 156.844 54.2193 156.981 56.0977C157.397 59.8665 156.303 64.3248 155.893 68.1293C155.643 72.7124 155.4 77.2956 155.15 81.8788C154.978 85.1185 154.734 96.3059 154.841 98.6362C154.871 99.3019 157.67 150.864 157.944 155.483C158.342 160.976 159.965 180.574 159.222 185.294C158.966 186.947 131.955 170.279 117.254 169.084C101.376 166.765 89.66 175.961 81.5815 182.976C50.3791 139.35 82.4434 87.7875 86.5451 70.0374Z" stroke="#082E41" stroke-width="2.5" stroke-miterlimit="10"/>
<path d="M154.77 53.1909C153.848 57.994 153.099 60.0924 151.352 62.5534" stroke="#082E41" stroke-width="2.5" stroke-miterlimit="10" stroke-linecap="round" stroke-linejoin="round"/>
<path d="M101.008 44.0127C100.086 48.8158 100.294 48.8277 99.064 51.6037" stroke="#082E41" stroke-width="2.5" stroke-miterlimit="10" stroke-linecap="round" stroke-linejoin="round"/>
<path d="M97.6138 55.7708L102.916 56.3474" stroke="#082E41" stroke-width="2.5" stroke-miterlimit="10" stroke-linecap="round" stroke-linejoin="round"/>
<path d="M96.8647 167.853C105.139 167.289 113.051 167.728 120.476 169.559" stroke="#082E41" stroke-width="2.5" stroke-miterlimit="10" stroke-linecap="round" stroke-linejoin="round"/>
<path d="M77.676 182.578C76.1958 184.533 73.7586 184.932 72.8907 184.522C72.0644 184.123 71.9812 181.341 73.4554 179.391C74.9356 177.436 77.0756 176.574 78.2407 177.448C79.4058 178.327 79.1502 180.628 77.676 182.578Z" fill="#045C7C" stroke="#062E41" stroke-width="2.5" stroke-miterlimit="10"/>
<path d="M82.3961 184.896C80.1788 186.394 77.5514 185.805 76.5586 184.92C75.4886 183.975 76.5408 181.014 78.7581 179.516C80.9754 178.018 83.5909 178.006 84.5955 179.493C85.6001 180.979 84.6134 183.398 82.3961 184.896Z" fill="#045C7C" stroke="#062E41" stroke-width="2.5" stroke-miterlimit="10"/>
<path d="M153.831 186.656C155.311 188.611 157.748 189.01 158.616 188.599C159.442 188.201 159.525 185.419 158.051 183.469C156.571 181.52 154.431 180.652 153.266 181.525C152.095 182.399 152.35 184.7 153.831 186.656Z" fill="#045C7C" stroke="#062E41" stroke-width="2.5" stroke-miterlimit="10"/>
<path d="M158.8 183.969C159.269 186.608 161.522 188.076 162.848 188.177C164.275 188.284 165.666 185.467 165.196 182.833C164.726 180.194 162.913 178.315 161.148 178.625C159.382 178.94 158.336 181.335 158.8 183.969Z" fill="#045C7C" stroke="#062E41" stroke-width="2.5" stroke-miterlimit="10"/>
<path d="M142.078 86.7235C142.435 80.0776 137.852 74.4304 131.854 74.1094C125.85 73.7884 120.702 78.9184 120.345 85.5643C119.989 92.2102 124.572 97.8574 130.57 98.1784C136.573 98.4935 141.721 93.3694 142.078 86.7235Z" fill="#014254" stroke="#082E41" stroke-width="2.5" stroke-miterlimit="10"/>
<path d="M102.851 81.2189C103.939 74.8881 101.073 69.1042 96.4485 68.3136C91.8237 67.517 87.1871 72.0051 86.0992 78.3359C85.0114 84.6667 87.8766 90.4507 92.5014 91.2413C97.1262 92.0319 101.757 87.5498 102.851 81.2189Z" fill="#014254" stroke="#082E41" stroke-width="2.5" stroke-miterlimit="10"/>
<path d="M91.8954 76.6061C93.2841 76.6061 94.4099 75.4803 94.4099 74.0916C94.4099 72.7028 93.2841 71.5771 91.8954 71.5771C90.5066 71.5771 89.3809 72.7028 89.3809 74.0916C89.3809 75.4803 90.5066 76.6061 91.8954 76.6061Z" fill="white"/>
<path d="M104.105 83.8523C97.459 83.7453 90.825 82.8299 84.3931 81.1417C84.1732 84.1793 83.7273 87.0088 83.5014 90.0465C83.3885 91.5682 83.2874 93.1554 83.87 94.5642C84.7379 96.6745 87.0443 97.9466 89.321 98.0655C91.5978 98.1844 93.8269 97.3106 95.7648 96.1098C100.122 93.4229 102.845 88.8159 104.105 83.8523Z" fill="#19AADB"/>
<path d="M84.3931 81.1417C90.825 82.8358 97.459 83.7453 104.105 83.8523" stroke="#082E41" stroke-width="2.5" stroke-miterlimit="10" stroke-linecap="round" stroke-linejoin="round"/>
<path d="M144.283 86.1944C135.801 89.0597 126.468 89.345 117.831 86.9969C118.08 89.4639 118.152 91.7466 119.138 94.0173C120.636 97.4592 123.644 100.206 127.205 101.394C130.766 102.583 134.82 102.191 138.083 100.348C141.347 98.5054 143.778 95.23 144.592 91.5682C144.997 89.7373 144.444 88.0729 144.283 86.1944Z" fill="#19AADB"/>
<path d="M117.825 87.0029C126.462 89.3509 135.801 89.0656 144.277 86.2004" stroke="#082E41" stroke-width="2.5" stroke-miterlimit="10" stroke-linecap="round" stroke-linejoin="round"/>
<path d="M102.893 90.5696C102.928 90.5874 104.688 88.5722 109.865 86.9018C113.545 88.0848 113.765 91.0035 115.881 93.3337C116.749 93.4586 108.498 97.4948 106.002 96.5794C104.688 95.4618 102.934 92.3113 102.893 90.5696Z" fill="#014254" stroke="#082E41" stroke-width="2.5" stroke-miterlimit="10" stroke-linecap="round" stroke-linejoin="round"/>
<path d="M150.234 83.0855C150.103 74.044 142.488 66.9345 133.215 67.2138C123.948 67.4932 116.535 75.0427 116.666 84.0901C116.797 93.1316 124.411 100.241 133.685 99.9618C142.952 99.6883 150.365 92.1329 150.234 83.0855Z" stroke="#98D8E6" stroke-width="2.5" stroke-miterlimit="10"/>
<path d="M105.116 78.7223C105.009 70.2098 98.4043 63.5104 90.3674 63.7601C82.3305 64.0098 75.9046 71.1134 76.0116 79.6258C76.1186 88.1383 82.7228 94.8377 90.7597 94.588C98.7966 94.3383 105.229 87.2347 105.116 78.7223Z" stroke="#98D8E6" stroke-width="2.5" stroke-miterlimit="10"/>
<path d="M104.688 83.2757C107.071 79.4534 114.971 80.4878 116.666 84.0961" stroke="#98D8E6" stroke-width="2.5" stroke-miterlimit="10" stroke-linecap="round" stroke-linejoin="round"/>
<path d="M85.588 104.194C93.5833 104.194 97.7147 101.311 101.81 96.2108C103.582 100.318 106.168 101.9 110.525 101.763C114.52 101.632 118.479 100.271 121.653 97.8277C121.302 99.3079 120.874 100.8 120.636 102.292C120.654 102.161 124.066 101.466 124.459 101.234C126.23 103.939 119.804 111.09 118.104 113.153C114.924 117.016 99.0581 129.791 77.355 128.792" fill="#19AADB"/>
<path d="M85.588 104.194C93.5833 104.194 97.7147 101.311 101.81 96.2108C103.582 100.318 106.168 101.9 110.525 101.763C114.52 101.632 118.479 100.271 121.653 97.8277C121.302 99.3079 120.874 100.8 120.636 102.292C120.654 102.161 124.066 101.466 124.459 101.234C126.23 103.939 119.804 111.09 118.104 113.153C114.924 117.016 99.0581 129.791 77.355 128.792" stroke="#082E41" stroke-width="2.5" stroke-miterlimit="10" stroke-linecap="round" stroke-linejoin="round"/>
<path d="M123.852 102.007C123.918 102.001 123.995 101.989 124.007 102.025C124.363 103.065 122.961 105.52 122.396 106.447C122.164 106.828 121.914 107.202 121.671 107.577C120.826 108.878 120.184 109.74 119.007 110.983C118.948 110.477 119.097 109.966 119.263 109.485C119.43 109.003 119.614 108.51 119.632 107.999C119.649 107.487 119.459 106.935 119.025 106.661C118.508 106.334 117.83 106.495 117.248 106.679C116.665 106.863 116.011 107.065 115.465 106.798C115.988 106.192 116.541 105.508 116.529 104.705C116.517 103.945 115.97 103.279 115.31 102.904C114.65 102.53 113.883 102.411 113.128 102.304C113.432 102.346 113.693 102.215 113.955 102.09C114.234 101.959 114.573 101.929 114.87 101.858C115.536 101.698 116.19 101.495 116.838 101.258C118.122 100.782 119.352 100.152 120.488 99.3911C120.5 99.3792 120.541 99.6824 120.541 99.7121C120.535 99.8548 120.488 99.9856 120.446 100.122C120.381 100.336 120.375 100.556 120.327 100.776C120.268 101.056 120.208 101.341 120.155 101.62C120.125 101.769 120.095 101.917 120.06 102.066C120.042 102.161 119.935 102.423 119.97 102.506C120.072 102.779 120.535 102.607 120.714 102.565C121.076 102.476 121.439 102.399 121.807 102.328C122.176 102.256 122.55 102.197 122.925 102.143C123.103 102.12 123.282 102.096 123.466 102.078C123.537 102.06 123.715 102.013 123.852 102.007Z" fill="#045C7C"/>
<path d="M120.922 100.764C120.631 102.684 120.001 104.557 119.067 106.263" stroke="#082E41" stroke-width="2.5" stroke-miterlimit="10" stroke-linecap="round" stroke-linejoin="round"/>
<path d="M138.815 111.119C123.716 119.519 105.698 121.582 89.3809 116.785C90.3974 119.995 92.4422 122.806 95.0875 124.637C93.5182 124.441 91.9489 124.239 90.3795 124.043C90.7659 126.765 92.3234 129.262 94.5109 130.665C93.536 130.588 92.5552 130.51 91.5803 130.439C92.5255 134.885 115.477 145.657 129.119 140.889" fill="#19AADB"/>
<path d="M138.815 111.119C123.716 119.519 105.698 121.582 89.3809 116.785C90.3974 119.995 92.4422 122.806 95.0875 124.637C93.5182 124.441 91.9489 124.239 90.3795 124.043C90.7659 126.765 92.3234 129.262 94.5109 130.665C93.536 130.588 92.5552 130.51 91.5803 130.439C92.5255 134.885 115.477 145.657 129.119 140.889" stroke="#082E41" stroke-width="2.5" stroke-miterlimit="10" stroke-linecap="round" stroke-linejoin="round"/>
<path d="M90.7124 118.069C91.6873 120.886 93.6371 122.212 95.4085 124.905C95.569 125.148 95.4739 125.452 95.1886 125.398C93.857 125.16 92.3887 124.78 91.1701 124.661C92.0975 127.776 93.6906 128.644 95.3669 130.849C94.5585 131.23 94.071 131.432 93.0961 131.378C93.114 131.378 95.0875 133.233 95.5155 133.477C97.2394 134.469 98.8385 135.319 100.663 136.122C99.8371 135.765 98.9811 135.397 98.3451 134.761C97.7031 134.125 97.3167 133.15 97.6198 132.3C98.0478 131.111 99.5102 130.73 100.759 130.522C99.7539 129.815 98.6898 129.03 98.2678 127.877C97.8457 126.724 98.4342 125.119 99.6588 124.988C98.4461 124.518 97.5901 123.246 97.608 121.944C97.6258 120.678 98.571 120.601 99.956 119.798C97.6198 119.471 92.9475 118.663 90.7124 118.069Z" fill="#045C7C"/>
<path d="M93.8691 130.118C94.9154 131.164 96.3242 131.473 98.2442 131.973" stroke="#082E41" stroke-width="2.5" stroke-miterlimit="10" stroke-linecap="round" stroke-linejoin="round"/>
<path d="M93.8213 123.959C95.5987 124.917 97.6971 125.273 99.6885 124.952" stroke="#082E41" stroke-width="2.5" stroke-miterlimit="10" stroke-linecap="round" stroke-linejoin="round"/>
<path d="M88.7329 87.8113C91.0096 89.0775 93.6846 89.6184 96.2764 89.3391" stroke="#082E41" stroke-width="2.5" stroke-miterlimit="10" stroke-linecap="round" stroke-linejoin="round"/>
<path d="M135.42 93.7974C137.418 93.6012 139.362 92.9117 141.038 91.8119" stroke="#082E41" stroke-width="2.5" stroke-miterlimit="10" stroke-linecap="round" stroke-linejoin="round"/>
<path d="M95.967 72.4093C96.6171 72.4093 97.144 71.8823 97.144 71.2323C97.144 70.5822 96.6171 70.0553 95.967 70.0553C95.317 70.0553 94.79 70.5822 94.79 71.2323C94.79 71.8823 95.317 72.4093 95.967 72.4093Z" fill="white"/>
<path d="M137.364 85.5762C138.753 85.5762 139.879 84.4504 139.879 83.0617C139.879 81.673 138.753 80.5472 137.364 80.5472C135.975 80.5472 134.85 81.673 134.85 83.0617C134.85 84.4504 135.975 85.5762 137.364 85.5762Z" fill="white"/>
<path d="M134.63 79.2989C135.28 79.2989 135.807 78.7719 135.807 78.1219C135.807 77.4719 135.28 76.9449 134.63 76.9449C133.98 76.9449 133.453 77.4719 133.453 78.1219C133.453 78.7719 133.98 79.2989 134.63 79.2989Z" fill="white"/>
</svg>
