<svg width="174" height="158" viewBox="0 0 174 158" fill="none" xmlns="http://www.w3.org/2000/svg">
<path d="M22.1689 57.7594V81.2358C19.7184 73.6642 20.6201 72.9885 14.5309 69.4922C20.4716 68.3554 20.4716 65.6206 22.1689 57.7594ZM22.1689 57.7594V81.2358C24.6194 73.6642 23.7177 72.9885 29.8069 69.4922C23.8663 68.3554 23.8663 65.6206 22.1689 57.7594Z" fill="#CCCCCC" fill-opacity="0.5"/>
<path d="M157.977 20.8679V44.3443C155.466 36.7727 156.39 36.097 150.152 32.6008C156.238 31.4639 156.238 28.7399 157.977 20.8679ZM157.977 20.8679V44.3443C160.487 36.7727 159.563 36.097 165.801 32.6008C159.716 31.4639 159.716 28.7399 157.977 20.8679Z" fill="#CCCCCC" fill-opacity="0.5"/>
<path d="M109.541 10.8066V26.4576C107.861 21.4114 108.48 20.9536 104.324 18.6321C108.38 17.8801 108.38 16.0491 109.541 10.8066ZM109.541 10.8066V26.4576C111.22 21.4114 110.601 20.9536 114.757 18.6321C110.701 17.8801 110.701 16.0491 109.541 10.8066Z" fill="#CCCCCC" fill-opacity="0.5"/>
<path d="M37.2587 15.2783V30.5566C35.5789 25.6305 36.1978 25.1837 32.0425 22.9175C36.0983 22.1727 36.0983 20.3959 37.2587 15.2783ZM37.2587 15.2783V30.5566C38.9385 25.6305 38.3196 25.1837 42.4749 22.9175C38.4191 22.1727 38.4191 20.3959 37.2587 15.2783Z" fill="#CCCCCC" fill-opacity="0.5"/>
<path d="M48.8089 29.066V44.717C47.2491 39.6708 47.8238 39.213 43.9653 36.8915C47.7314 36.1286 47.7314 34.3085 48.8089 29.066ZM48.8089 29.066V44.717C50.3687 39.6708 49.794 39.213 53.6525 36.8915C49.8864 36.1286 49.8864 34.3085 48.8089 29.066Z" fill="#CCCCCC" fill-opacity="0.5"/>
<path d="M10.0598 40.9906V56.6415C8.38005 51.5953 8.99892 51.1376 4.84363 48.8161C8.89946 48.0531 8.89946 46.233 10.0598 40.9906ZM10.0598 40.9906V56.6415C11.7396 51.5953 11.1208 51.1376 15.2761 48.8161C11.2202 48.0531 11.2202 46.233 10.0598 40.9906Z" fill="#CCCCCC" fill-opacity="0.5"/>
<path d="M93.1467 75.6462V90.9245C91.4669 85.9985 92.0858 85.5516 87.9305 83.2854C91.9863 82.5406 91.9863 80.7638 93.1467 75.6462ZM93.1467 75.6462V90.9245C94.8265 85.9985 94.2076 85.5516 98.3629 83.2854C94.3071 82.5406 94.3071 80.7638 93.1467 75.6462Z" fill="#EBD140"/>
<path d="M161.889 70.0566V81.9812C160.629 78.1392 161.093 77.796 157.977 76.0134C161.027 75.4376 161.027 74.0426 161.889 70.0566ZM161.889 70.0566V81.9812C163.149 78.1392 162.685 77.796 165.801 76.0134C162.762 75.4376 162.762 74.0426 161.889 70.0566Z" fill="#CCCCCC" fill-opacity="0.5"/>
<path d="M142.328 23.4764V35.0283C141.128 31.3064 141.57 30.9739 138.602 29.247C141.507 28.6893 141.507 27.3485 142.328 23.4764ZM142.328 23.4764V35.0283C143.528 31.3064 143.086 30.9739 146.054 29.247C143.16 28.6893 143.16 27.3485 142.328 23.4764Z" fill="#CCCCCC" fill-opacity="0.5"/>
<path d="M3.91216 83.4717V95.0236C2.65231 91.3017 3.11647 90.9584 0 89.2423C3.05016 88.6845 3.05016 87.3438 3.91216 83.4717ZM3.91216 83.4717V95.0236C5.17201 91.3017 4.70786 90.9691 7.82432 89.2423C4.78522 88.6845 4.78522 87.3438 3.91216 83.4717Z" fill="#CCCCCC" fill-opacity="0.5"/>
<path d="M89.0483 24.2217V47.6981C86.538 40.1264 87.4617 39.4508 81.2239 35.9545C87.3095 34.8177 87.3095 32.0936 89.0483 24.2217ZM89.0483 24.2217V47.6981C91.5586 40.1264 90.6349 39.4508 96.8726 35.9545C90.787 34.8177 90.787 32.0936 89.0483 24.2217Z" fill="#EBD140"/>
<path d="M53.0551 82.9797C52.0457 83.1314 69.6779 85.1797 34.4994 101.067C21.8283 106.79 8.66327 103.593 10.6284 103.95C11.9384 104.189 19.6377 107.212 33.1357 103.961C53.1625 99.1601 70.7732 80.3354 53.0551 82.9797Z" fill="#333333"/>
<path d="M33.3466 109.929C43.5324 109.929 51.7896 101.754 51.7896 91.6698C51.7896 81.5854 43.5324 73.4104 33.3466 73.4104C23.1607 73.4104 14.9035 81.5854 14.9035 91.6698C14.9035 101.754 23.1607 109.929 33.3466 109.929Z" fill="url(#paint0_linear_234_9451)"/>
<path fill-rule="evenodd" clip-rule="evenodd" d="M33.5328 73.7436C23.6339 73.7436 15.6093 81.7694 15.6093 91.6698C15.6093 101.57 23.6339 109.596 33.5328 109.596C43.4317 109.596 51.4563 101.57 51.4563 91.6698C51.4563 81.7694 43.4317 73.7436 33.5328 73.7436ZM14.5309 91.6698C14.5309 81.1737 23.0383 72.665 33.5328 72.665C44.0273 72.665 52.5347 81.1737 52.5347 91.6698C52.5347 102.166 44.0273 110.674 33.5328 110.674C23.0383 110.674 14.5309 102.166 14.5309 91.6698Z" fill="#333333"/>
<path d="M59.2266 83.3384C59.7344 84.7952 47.0083 84.306 32.8455 89.1016C18.6826 93.8972 6.53997 102.606 7.93357 100.724C8.85183 99.469 16.4032 91.0581 30.566 86.2626C44.7289 81.4563 58.7081 81.8817 59.2266 83.3384Z" fill="#333333"/>
<path d="M109.354 157.627C127.154 157.627 141.583 143.279 141.583 125.58C141.583 107.881 127.154 93.533 109.354 93.533C91.5548 93.533 77.1255 107.881 77.1255 125.58C77.1255 143.279 91.5548 157.627 109.354 157.627Z" fill="#EFEFEF"/>
<path fill-rule="evenodd" clip-rule="evenodd" d="M109.354 93.8656C91.9443 93.8656 77.8307 107.981 77.8307 125.394C77.8307 142.806 91.9443 156.922 109.354 156.922C126.764 156.922 140.878 142.806 140.878 125.394C140.878 107.981 126.764 93.8656 109.354 93.8656ZM76.7529 125.394C76.7529 107.386 91.349 92.7877 109.354 92.7877C127.36 92.7877 141.956 107.386 141.956 125.394C141.956 143.402 127.36 158 109.354 158C91.349 158 76.7529 143.402 76.7529 125.394Z" fill="#CCCCCC"/>
<path d="M152.388 136.759C163.911 136.759 173.253 127.5 173.253 116.078C173.253 104.656 163.911 95.3962 152.388 95.3962C140.865 95.3962 131.523 104.656 131.523 116.078C131.523 127.5 140.865 136.759 152.388 136.759Z" fill="url(#paint1_linear_234_9451)"/>
<path fill-rule="evenodd" clip-rule="evenodd" d="M152.388 95.7325C141.251 95.7325 132.223 104.841 132.223 116.078C132.223 127.314 141.251 136.423 152.388 136.423C163.525 136.423 172.553 127.314 172.553 116.078C172.553 104.841 163.525 95.7325 152.388 95.7325ZM131.151 116.078C131.151 104.244 140.659 94.6509 152.388 94.6509C164.117 94.6509 173.625 104.244 173.625 116.078C173.625 127.912 164.117 137.505 152.388 137.505C140.659 137.505 131.151 127.912 131.151 116.078Z" fill="#444444"/>
<g style="mix-blend-mode:overlay">
<path d="M106.932 106.948C96.7507 105.85 94.2817 105.4 94.6371 102.104C94.9924 98.808 103.271 95.9751 113.453 97.0731C123.634 98.1711 133.2 109.557 131.337 112.165C127.611 114.587 120.159 106.948 106.932 106.948Z" fill="black"/>
</g>
<path d="M98.7076 97.71C99.361 98.0418 100.402 87.4469 101.144 87.0616C103.735 85.7238 103.702 90.315 103.492 94.6493C103.281 99.0264 103.027 100.535 102.993 101.702C102.982 102.472 99.4939 102.965 99.1506 102.826C99.1506 102.826 94.3995 102.933 94.2666 101.263C94.167 99.829 97.5337 98.0097 98.7076 97.71Z" fill="#A1CC3A"/>
<path fill-rule="evenodd" clip-rule="evenodd" d="M101.78 87.6544C101.75 87.7183 101.713 87.8191 101.671 87.9631C101.581 88.2648 101.484 88.6899 101.383 89.208C101.184 90.2214 100.978 91.5327 100.771 92.8427L100.759 92.9187C100.55 94.2459 100.341 95.5682 100.144 96.5378C100.046 97.0184 99.947 97.437 99.8456 97.732C99.7977 97.8713 99.7343 98.0291 99.6459 98.1541C99.6033 98.2144 99.5216 98.3157 99.3888 98.383C99.3117 98.4221 99.2258 98.445 99.1374 98.4482C98.6238 98.6076 97.6519 99.0826 96.7934 99.6963C96.343 100.018 95.9517 100.359 95.6841 100.686C95.4073 101.025 95.3249 101.273 95.3342 101.429C95.3457 101.565 95.448 101.746 95.8312 101.939C96.2059 102.127 96.7273 102.26 97.2888 102.348C97.8421 102.435 98.3968 102.473 98.8165 102.489C99.0254 102.496 99.1989 102.499 99.3193 102.499C99.3795 102.499 99.4264 102.499 99.4577 102.498C99.4733 102.498 99.4851 102.498 99.4927 102.498L99.501 102.498L99.5027 102.498L99.5029 102.498L99.6167 102.495L99.6753 102.52C99.6948 102.521 99.7234 102.521 99.7622 102.521C99.8639 102.52 100.005 102.51 100.176 102.492C100.518 102.455 100.95 102.386 101.371 102.29C101.798 102.192 102.187 102.072 102.459 101.944C102.576 101.888 102.65 101.841 102.693 101.806C102.709 101.362 102.753 100.862 102.81 100.206C102.828 99.9984 102.848 99.7751 102.868 99.533C102.959 98.4655 103.07 96.9968 103.172 94.8101L103.172 94.8099C103.274 92.6231 103.327 90.4496 103.061 88.9946C102.924 88.248 102.724 87.8208 102.521 87.6375C102.437 87.5621 102.354 87.5287 102.25 87.5261C102.147 87.5235 101.994 87.5515 101.78 87.6544ZM102.726 101.776C102.726 101.776 102.726 101.776 102.724 101.778C102.725 101.776 102.726 101.776 102.726 101.776ZM99.6474 102.517C99.6475 102.517 99.6495 102.517 99.6532 102.518C99.6492 102.517 99.6473 102.517 99.6474 102.517ZM99.4508 103.572C99.4165 103.572 99.3713 103.572 99.3165 103.572C99.1857 103.572 98.9998 103.569 98.7768 103.561C98.3327 103.544 97.7329 103.504 97.1237 103.409C96.5227 103.314 95.8736 103.16 95.3523 102.898C94.842 102.641 94.3218 102.208 94.2682 101.508L94.268 101.506L94.2678 101.503C94.2301 100.939 94.5185 100.421 94.8577 100.006C95.2078 99.5773 95.6817 99.1736 96.1733 98.8221C97.0853 98.1702 98.155 97.6309 98.8203 97.4234C98.825 97.4108 98.8299 97.3969 98.8352 97.3817C98.9122 97.1578 99.0003 96.798 99.0967 96.3233C99.2879 95.3822 99.493 94.0866 99.7035 92.751L99.7176 92.6615C99.9223 91.3622 100.131 90.0343 100.334 89.0008C100.437 88.4737 100.542 88.008 100.646 87.656C100.698 87.4814 100.755 87.3179 100.819 87.183C100.851 87.1156 100.891 87.0425 100.94 86.9747C100.986 86.9121 101.065 86.8191 101.186 86.7535L101.187 86.7529C101.552 86.5576 101.917 86.4442 102.277 86.4533C102.649 86.4626 102.972 86.6028 103.234 86.8383C103.721 87.2768 103.97 88.0207 104.112 88.8007C104.405 90.3989 104.34 92.7003 104.239 94.8599M99.4508 103.572C99.4963 103.581 99.536 103.585 99.5636 103.587C99.6311 103.593 99.7039 103.595 99.7764 103.594C99.9223 103.592 100.099 103.58 100.29 103.559C100.673 103.518 101.146 103.442 101.609 103.336C102.067 103.231 102.542 103.091 102.915 102.914C103.1 102.827 103.288 102.717 103.439 102.577C103.585 102.441 103.753 102.221 103.759 101.919C103.771 101.489 103.813 101.012 103.873 100.325C103.891 100.113 103.912 99.881 103.933 99.6239C104.025 98.5451 104.138 97.0626 104.239 94.8602" fill="#39431E"/>
<path opacity="0.3" d="M102.536 87.9434C101.941 93.063 101.206 98.2372 100.07 99.1413C98.2316 98.8799 96.2199 100.841 95.7548 101.908C95.7548 101.908 99.4214 103.302 102.504 101.723C102.504 101.723 102.677 101.276 102.677 99.7513C102.926 94.9802 103.001 94.6207 103.11 90.3289C104.04 89.9259 105.413 90.0239 106.56 88.5425C105.846 88.8584 103.38 88.5316 102.536 87.9434Z" fill="#39431E"/>
<path d="M106.594 88.4742C106.826 87.1433 105.261 85.7584 103.098 85.3809C100.935 85.0034 98.993 85.7762 98.7608 87.1071C98.5286 88.438 100.094 89.8229 102.257 90.2004C104.42 90.5779 106.362 89.8051 106.594 88.4742Z" fill="#5C6C30"/>
<path fill-rule="evenodd" clip-rule="evenodd" d="M99.9675 88.6078C100.514 89.0914 101.35 89.4952 102.35 89.6697C103.349 89.8441 104.272 89.7473 104.95 89.4774C105.638 89.2037 105.991 88.7939 106.063 88.3816C106.135 87.9693 105.941 87.4641 105.387 86.9736C104.841 86.49 104.005 86.0862 103.005 85.9117C102.006 85.7373 101.082 85.8341 100.404 86.104C99.7168 86.3777 99.3634 86.7875 99.2914 87.1998C99.2195 87.6121 99.4132 88.1173 99.9675 88.6078ZM99.2536 89.4149C98.5426 88.7858 98.0698 87.9331 98.23 87.0145C98.3903 86.0959 99.1239 85.4539 100.006 85.1028C100.898 84.7479 102.027 84.6471 103.19 84.8502C104.354 85.0532 105.382 85.5306 106.101 86.1665C106.812 86.7956 107.285 87.6483 107.125 88.5669C106.964 89.4855 106.231 90.1275 105.349 90.4786C104.457 90.8335 103.328 90.9343 102.164 90.7313C101.001 90.5282 99.9724 90.0508 99.2536 89.4149Z" fill="#39431E"/>
<path d="M81.4468 82.9867C81.7236 82.4734 81.3707 81.7457 80.6585 81.3614C79.9462 80.9771 79.1443 81.0816 78.8674 81.595C78.5906 82.1083 78.9435 82.836 79.6558 83.2203C80.368 83.6046 81.1699 83.5 81.4468 82.9867Z" fill="#5C6C30"/>
<path fill-rule="evenodd" clip-rule="evenodd" d="M79.2785 82.2678C79.3774 82.4719 79.575 82.6869 79.8604 82.8409C80.1459 82.9949 80.4339 83.042 80.6588 83.0126C80.8844 82.9832 81.0115 82.8858 81.0675 82.782C81.1235 82.6782 81.1351 82.5185 81.0358 82.3138C80.9368 82.1097 80.7393 81.8947 80.4538 81.7407C80.1684 81.5867 79.8803 81.5396 79.6554 81.569C79.4298 81.5984 79.3028 81.6958 79.2468 81.7996C79.1908 81.9034 79.1791 82.0631 79.2785 82.2678ZM78.5029 82.6441C78.3169 82.2606 78.2673 81.7998 78.4881 81.3903C78.709 80.9808 79.1214 80.7692 79.544 80.7141C79.9673 80.6589 80.4363 80.7517 80.8631 80.982C81.2899 81.2123 81.625 81.5533 81.8113 81.9375C81.9973 82.321 82.047 82.7818 81.8261 83.1913C81.6052 83.6008 81.1929 83.8124 80.7703 83.8675C80.3469 83.9227 79.8779 83.8299 79.4511 83.5996C79.0243 83.3693 78.6892 83.0283 78.5029 82.6441Z" fill="#39431E"/>
<path d="M78.908 85.2585C79.858 85.1957 80.5934 84.62 80.5506 83.9727C80.5077 83.3254 79.7029 82.8516 78.7529 82.9145C77.8029 82.9774 77.0674 83.5531 77.1103 84.2004C77.1531 84.8476 77.9579 85.3214 78.908 85.2585Z" fill="#5C6C30"/>
<path fill-rule="evenodd" clip-rule="evenodd" d="M77.8249 83.6777C77.6022 83.8521 77.5311 84.0325 77.5403 84.1719C77.5495 84.3114 77.6438 84.4808 77.8875 84.6243C78.1289 84.7664 78.4794 84.8549 78.8795 84.8285C79.2795 84.802 79.6153 84.6681 79.8359 84.4954C80.0587 84.321 80.1298 84.1406 80.1205 84.0012C80.1113 83.8617 80.0171 83.6923 79.7733 83.5488C79.5319 83.4067 79.1814 83.3181 78.7813 83.3446C78.3813 83.3711 78.0455 83.505 77.8249 83.6777ZM77.2936 82.9989C77.6675 82.7062 78.1745 82.5208 78.7244 82.4844C79.2744 82.448 79.8013 82.5649 80.2105 82.8058C80.6174 83.0453 80.947 83.4364 80.9806 83.9442C81.0142 84.4521 80.739 84.8832 80.3672 85.1742C79.9933 85.4669 79.4864 85.6523 78.9364 85.6887C78.3864 85.7251 77.8595 85.6081 77.4503 85.3673C77.0434 85.1278 76.7138 84.7367 76.6802 84.2288C76.6466 83.721 76.9218 83.2899 77.2936 82.9989Z" fill="#39431E"/>
<path d="M86.6047 85.3851C89.39 83.9314 90.9674 81.4485 90.1278 79.8393C89.2882 78.2301 86.3496 78.104 83.5642 79.5577C80.7788 81.0114 79.2015 83.4943 80.0411 85.1035C80.8807 86.7127 83.8193 86.8388 86.6047 85.3851Z" fill="#A1CC3A"/>
<path fill-rule="evenodd" clip-rule="evenodd" d="M80.898 82.5612C80.3109 83.4854 80.2256 84.2925 80.5187 84.8543C80.8118 85.4161 81.5226 85.8077 82.6163 85.8546C83.6937 85.9008 85.0313 85.5985 86.3554 84.9075C87.6795 84.2164 88.6926 83.2919 89.2709 82.3816C89.858 81.4574 89.9433 80.6504 89.6502 80.0885C89.357 79.5267 88.6463 79.1351 87.5525 79.0882C86.4752 79.042 85.1375 79.3443 83.8134 80.0354C82.4893 80.7264 81.4763 81.6509 80.898 82.5612ZM79.9886 81.9834C80.6854 80.8865 81.8537 79.8427 83.315 79.08C84.7762 78.3174 86.3006 77.9559 87.5987 78.0116C88.8805 78.0666 90.0589 78.5427 90.6053 79.59C91.1518 80.6374 90.8683 81.8764 90.1803 82.9595C89.4835 84.0563 88.3151 85.1001 86.8539 85.8628C85.3926 86.6254 83.8683 86.9869 82.5701 86.9312C81.2883 86.8762 80.11 86.4002 79.5635 85.3528C79.0171 84.3054 79.3006 83.0664 79.9886 81.9834Z" fill="#39431E"/>
<path d="M87.9346 80.3818C88.0929 82.4895 90.6265 81.7278 92.1534 79.2654C94.1554 76.0203 94.0762 74.7891 93.6351 73.9752C93.194 73.1614 92.5719 75.0813 90.8188 76.949C88.9412 78.9628 87.8554 79.4427 87.9346 80.3818Z" fill="#A1CC3A"/>
<path fill-rule="evenodd" clip-rule="evenodd" d="M93.5085 73.4544C93.7608 73.5478 93.8945 73.7575 93.9647 73.8956C94.5127 74.9739 94.4534 76.4353 92.5502 79.7254L92.5496 79.7264C91.7889 81.0347 90.7361 81.9703 89.7601 82.2599C89.2636 82.4071 88.717 82.403 88.2695 82.0892C87.8242 81.777 87.6072 81.2489 87.5632 80.6295C87.5076 79.9149 87.8982 79.4092 88.3758 78.9071C88.5416 78.7328 88.7224 78.5543 88.9213 78.3578C89.3328 77.9514 89.8223 77.468 90.4181 76.7864L90.4187 76.7857L90.4193 76.7851C91.0677 76.0483 91.541 75.3101 91.9225 74.715C92.01 74.5786 92.0926 74.4497 92.1715 74.33C92.2751 74.1726 92.3769 74.0245 92.4752 73.8999C92.5682 73.782 92.6842 73.6507 92.8223 73.5563C92.965 73.4587 93.2172 73.3466 93.5085 73.4544ZM91.2283 77.4731C90.6095 78.181 90.0581 78.7263 89.6351 79.1447C89.4491 79.3287 89.2878 79.4881 89.1566 79.6261C88.6963 80.1099 88.6113 80.319 88.6296 80.5502L88.6298 80.5524L88.6299 80.5546C88.6611 80.9969 88.7997 81.169 88.8903 81.2325C88.9792 81.2948 89.1498 81.342 89.4514 81.2525C90.0713 81.0686 90.938 80.3789 91.621 79.2045C93.1261 76.6026 93.294 75.4281 93.1546 74.774C93.1276 74.8138 93.099 74.8565 93.0689 74.9023C92.9994 75.0077 92.9235 75.1262 92.8409 75.2552C92.4599 75.8503 91.9352 76.6698 91.2283 77.4731ZM92.9943 74.3423C92.9943 74.3421 92.9959 74.3442 92.999 74.3492C92.9957 74.345 92.9942 74.3425 92.9943 74.3423Z" fill="#39431E"/>
<path opacity="0.3" d="M93.3562 74.5283C92.1425 77.2737 89.8573 78.7197 88.1079 79.0341C86.4241 80.6163 85.0246 84.5458 80.1591 83.6341C79.9404 85.2688 80.3668 85.9499 82.0616 86.4528C85.1886 86.3166 89.0154 84.5353 90.4587 81.0145C91.8473 79.9876 92.6892 78.7826 93.8919 75.66L93.3562 74.5283Z" fill="#39431E"/>
<path d="M80.6773 87.5365C81.5594 87.0661 82.0408 86.2462 81.7524 85.7053C81.464 85.1644 80.5151 85.1072 79.633 85.5776C78.7508 86.0481 78.2695 86.868 78.5579 87.4089C78.8462 87.9498 79.7951 88.0069 80.6773 87.5365Z" fill="#5C6C30"/>
<path fill-rule="evenodd" clip-rule="evenodd" d="M79.0281 86.685C78.8757 86.9446 78.891 87.1176 78.9381 87.206C78.9853 87.2944 79.1204 87.4035 79.4208 87.4216C79.7127 87.4392 80.0919 87.3601 80.4745 87.1561C80.857 86.9521 81.134 86.6813 81.2821 86.429C81.4345 86.1694 81.4192 85.9964 81.3721 85.908C81.3249 85.8196 81.1898 85.7105 80.8894 85.6924C80.5974 85.6748 80.2182 85.7539 79.8357 85.9579C79.4532 86.1619 79.1762 86.4328 79.0281 86.685ZM78.2848 86.2485C78.5258 85.838 78.9305 85.4637 79.4302 85.1972C79.9298 84.9308 80.4661 84.8033 80.9412 84.8319C81.4079 84.86 81.8914 85.0499 82.1327 85.5024C82.3739 85.9549 82.2621 86.4623 82.0254 86.8655C81.7844 87.276 81.3796 87.6504 80.88 87.9168C80.3804 88.1832 79.8441 88.3108 79.369 88.2822C78.9023 88.254 78.4188 88.0641 78.1775 87.6116C77.9363 87.1591 78.048 86.6517 78.2848 86.2485Z" fill="#39431E"/>
<path d="M89.4671 85.3231C90.3304 87.1222 93.66 85.5131 94.2458 82.6189C95.0165 78.8084 94.5232 77.7468 93.845 77.2216C93.1564 76.6964 93.2284 78.6855 92.2213 81.155C91.1422 83.8034 89.0869 84.5186 89.4671 85.3231Z" fill="#A1CC3A"/>
<path fill-rule="evenodd" clip-rule="evenodd" d="M93.6683 76.77C93.9307 76.7381 94.1486 76.8423 94.2965 76.9434L94.2981 76.9445L94.2997 76.9457C94.7902 77.2861 95.1827 77.7996 95.3242 78.7162C95.4594 79.5917 95.3677 80.8415 94.9491 82.6971L94.9491 82.6971C94.5931 84.2742 93.4143 85.4816 92.198 86.0618C91.5887 86.3524 90.9272 86.5063 90.3172 86.4359C89.687 86.3633 89.1158 86.0472 88.788 85.4346L88.7872 85.4331L88.7864 85.4316C88.6748 85.2198 88.6492 84.9935 88.7022 84.7726C88.751 84.5699 88.8592 84.3991 88.9661 84.2631C89.1421 84.0391 89.4075 83.7991 89.6689 83.5628C89.7102 83.5255 89.7513 83.4883 89.792 83.4513C90.4247 82.8753 91.1981 82.1263 91.7309 80.9539L91.731 80.9537C92.1546 80.0225 92.3903 79.1743 92.5802 78.4911C92.6237 78.3347 92.6647 78.187 92.7051 78.049C92.7584 77.8666 92.813 77.693 92.8723 77.5414C92.9294 77.3953 93.0035 77.236 93.108 77.1022C93.2152 76.9648 93.3962 76.8032 93.6683 76.77ZM92.7401 81.3899C92.1138 82.7678 91.204 83.6382 90.5453 84.2378C90.4999 84.2791 90.4567 84.3184 90.4155 84.3558C90.1411 84.6047 89.9567 84.7719 89.8424 84.9175C89.8195 84.9466 89.8044 84.969 89.7945 84.9852C89.9321 85.2083 90.147 85.3327 90.4468 85.3673C90.7878 85.4066 91.2335 85.3238 91.7129 85.0951C92.6739 84.6368 93.5979 83.6759 93.8711 82.4659C94.2803 80.652 94.3376 79.5559 94.2327 78.8764C94.1643 78.4331 94.0292 78.1769 93.8734 78.0063C93.8404 78.0993 93.8055 78.211 93.7667 78.3438C93.7311 78.4655 93.6935 78.6012 93.6525 78.749C93.463 79.4325 93.2016 80.3753 92.7401 81.3898M93.6516 77.8175C93.6516 77.8175 93.6524 77.8179 93.654 77.8188C93.6524 77.818 93.6516 77.8176 93.6516 77.8175Z" fill="#39431E"/>
<path opacity="0.3" d="M93.8707 77.8821C93.7654 80.7675 92.4151 82.9586 91.151 83.9566C90.3179 86.0284 91.7831 87.981 93.5834 84.6942C94.3591 83.2298 94.6464 81.8414 94.6368 78.6414L93.8707 77.8821Z" fill="#39431E"/>
<path d="M100.688 87.1649C106.41 89.8915 113.344 87.6122 116.074 82.0419C118.848 76.397 117.09 65.6078 111.379 63.1582C105.547 60.6553 96.0245 67.1202 93.2397 72.6799C90.4768 78.2289 94.9542 84.4383 100.688 87.1649Z" fill="#A1CC3A"/>
<path fill-rule="evenodd" clip-rule="evenodd" d="M100.942 64.2628C104.396 62.2075 108.386 61.088 111.509 62.4681C114.566 63.818 116.467 67.3977 117.276 71.2255C118.088 75.0728 117.846 79.3756 116.411 82.3806C113.585 88.3169 106.415 90.7354 100.507 87.8373C97.5921 86.4099 94.9864 84.0683 93.4559 81.3339C91.921 78.5915 91.4521 75.4152 92.9103 72.3999L92.9108 72.3987C94.3424 69.4561 97.4652 66.3314 100.942 64.2628ZM93.8792 72.8731C92.6117 75.4947 92.9886 78.2907 94.3952 80.8038C95.8064 83.3251 98.238 85.5224 100.98 86.8648L100.98 86.865C106.364 89.5063 112.878 87.2941 115.439 81.9135L115.44 81.913C116.742 79.1835 117.001 75.1388 116.221 71.4501C115.438 67.7419 113.654 64.5971 111.075 63.4585L111.075 63.4584C108.445 62.2959 104.86 63.1889 101.491 65.1937C98.1442 67.1851 95.1954 70.168 93.8792 72.8731Z" fill="#39431E"/>
<path opacity="0.3" d="M103.579 68.6502C103.579 68.6502 116.554 74.6888 104.368 87.931C113.043 88.1982 114.577 84.1582 117.127 77.8845C118.261 73.1498 115.182 66.0211 111.304 63.3491L103.579 68.6502Z" fill="#39431E"/>
<path d="M95.0319 84.9829C95.5166 84.7845 95.6957 84.1012 95.4319 83.4568C95.1682 82.8123 94.5615 82.4507 94.0769 82.6491C93.5922 82.8475 93.4131 83.5307 93.6769 84.1752C93.9406 84.8196 94.5473 85.1813 95.0319 84.9829Z" fill="#5C6C30"/>
<path fill-rule="evenodd" clip-rule="evenodd" d="M94.0131 83.3542C93.9666 83.5317 93.9758 83.768 94.0757 84.012C94.1755 84.256 94.3346 84.4309 94.4921 84.5249C94.6495 84.6187 94.7795 84.6205 94.8686 84.584C94.9577 84.5475 95.0492 84.4551 95.0956 84.2778C95.1421 84.1004 95.1329 83.8641 95.033 83.6201C94.9332 83.3761 94.7741 83.2011 94.6166 83.1072C94.4592 83.0134 94.3292 83.0116 94.2401 83.0481C94.151 83.0846 94.0595 83.177 94.0131 83.3542ZM93.1793 83.1356C93.2776 82.7605 93.518 82.4121 93.9136 82.2502C94.3091 82.0883 94.7248 82.1681 95.0578 82.3666C95.3907 82.565 95.6669 82.8931 95.8308 83.2935C95.9946 83.694 96.0277 84.1216 95.9294 84.4965C95.8311 84.8715 95.5907 85.22 95.1951 85.3819C94.7996 85.5438 94.3839 85.464 94.0509 85.2654C93.718 85.0671 93.4418 84.739 93.2779 84.3385C93.1141 83.9381 93.081 83.5105 93.1793 83.1356Z" fill="#39431E"/>
<path d="M88.3428 86.0644C88.7248 87.9252 91.3658 90.1675 94.2142 90.1791C97.0735 90.1906 99.0706 88.6996 98.6887 86.8388C98.3067 84.9779 96.0913 83.8568 93.232 83.8452C90.3836 83.8221 87.9609 84.2035 88.3428 86.0644Z" fill="#A1CC3A"/>
<path fill-rule="evenodd" clip-rule="evenodd" d="M89.579 83.882C90.5889 83.5433 91.9901 83.4617 93.4204 83.4726C94.9133 83.4784 96.2737 83.7566 97.3299 84.2908C98.3875 84.8257 99.1838 85.6442 99.4207 86.7323C99.6708 87.8814 99.1164 88.8759 98.1773 89.5371C97.2499 90.19 95.9128 90.5576 94.3996 90.5518H94.3996C92.8413 90.5458 91.3587 89.9667 90.2173 89.1629C89.091 88.3697 88.2144 87.2969 87.9827 86.2324C87.8574 85.6569 87.9569 85.134 88.2879 84.7084C88.5999 84.3073 89.072 84.0521 89.579 83.882ZM89.1517 85.3787C89.0459 85.5146 88.9854 85.6964 89.0515 86.0003C89.2027 86.6947 89.8409 87.5611 90.8476 88.27C91.8391 88.9683 93.1074 89.4544 94.4038 89.4593L94.4017 90.0056L94.4038 89.4593C95.7563 89.4645 96.853 89.1329 97.5471 88.6442C98.2295 88.1637 98.4846 87.5741 98.3518 86.9644C98.2058 86.2936 97.7005 85.7028 96.8358 85.2654C95.9699 84.8275 94.7877 84.5703 93.4152 84.5651L93.4131 84.5651C91.9891 84.5542 90.7492 84.642 89.9272 84.9177C89.5182 85.0548 89.2765 85.2182 89.1517 85.3787Z" fill="#39431E"/>
<path d="M98.6847 85.158C99.1101 84.421 99.0206 83.5727 98.4846 83.2632C97.9487 82.9537 97.1693 83.3003 96.7438 84.0373C96.3184 84.7743 96.4079 85.6227 96.9439 85.9322C97.4798 86.2417 98.2592 85.8951 98.6847 85.158Z" fill="#5C6C30"/>
<path fill-rule="evenodd" clip-rule="evenodd" d="M96.912 85.0999C96.9377 85.3434 97.0403 85.4902 97.1594 85.559C97.2785 85.6278 97.457 85.6432 97.6806 85.5438C97.9038 85.4445 98.1393 85.2408 98.3115 84.9426C98.4836 84.6444 98.5423 84.3386 98.5166 84.0956C98.4909 83.8521 98.3883 83.7053 98.2692 83.6365C98.1501 83.5677 97.9716 83.5523 97.748 83.6517C97.5248 83.751 97.2893 83.9547 97.1171 84.2529C96.945 84.5511 96.8863 84.857 96.912 85.0999ZM96.0548 85.1904C96.008 84.7476 96.1173 84.2607 96.3706 83.8219C96.624 83.383 96.9909 83.0449 97.3978 82.864C97.8041 82.6833 98.2834 82.6493 98.7002 82.89C99.117 83.1306 99.3271 83.5628 99.3738 84.0051C99.4206 84.448 99.3113 84.9348 99.0579 85.3736C98.8046 85.8125 98.4377 86.1506 98.0308 86.3315C97.6245 86.5122 97.1452 86.5462 96.7284 86.3056C96.3116 86.0649 96.1015 85.6328 96.0548 85.1904Z" fill="#39431E"/>
<path d="M99.344 87.8024C100.187 87.4575 100.694 86.7492 100.478 86.2204C100.262 85.6916 99.403 85.5426 98.5604 85.8875C97.7178 86.2325 97.2101 86.9407 97.4265 87.4695C97.6429 87.9983 98.5014 88.1474 99.344 87.8024Z" fill="#5C6C30"/>
<path fill-rule="evenodd" clip-rule="evenodd" d="M97.9466 86.8608C97.7916 87.0771 97.7935 87.2283 97.8254 87.3063C97.8573 87.3843 97.9619 87.4935 98.2241 87.539C98.4795 87.5833 98.8225 87.5502 99.1808 87.4036C99.539 87.2569 99.8068 87.04 99.9578 86.8293C100.113 86.613 100.111 86.4617 100.079 86.3838C100.047 86.3058 99.9425 86.1966 99.6803 86.1511C99.4249 86.1068 99.0819 86.1399 98.7236 86.2865C98.3654 86.4332 98.0976 86.6501 97.9466 86.8608ZM97.246 86.3585C97.5054 85.9966 97.9127 85.6869 98.3971 85.4887C98.8815 85.2904 99.3891 85.2255 99.8277 85.3017C100.26 85.3767 100.692 85.6064 100.877 86.0572C101.061 86.508 100.914 86.9753 100.658 87.3316C100.399 87.6935 99.9917 88.0031 99.5073 88.2014C99.0229 88.3997 98.5154 88.4645 98.0767 88.3884C97.6449 88.3134 97.2121 88.0837 97.0276 87.6329C96.8431 87.1821 96.9907 86.7148 97.246 86.3585Z" fill="#39431E"/>
<path d="M90.8069 9.55121C93.3973 10.7709 97.0853 11.9058 99.1597 12.3724C100.345 12.6376 103.375 21.8225 101.421 25.6831C100.905 26.7119 104.11 26.415 104.362 26.4256C105.778 26.468 104.856 11.9694 103.451 10.5482C102.167 9.24363 99.7195 6.48604 93.7705 3.68602C87.8104 0.875391 82.3334 -0.0897673 81.5101 1.53297C79.9735 4.58754 84.8469 6.74058 90.8069 9.55121Z" fill="#A1CC3A"/>
<path fill-rule="evenodd" clip-rule="evenodd" d="M86.1292 0.213623C88.3498 0.621777 91.1886 1.60432 94.1325 3.05581C99.6391 5.76567 102.132 8.44745 103.47 9.88718C103.565 9.98953 103.654 10.0856 103.739 10.175C103.876 10.32 103.984 10.5171 104.073 10.7229C104.165 10.9357 104.251 11.19 104.331 11.4738C104.491 12.0418 104.637 12.7594 104.767 13.5658C105.026 15.1804 105.226 17.187 105.339 19.1419C105.451 21.0953 105.478 23.0122 105.388 24.4455C105.343 25.158 105.268 25.7736 105.152 26.2196C105.095 26.439 105.02 26.6498 104.913 26.8143C104.809 26.9743 104.612 27.1795 104.306 27.1699L104.303 27.1698L104.301 27.1697C104.302 27.1698 104.302 27.1698 104.299 27.1698C104.294 27.1699 104.281 27.1701 104.257 27.1711C104.223 27.1723 104.179 27.1744 104.124 27.1771L104.112 27.1776C104.005 27.1828 103.866 27.1895 103.708 27.1947C103.381 27.2054 102.963 27.21 102.564 27.1798C102.182 27.1508 101.752 27.0864 101.441 26.9222C101.281 26.8377 101.101 26.7001 101.009 26.4764C100.912 26.2384 100.95 25.9952 101.051 25.7858L101.051 25.7851L101.052 25.7844C101.486 24.8863 101.659 23.6375 101.633 22.2236C101.606 20.8186 101.384 19.2939 101.064 17.8744C100.745 16.4548 100.332 15.155 99.9321 14.2008C99.7315 13.7222 99.5393 13.3431 99.3703 13.0823C99.2856 12.9515 99.214 12.862 99.1583 12.8065C99.1316 12.7798 99.1143 12.7669 99.1066 12.7615C97.0476 12.2753 93.4176 11.1067 90.8527 9.84393L90.8524 9.84382C90.6381 9.73815 90.4249 9.63323 90.213 9.52899C87.559 8.22307 85.1218 7.02382 83.4775 5.78979C82.5884 5.12255 81.8848 4.41249 81.5132 3.62672C81.129 2.81424 81.1147 1.95096 81.5476 1.0513L81.5482 1.05001C81.8468 0.434679 82.521 0.151297 83.2728 0.0492355C84.0434 -0.0553875 85.022 0.0101002 86.1292 0.213623ZM82.3208 1.43195C82.0014 2.09619 82.0195 2.68148 82.2893 3.25208C82.5719 3.84958 83.1444 4.45728 83.9904 5.09219C85.5668 6.27528 87.9319 7.43942 90.6201 8.76262C90.8215 8.86178 91.0248 8.96183 91.2297 9.06285C93.7315 10.2945 97.3119 11.4471 99.3204 11.9195M82.3208 1.43195C82.4257 1.21649 82.7245 1.00049 83.3873 0.910497C84.0319 0.822989 84.9107 0.872916 85.9753 1.06859C88.0984 1.45883 90.8611 2.4098 93.7554 3.83684L93.7557 3.83698C99.1232 6.47839 101.533 9.07223 102.846 10.4855C102.942 10.588 103.031 10.6843 103.115 10.7739L103.116 10.7745C103.151 10.8114 103.211 10.9006 103.285 11.0718C103.357 11.2364 103.43 11.4504 103.504 11.7118C103.651 12.2344 103.791 12.9153 103.918 13.7051C104.171 15.2827 104.368 17.2585 104.48 19.1925C104.592 21.1278 104.617 23.006 104.529 24.3902C104.486 25.0864 104.414 25.6351 104.32 25.9986C104.281 26.148 104.243 26.2454 104.213 26.3031C104.178 26.3045 104.141 26.3063 104.104 26.308L104.072 26.3096C103.965 26.3147 103.831 26.3212 103.68 26.3261C103.364 26.3365 102.982 26.34 102.629 26.3132C102.258 26.2851 101.982 26.2274 101.839 26.1519C101.837 26.1507 101.835 26.1496 101.833 26.1484C102.348 25.0719 102.52 23.6693 102.493 22.207C102.465 20.7277 102.232 19.1422 101.903 17.6818C101.575 16.2215 101.147 14.8715 100.724 13.8619C100.513 13.3587 100.298 12.9275 100.09 12.6063C99.9862 12.4462 99.8769 12.302 99.7624 12.1879C99.6547 12.0806 99.5064 11.9632 99.3206 11.9196" fill="#39431E"/>
<path fill-rule="evenodd" clip-rule="evenodd" d="M89.2527 1.87107C89.3315 1.84405 89.4165 1.88849 89.4426 1.97035C89.7947 3.07778 89.9205 4.37641 89.6393 5.48118C89.3559 6.59434 88.656 7.51481 87.3693 7.82143C87.2884 7.84072 87.2078 7.78824 87.1892 7.70422C87.1706 7.62021 87.2212 7.53647 87.3021 7.51719C88.4605 7.24112 89.0884 6.42392 89.3486 5.40141C89.6111 4.37051 89.4964 3.13547 89.1571 2.06821C89.1311 1.98636 89.1739 1.89809 89.2527 1.87107Z" fill="#39431E"/>
<path fill-rule="evenodd" clip-rule="evenodd" d="M94.8958 4.48003C94.9825 4.45151 95.0759 4.49842 95.1045 4.58479C95.4955 5.76547 95.4807 7.0617 95.0156 8.14749C94.5484 9.238 93.6288 10.1099 92.2312 10.4297C92.1423 10.4501 92.0536 10.3947 92.0332 10.306C92.0128 10.2174 92.0683 10.129 92.1573 10.1087C93.447 9.81359 94.284 9.01655 94.7117 8.01811C95.1415 7.01493 95.1597 5.80222 94.7908 4.68806C94.7622 4.60168 94.8092 4.50854 94.8958 4.48003Z" fill="#39431E"/>
<path d="M67.4351 15.5429C71.5775 14.865 75.1267 15.6762 77.1979 15.9096C78.514 16.0541 84.3609 20.3434 86.0653 26.5219C86.13 26.7552 84.8032 28.9777 84.0912 27.3664C82.8938 24.6661 77.7481 18.9877 77.0361 19.4878C75.2777 20.7212 72.1493 21.8436 68.5031 22.4437C62.667 23.3993 57.6939 22.6326 57.3918 20.7212C57.1005 18.8099 61.599 16.4986 67.4351 15.5429Z" fill="#A1CC3A"/>
<path fill-rule="evenodd" clip-rule="evenodd" d="M75.7872 16.5621C73.6863 16.2676 70.8022 15.8634 67.5198 16.3821C64.6444 16.8369 62.1157 17.6121 60.3544 18.4882C59.4714 18.9275 58.8039 19.381 58.3806 19.8144C57.9515 20.2538 57.8322 20.608 57.8735 20.8737C57.9176 21.1399 58.1427 21.4407 58.6883 21.7268C59.2264 22.009 60.0028 22.2351 60.9795 22.381C62.9275 22.6722 65.5731 22.6305 68.4482 22.1759C72.0503 21.6033 75.0958 20.5376 76.7731 19.4012C76.9506 19.2809 77.1459 19.2875 77.2763 19.3116C77.4116 19.3366 77.546 19.3924 77.6693 19.456C77.9184 19.5844 78.208 19.7898 78.5157 20.0391C79.1361 20.5416 79.8957 21.2763 80.6623 22.099C82.1854 23.7335 83.806 25.7907 84.4328 27.1559L84.4331 27.1564C84.5049 27.3135 84.5706 27.3923 84.6139 27.4296C84.6515 27.462 84.6731 27.4647 84.6845 27.4654C84.7296 27.4682 84.8468 27.4373 85.0273 27.2753C85.1934 27.1262 85.3493 26.9223 85.4598 26.74C85.509 26.6587 85.5445 26.5896 85.5662 26.5396C84.731 23.7044 82.9241 21.2845 81.1458 19.5451C80.2481 18.6671 79.3655 17.9701 78.6329 17.4869C78.2664 17.2451 77.9421 17.0599 77.6762 16.9328C77.4 16.8007 77.2195 16.7472 77.1306 16.7378L77.1294 16.7377C76.7283 16.694 76.2792 16.6311 75.7872 16.5621ZM85.5946 26.6375C85.5947 26.6378 85.5948 26.6382 85.5949 26.6386L85.5948 26.6381C85.5947 26.6379 85.5946 26.6377 85.5946 26.6375ZM77.2224 15.8875C76.8509 15.8471 76.4245 15.787 75.9496 15.7201C73.8522 15.4248 70.8097 14.9963 67.3849 15.5376L67.3849 15.5376C64.4475 16.0021 61.8295 16.7983 59.9699 17.7233C59.0425 18.1847 58.2809 18.6892 57.7641 19.2185C57.2536 19.7412 56.9215 20.354 57.0246 21.0075L57.025 21.0099C57.1318 21.6627 57.6388 22.1431 58.2874 22.4833C58.9443 22.8277 59.8259 23.0734 60.8518 23.2267C62.9087 23.5341 65.646 23.485 68.5835 23.0204L68.5838 23.0203C72.1865 22.4477 75.3293 21.3797 77.1682 20.1673C77.194 20.177 77.229 20.1922 77.2739 20.2153C77.4455 20.3038 77.6819 20.4664 77.973 20.7022C78.5503 21.1698 79.2795 21.8729 80.032 22.6803C81.5466 24.3059 83.0847 26.2783 83.6508 27.5107C83.8606 27.9694 84.1828 28.2907 84.6302 28.3188C85.0304 28.3441 85.3726 28.1171 85.603 27.9103C85.8478 27.6906 86.0546 27.4148 86.1959 27.1816C86.267 27.0642 86.3275 26.9479 86.3696 26.8448C86.3903 26.794 86.4103 26.7371 86.4236 26.6791C86.4327 26.6395 86.457 26.5276 86.4214 26.4037C85.5456 23.3382 83.6133 20.7594 81.7484 18.9353C80.8141 18.0215 79.889 17.2894 79.1079 16.7742C78.7176 16.5167 78.3586 16.3103 78.0486 16.162C77.749 16.0188 77.4611 15.913 77.2224 15.8875ZM77.1169 20.152C77.1154 20.1518 77.1147 20.1517 77.1147 20.1517C77.1146 20.1516 77.1154 20.1517 77.1169 20.152ZM77.2571 20.1079C77.257 20.108 77.257 20.108 77.2569 20.1081L77.2571 20.1079Z" fill="#39431E"/>
<path fill-rule="evenodd" clip-rule="evenodd" d="M70.4653 15.3393C70.5364 15.2676 70.6634 15.2577 70.749 15.3171C71.9238 16.1321 72.7486 17.2659 72.9686 18.4589C73.1896 19.6573 72.798 20.9087 71.5545 21.9372C71.4754 22.0026 71.3479 22.002 71.2696 21.9358C71.1914 21.8696 71.1921 21.7629 71.2712 21.6975C72.4186 20.7485 72.7725 19.6068 72.5704 18.5103C72.3672 17.4086 71.6005 16.3458 70.4918 15.5766C70.4062 15.5172 70.3943 15.4109 70.4653 15.3393Z" fill="#39431E"/>
<path fill-rule="evenodd" clip-rule="evenodd" d="M64.8699 16.0845C64.9308 16.0129 65.0397 16.003 65.1131 16.0624C66.12 16.8774 66.827 18.0111 67.0156 19.2042C67.2049 20.4025 66.8693 21.654 65.8035 22.6824C65.7357 22.7479 65.6264 22.7473 65.5593 22.6811C65.4922 22.6149 65.4929 22.5082 65.5607 22.4427C66.5441 21.4937 66.8475 20.352 66.6742 19.2556C66.5001 18.1538 65.8429 17.091 64.8926 16.3218C64.8192 16.2624 64.809 16.1561 64.8699 16.0845Z" fill="#39431E"/>
<path opacity="0.3" d="M86.0676 26.2145C85.3907 23.2315 82.4361 20.652 78.4071 16.9047C69.3177 15.5246 65.6433 17.2656 61.7432 18.4333C59.4548 20.376 59.3258 21.2783 61.8077 22.6158C66.245 23.9003 72.1219 21.066 77.9559 18.8898C82.2642 21.7029 84.9717 24.3674 85.756 26.8302L86.0676 26.2145Z" fill="#39431E"/>
<path opacity="0.3" d="M103.945 26.4575C105.424 23.7296 104.467 16.7966 103.249 10.9527C96.2761 4.25695 93.0236 3.53454 89.2489 1.8633C86.2031 1.85252 85.496 2.45632 86.4859 5.11952C89.0205 9.02268 95.4167 10.7047 101.345 12.8719C102.759 17.8641 103.086 23.8482 102.02 26.2526L103.945 26.4575Z" fill="#39431E"/>
<path d="M107.903 27.6319C107.947 25.7874 105.662 24.2376 102.801 24.1701C99.9394 24.1027 97.5845 25.5432 97.541 27.3877C97.4976 29.2321 99.782 30.782 102.643 30.8494C105.505 30.9168 107.86 29.4763 107.903 27.6319Z" fill="#5C6C30"/>
<path fill-rule="evenodd" clip-rule="evenodd" d="M99.0937 29.6511C99.9877 30.2576 101.243 30.6546 102.647 30.6877C104.052 30.7208 105.324 30.3834 106.246 29.8196C107.169 29.2548 107.722 28.4768 107.742 27.628C107.762 26.7792 107.246 25.976 106.351 25.3683C105.457 24.7618 104.201 24.3648 102.797 24.3317C101.393 24.2986 100.12 24.636 99.1985 25.1998C98.2752 25.7646 97.7226 26.5426 97.7026 27.3914C97.6826 28.2402 98.198 29.0434 99.0937 29.6511ZM98.9122 29.9186C97.9612 29.2734 97.356 28.3794 97.3795 27.3838C97.403 26.3881 98.0495 25.5237 99.0299 24.924C100.012 24.3232 101.348 23.9741 102.805 24.0085C104.262 24.0428 105.579 24.4545 106.532 25.1008C107.483 25.746 108.088 26.64 108.065 27.6356C108.041 28.6313 107.395 29.4957 106.414 30.0954C105.432 30.6962 104.097 31.0453 102.64 31.0109C101.183 30.9766 99.8649 30.5649 98.9122 29.9186Z" fill="#39431E"/>
<path d="M86.5424 31.5406C88.6807 29.9486 89.5212 27.4583 88.4197 25.9784C87.3183 24.4986 84.6919 24.5895 82.5535 26.1816C80.4152 27.7736 79.5747 30.2639 80.6762 31.7437C81.7776 33.2236 84.404 33.1327 86.5424 31.5406Z" fill="#5C6C30"/>
<path fill-rule="evenodd" clip-rule="evenodd" d="M80.5531 29.0565C80.2248 30.0289 80.2957 30.9619 80.8058 31.6473C81.3159 32.3326 82.1893 32.6682 83.2149 32.6327C84.2397 32.5972 85.3997 32.1899 86.4459 31.411C87.492 30.6321 88.2149 29.6375 88.5428 28.6658C88.8711 27.6934 88.8002 26.7603 88.2901 26.075C87.78 25.3897 86.9066 25.0541 85.8811 25.0896C84.8562 25.1251 83.6962 25.5324 82.6501 26.3113C81.6039 27.0901 80.881 28.0848 80.5531 29.0565ZM80.2468 28.9531C80.5983 27.9117 81.3649 26.8651 82.457 26.052C83.5492 25.2388 84.7715 24.8046 85.8699 24.7665C86.9674 24.7285 87.958 25.0874 88.5494 25.882C89.1407 26.6765 89.2004 27.7285 88.8491 28.7692C88.4976 29.8106 87.731 30.8572 86.6389 31.6703C85.5467 32.4835 84.3244 32.9177 83.226 32.9557C82.1285 32.9937 81.1379 32.6348 80.5465 31.8403C79.9552 31.0458 79.8956 29.9938 80.2468 28.9531Z" fill="#39431E"/>
<path d="M75.2134 67.2674C82.8866 78.4896 99.9012 75.6894 109.705 65.7761C119.509 55.8629 119.961 40.4566 110.717 31.3695C101.472 22.2823 86.0291 22.9475 76.225 32.8608C66.4209 42.774 67.906 56.571 75.2134 67.2674Z" fill="#A1CC3A"/>
<path fill-rule="evenodd" clip-rule="evenodd" d="M76.0134 32.3419C86.0083 22.161 101.806 21.4356 111.296 30.8329C120.786 40.2303 120.284 56.1074 110.289 66.2882C105.298 71.3723 98.4693 74.6381 91.89 75.1904C85.2996 75.7435 78.9126 73.5705 74.9394 67.7167L74.9393 67.7165C67.5364 56.8 65.9592 42.5832 76.0134 32.3419ZM110.54 31.6032C101.525 22.6763 86.4102 23.2923 76.7804 33.1013C67.2099 42.8499 68.6054 56.4546 75.8294 67.1074C79.5359 72.5682 85.5032 74.6409 91.8003 74.1124C98.1084 73.5829 104.701 70.4397 109.522 65.5287C119.152 55.7196 119.554 40.53 110.54 31.6032Z" fill="#39431E"/>
<path fill-rule="evenodd" clip-rule="evenodd" d="M91.2656 25.2631C91.3342 25.4823 91.2029 25.7128 90.9723 25.778C88.254 26.5469 86.0413 27.5117 84.414 28.9926C82.7979 30.4632 81.7236 32.4758 81.347 35.4097C81.3178 35.6367 81.1006 35.7982 80.8617 35.7706C80.6229 35.7429 80.4529 35.5364 80.482 35.3094C80.8787 32.219 82.0264 30.0188 83.8113 28.3945C85.5851 26.7804 87.9524 25.7682 90.7237 24.9844C90.9543 24.9191 91.1969 25.0439 91.2656 25.2631Z" fill="#39431E"/>
<path opacity="0.3" d="M91.6564 25.5177C107.672 37.551 123.936 51.8963 97.7592 73.0378C105.821 69.9085 108.566 69.4246 112.892 62.5315C120.577 48.896 118.059 40.3147 112.677 33.1635C104.11 24.3241 97.7377 24.3348 91.6564 25.5177Z" fill="#39431E"/>
<path d="M98.0651 62.496C102.803 63.0943 107.897 61.3103 111.888 54.4462C116.106 47.1904 116.355 40.533 107.962 36.606C100.542 33.1359 95.1015 37.5633 91.6944 44.7428C88.2874 51.9224 93.014 61.8542 98.0651 62.496Z" fill="#3E5023"/>
<path fill-rule="evenodd" clip-rule="evenodd" d="M98.2481 36.3779C101.123 34.7161 104.521 34.4797 108.386 36.2849L108.386 36.2849C112.718 38.3093 114.902 41.0835 115.394 44.3569C115.88 47.593 114.694 51.2093 112.545 54.902L112.545 54.9021C110.496 58.4209 108.146 60.6683 105.67 61.954C103.192 63.2403 100.618 63.5481 98.1508 63.2369L98.1505 63.2368C96.7455 63.0585 95.405 62.2427 94.2508 61.0549C93.0935 59.864 92.0971 58.2736 91.3788 56.4839C89.9453 52.9121 89.589 48.4637 91.3761 44.7025C93.1159 41.0408 95.3996 38.0246 98.2481 36.3779ZM98.6841 37.1388C96.051 38.6609 93.8664 41.4994 92.1649 45.0806C90.5106 48.5623 90.8207 52.7451 92.1894 56.1556C92.8723 57.857 93.811 59.3455 94.8762 60.4417C95.9446 61.541 97.1141 62.2204 98.2601 62.3658C100.578 62.6581 102.969 62.3678 105.268 61.174C107.569 59.9796 109.807 57.8648 111.79 54.4589C113.901 50.8319 114.972 47.4303 114.529 44.4879C114.093 41.5828 112.163 39.0181 108.017 37.0809C104.387 35.3854 101.291 35.6319 98.6841 37.1388Z" fill="#38431B"/>
<path opacity="0.2" d="M98.6957 61.0789C103.656 61.4786 110.134 58.378 112.931 51.9498C116.361 44.0307 113.291 38.4776 108.179 37.1379C103.066 35.7982 98.1167 40.0333 96.2267 47.1097C94.3257 54.1753 94.3039 60.7224 98.6957 61.0789Z" fill="#38431B"/>
<path d="M113.029 47.5337C113.642 45.1534 112.822 42.8845 111.196 42.4659C109.571 42.0473 107.757 43.6376 107.144 46.0179C106.531 48.3982 107.352 50.6672 108.977 51.0858C110.602 51.5044 112.416 49.9141 113.029 47.5337Z" fill="white"/>
<path d="M107.11 55.9173C108.015 54.8041 108.048 53.3328 107.184 52.6309C106.321 51.9291 104.887 52.2626 103.983 53.3758C103.079 54.4889 103.046 55.9603 103.909 56.6621C104.773 57.3639 106.206 57.0305 107.11 55.9173Z" fill="white"/>
<path d="M75.6522 67.7872C77.4861 68.3776 79.576 61.0893 78.1366 53.3611C76.7078 45.6328 73.0611 40.7489 69.0732 42.4448C66.4289 43.5611 63.6353 47.2428 66.2476 57.0105C67.6658 62.2915 71.6003 66.4777 75.6522 67.7872Z" fill="#3E5023"/>
<path fill-rule="evenodd" clip-rule="evenodd" d="M74.8735 44.145C76.5112 46.1876 77.7897 49.4041 78.5056 53.2892C79.2302 57.1926 79.068 60.9875 78.4891 63.7448C78.2004 65.1194 77.8026 66.2634 77.3405 67.0385C77.1104 67.4244 76.8479 67.747 76.5496 67.9525C76.2404 68.1656 75.8745 68.262 75.495 68.1394L75.4945 68.1393C71.3184 66.7851 67.3214 62.4918 65.8818 57.1132L65.8817 57.1128C64.574 52.2069 64.6023 48.77 65.3319 46.3929C66.0664 44.0001 67.5042 42.7085 68.9305 42.1042C70.0165 41.6409 71.0954 41.6241 72.1156 42.0005C73.1263 42.3733 74.0529 43.1216 74.8735 44.145ZM71.8252 42.8036C71.0096 42.5027 70.1521 42.5112 69.2594 42.892L69.2584 42.8925C68.0605 43.3998 66.8002 44.4969 66.1405 46.6461C65.4759 48.8113 65.4143 52.0702 66.6991 56.8901C68.0743 62.0283 71.887 66.0715 75.7533 67.3252C75.8287 67.3494 75.9257 67.3474 76.0724 67.2463C76.2304 67.1374 76.4173 66.9294 76.6153 66.5974C77.0093 65.9365 77.382 64.8956 77.6609 63.5675C78.2169 60.9194 78.3774 57.2383 77.6735 53.4465L77.6734 53.446C76.9713 49.636 75.7312 46.5735 74.2156 44.6831C73.4594 43.7399 72.6505 43.1081 71.8252 42.8036Z" fill="#38431B"/>
<path opacity="0.2" d="M76.1393 66.8968C77.4329 65.4068 78.7796 58.3671 77.0512 52.148C74.9623 44.6009 71.8766 43.9746 68.4305 46.2528C64.9949 48.5202 65.3448 54.0483 68.1336 59.7492C71.0496 65.7092 75.4076 67.7282 76.1393 66.8968Z" fill="#38431B"/>
<path d="M72.959 53.5414C73.7873 53.4521 74.3176 52.0701 74.1434 50.4548C73.9693 48.8394 73.1566 47.6023 72.3284 47.6917C71.5001 47.781 70.9699 49.1629 71.144 50.7782C71.3182 52.3936 72.1308 53.6307 72.959 53.5414Z" fill="white"/>
<path d="M74.272 58.1054C74.8741 57.8981 75.0716 56.8862 74.7133 55.8451C74.3549 54.8041 73.5764 54.1282 72.9744 54.3355C72.3724 54.5428 72.1748 55.5547 72.5332 56.5958C72.8915 57.6368 73.67 58.3127 74.272 58.1054Z" fill="white"/>
<path fill-rule="evenodd" clip-rule="evenodd" d="M92.7632 68.6608C94.3801 68.3906 95.8625 68.683 97.1046 69.7346C97.283 69.8855 97.2929 70.1394 97.1268 70.3015C96.9607 70.4636 96.6814 70.4726 96.5031 70.3216C95.4944 69.4677 94.3068 69.2186 92.9227 69.4499C92.683 69.4899 92.453 69.3457 92.4089 69.1278C92.3648 68.91 92.5234 68.7008 92.7632 68.6608Z" fill="#39431E"/>
<path d="M101.139 33.324C95.7534 32.3751 96.69 30.762 97.4883 29.8552C98.1057 29.1488 100.713 29.3702 102.629 30.298C104.545 31.2259 105.769 32.6598 105.365 33.4927C104.95 34.3361 103.236 33.7035 101.139 33.324Z" fill="#5C6C30"/>
<path fill-rule="evenodd" clip-rule="evenodd" d="M98.3893 30.0063C98.0642 30.0676 97.9056 30.1677 97.848 30.2378L97.847 30.2391C97.6582 30.4672 97.4915 30.7054 97.404 30.941C97.3217 31.1627 97.3174 31.3556 97.4138 31.5475C97.5202 31.7593 97.7844 32.0409 98.3936 32.3355C98.998 32.6279 99.8999 32.9127 101.213 33.1588L101.215 33.1592C101.677 33.2482 102.121 33.3502 102.53 33.4441C102.587 33.4572 102.643 33.4702 102.699 33.4829C103.157 33.588 103.561 33.6771 103.909 33.727C104.263 33.7778 104.519 33.7814 104.695 33.7418C104.852 33.7064 104.907 33.6478 104.938 33.5796C104.978 33.4925 104.993 33.3585 104.93 33.1534C104.865 32.9451 104.727 32.6937 104.504 32.4172C104.06 31.8654 103.335 31.279 102.428 30.8117C101.531 30.3495 100.463 30.0607 99.5535 29.9778C99.0987 29.9363 98.6991 29.9478 98.3893 30.0063ZM99.6261 29.0941C100.632 29.1858 101.801 29.5013 102.798 30.0148C103.785 30.5233 104.612 31.1787 105.147 31.8437C105.414 32.1757 105.621 32.5265 105.73 32.8778C105.84 33.2315 105.857 33.6142 105.697 33.9651L105.696 33.9672C105.522 34.342 105.211 34.5325 104.871 34.6092C104.549 34.6818 104.175 34.6605 103.795 34.6059C103.409 34.5505 102.975 34.4539 102.52 34.3497C102.463 34.3368 102.406 34.3237 102.349 34.3105C101.94 34.2165 101.512 34.118 101.065 34.0319C99.7159 33.7791 98.737 33.4777 98.0423 33.1416C97.352 32.8077 96.8987 32.4185 96.6696 31.9623C96.4305 31.4861 96.473 31.0138 96.6199 30.6179C96.7615 30.2365 97.0064 29.9052 97.2121 29.6566C97.4597 29.3557 97.852 29.2065 98.2409 29.1331C98.6453 29.0568 99.1232 29.0482 99.6261 29.0941Z" fill="#39431E"/>
<path d="M70.0574 39.5697C69.8854 40.4859 71.7553 40.6321 73.3028 41.7627C74.7751 42.8446 76.8922 43.7413 77.1179 41.2754C77.2361 39.9791 75.968 39.2286 74.0014 38.9264C72.0347 38.6243 70.2293 38.6535 70.0574 39.5697Z" fill="#5C6C30"/>
<path fill-rule="evenodd" clip-rule="evenodd" d="M71.3344 38.4244C72.105 38.3266 73.0832 38.4076 74.0662 38.5715C75.0673 38.7383 75.9431 39.0361 76.5621 39.5109C77.202 40.0017 77.5605 40.68 77.4891 41.5287L77.4891 41.5288C77.4297 42.2332 77.2409 42.7756 76.8992 43.1355C76.5421 43.5117 76.0771 43.6278 75.6155 43.5933C75.1677 43.5597 74.7045 43.3854 74.2761 43.1608C73.8431 42.9338 73.4182 42.6406 73.0408 42.3398C72.4671 41.8851 71.8542 41.594 71.2913 41.3267C71.1512 41.2601 71.0141 41.195 70.8815 41.1292C70.5669 40.9731 70.2478 40.7982 70.0215 40.5738C69.7723 40.3267 69.6211 40.0033 69.6908 39.6004C69.7567 39.2193 69.9845 38.9383 70.2904 38.7505C70.5836 38.5704 70.9498 38.4732 71.3344 38.4244ZM70.739 39.4579C70.603 39.5413 70.5449 39.6317 70.5261 39.7403C70.511 39.8274 70.5266 39.8909 70.6229 39.9864C70.7422 40.1047 70.9473 40.2281 71.263 40.3847C71.3738 40.4397 71.4955 40.4973 71.6252 40.5587C72.1923 40.8272 72.9149 41.1693 73.5728 41.6908L73.5737 41.6915C73.9217 41.969 74.3015 42.2294 74.6746 42.425C75.0525 42.6231 75.3968 42.7407 75.6798 42.7619C75.949 42.782 76.1381 42.7158 76.2801 42.5663C76.4375 42.4005 76.5929 42.0739 76.6447 41.46C76.6899 40.9225 76.4817 40.5064 76.0413 40.1686C75.58 39.8148 74.8618 39.5498 73.9247 39.3936C72.9694 39.2343 72.0889 39.1694 71.4428 39.2514C71.1192 39.2924 70.8876 39.3666 70.739 39.4579Z" fill="#39431E"/>
<path d="M115.657 86.5138C117.378 84.7926 117.784 82.4079 116.564 81.1875C115.343 79.9671 112.959 80.3731 111.238 82.0943C109.517 83.8155 109.111 86.2002 110.332 87.4206C111.552 88.641 113.936 88.235 115.657 86.5138Z" fill="#5C6C30"/>
<path fill-rule="evenodd" clip-rule="evenodd" d="M110.213 85.0357C110.07 85.8787 110.259 86.5856 110.712 87.0396C111.166 87.4936 111.873 87.6827 112.716 87.5391C113.557 87.3959 114.485 86.9238 115.276 86.1328C116.067 85.3419 116.539 84.4139 116.682 83.5724C116.826 82.7294 116.637 82.0225 116.183 81.5685C115.729 81.1145 115.022 80.9254 114.179 81.0689C113.338 81.2122 112.41 81.6843 111.619 82.4753C110.828 83.2662 110.356 84.1942 110.213 85.0357ZM109.151 84.8548C109.336 83.7685 109.927 82.6435 110.857 81.7133C111.787 80.783 112.912 80.1915 113.998 80.0066C115.083 79.8219 116.178 80.0401 116.945 80.8065C117.711 81.573 117.929 82.6686 117.744 83.7533C117.56 84.8396 116.968 85.9646 116.038 86.8948C115.108 87.8251 113.983 88.4166 112.897 88.6015C111.812 88.7861 110.717 88.568 109.951 87.8016C109.184 87.0351 108.966 85.9395 109.151 84.8548Z" fill="#39431E"/>
<path d="M115.759 98.0821C115.814 97.4778 110.679 84.8322 113.235 83.5468C114.717 82.7997 117.405 87.7546 119.731 92.7646C122.101 97.8733 123.176 99.1258 124.01 101.521C124.515 102.971 121.728 105.377 121.651 105.399C120.73 105.729 115.188 104.696 115.123 101.433C115.101 100.126 115.649 99.2137 115.759 98.0821Z" fill="#A1CC3A"/>
<path fill-rule="evenodd" clip-rule="evenodd" d="M113.993 84.5361C113.516 84.1228 113.327 84.1796 113.288 84.199L113.287 84.1993C113.179 84.2527 113.041 84.3974 112.953 84.7873C112.866 85.1717 112.852 85.701 112.911 86.3549C113.027 87.6574 113.417 89.3113 113.894 90.9763C114.369 92.6349 114.923 94.2756 115.357 95.5457C115.397 95.6608 115.435 95.7731 115.473 95.8822C115.64 96.372 115.786 96.7973 115.894 97.1283C115.96 97.3302 116.014 97.5049 116.052 97.6417C116.07 97.7097 116.087 97.7758 116.098 97.8352C116.107 97.8774 116.125 97.9743 116.116 98.0764L116.116 98.078L116.115 98.0797C116.064 98.6045 115.923 99.0906 115.795 99.5296C115.773 99.6069 115.751 99.6828 115.73 99.7572C115.585 100.268 115.471 100.753 115.48 101.317C115.507 102.575 116.615 103.506 118.089 104.106C118.801 104.396 119.54 104.582 120.153 104.676C120.459 104.723 120.725 104.745 120.934 104.748C121.038 104.749 121.123 104.746 121.187 104.739C121.202 104.737 121.216 104.736 121.228 104.734C121.237 104.726 121.247 104.718 121.257 104.709C121.332 104.646 121.438 104.553 121.565 104.435C121.817 104.198 122.141 103.872 122.445 103.507C122.752 103.138 123.023 102.75 123.186 102.389C123.355 102.017 123.373 101.757 123.314 101.591C122.912 100.456 122.453 99.5919 121.783 98.3599C121.748 98.2967 121.713 98.2326 121.678 98.1675C121.022 96.9627 120.181 95.42 119.049 93.0198C117.885 90.5571 116.643 88.1332 115.516 86.4226C114.948 85.5624 114.433 84.9174 113.993 84.5361ZM116.437 85.8339C117.61 87.6119 118.879 90.0937 120.045 92.5638L120.045 92.5639C121.165 94.9359 121.993 96.4566 122.647 97.6572C122.682 97.7221 122.717 97.786 122.751 97.8491C123.422 99.0807 123.919 100.012 124.352 101.235L124.352 101.235C124.546 101.783 124.405 102.355 124.19 102.83C123.97 103.315 123.632 103.788 123.295 104.193C122.955 104.601 122.598 104.961 122.322 105.219C122.183 105.348 122.063 105.455 121.972 105.531C121.927 105.569 121.887 105.602 121.853 105.627C121.838 105.639 121.819 105.654 121.799 105.667C121.79 105.673 121.775 105.683 121.758 105.693C121.754 105.695 121.714 105.72 121.655 105.741L121.655 105.741C121.444 105.815 121.175 105.833 120.92 105.83C120.648 105.826 120.329 105.798 119.984 105.745C119.294 105.639 118.469 105.431 117.669 105.106C116.121 104.475 114.422 103.292 114.382 101.338L114.382 101.337L114.382 101.336C114.369 100.612 114.519 100.005 114.671 99.4671C114.695 99.3804 114.72 99.2963 114.743 99.2144C114.865 98.7918 114.971 98.4247 115.016 98.0255C115.011 98.0024 115.003 97.969 114.99 97.9234C114.96 97.8118 114.912 97.6568 114.847 97.4588C114.742 97.1361 114.6 96.7205 114.432 96.2312C114.395 96.1213 114.356 96.0078 114.316 95.8907C113.881 94.6195 113.32 92.9567 112.836 91.2701C112.354 89.5897 111.942 87.8565 111.816 86.4499C111.753 85.7493 111.758 85.0935 111.88 84.5525C112.001 84.0169 112.262 83.4959 112.794 83.2328C113.496 82.8847 114.201 83.2754 114.719 83.7241C115.274 84.2048 115.855 84.9498 116.437 85.8339ZM115.022 98.0565C115.022 98.0564 115.022 98.0542 115.021 98.05C115.022 98.0546 115.022 98.0566 115.022 98.0565Z" fill="#39431E"/>
<path opacity="0.3" d="M109.541 86.0241C110.383 88.1346 112.566 88.1346 112.566 88.1346C113.916 92.4741 115.31 96.6952 115.667 97.9012C115.299 99.8502 115.159 101.552 116.283 103.027C119.157 104.997 121.091 104.696 121.091 104.696C121.091 104.696 118.843 102.951 118.13 101.336L114.403 91.6235C113.29 87.7793 112.998 87.8224 111.853 85.335C111.842 85.335 111.129 85.8518 109.541 86.0241Z" fill="#39431E"/>
<path fill-rule="evenodd" clip-rule="evenodd" d="M119.256 97.7655C118.718 97.8578 118.162 98.1339 117.83 98.5695C117.685 98.7608 117.397 98.8075 117.189 98.6738C116.981 98.54 116.93 98.2766 117.075 98.0853C117.573 97.4326 118.363 97.059 119.086 96.9347C119.45 96.8722 119.82 96.8686 120.149 96.9378C120.475 97.0063 120.802 97.1562 121.01 97.4327C121.154 97.6249 121.101 97.8881 120.891 98.0204C120.682 98.1528 120.395 98.1043 120.251 97.912C120.217 97.8663 120.13 97.8009 119.943 97.7617C119.761 97.7233 119.522 97.7198 119.256 97.7655Z" fill="#39431E"/>
<path d="M114.415 70.2965C114.74 69.4531 117.15 68.9534 119.812 69.6197C122.474 70.2861 124.36 71.5147 124.035 72.358C123.71 73.2014 121.667 73.243 119.005 72.5767C116.354 71.8999 114.09 71.1398 114.415 70.2965Z" fill="#A1CC3A"/>
<path fill-rule="evenodd" clip-rule="evenodd" d="M114.74 70.3926C114.752 70.4107 114.774 70.4392 114.814 70.4799C114.96 70.6284 115.239 70.8094 115.668 71.0095C116.514 71.4038 117.753 71.787 119.131 72.1568C120.489 72.514 121.657 72.6723 122.507 72.6395C122.933 72.623 123.248 72.5592 123.457 72.4708C123.665 72.3827 123.712 72.2971 123.723 72.266C123.723 72.2659 123.723 72.2658 123.723 72.2657C123.724 72.2637 123.728 72.2555 123.722 72.2286C123.715 72.1943 123.692 72.132 123.632 72.0422C123.508 71.8578 123.27 71.6271 122.902 71.3756C122.172 70.8771 121.049 70.3797 119.703 70.0256C118.382 69.678 117.135 69.6385 116.197 69.7872C115.726 69.8618 115.353 69.9805 115.092 70.1161C114.863 70.2354 114.772 70.3402 114.74 70.3926ZM114.733 70.3809C114.728 70.3712 114.728 70.3668 114.729 70.3671C114.73 70.3673 114.733 70.3722 114.733 70.3809ZM116.033 68.6608C117.126 68.4876 118.52 68.5392 119.97 68.9208C121.395 69.2959 122.639 69.8352 123.499 70.4219C123.925 70.713 124.289 71.0371 124.524 71.3871C124.76 71.7377 124.917 72.1969 124.742 72.6732C124.584 73.1036 124.238 73.3697 123.866 73.527C123.495 73.6839 123.041 73.7589 122.547 73.778C121.556 73.8164 120.276 73.633 118.863 73.2613L118.861 73.2606C117.479 72.89 116.161 72.4871 115.223 72.0498C114.761 71.8342 114.341 71.5879 114.054 71.2977C113.761 71.0003 113.513 70.5442 113.709 70.0102C113.865 69.5846 114.229 69.2924 114.606 69.0963C114.997 68.8926 115.488 68.7471 116.033 68.6608Z" fill="#39431E"/>
<path opacity="0.3" d="M123.71 71.2041C126.101 72.5315 121.884 73.0378 121.884 73.0378C121.884 73.0378 116.482 73.0153 114.384 70.0566C114.384 70.0566 121.514 71.1591 123.71 71.2041Z" fill="#39431E"/>
<path d="M116.354 74.8057C116.821 74.3386 116.773 73.5335 116.247 73.0075C115.721 72.4814 114.916 72.4336 114.449 72.9008C113.982 73.3679 114.03 74.173 114.556 74.6991C115.082 75.2251 115.887 75.2729 116.354 74.8057Z" fill="#5C6C30"/>
<path fill-rule="evenodd" clip-rule="evenodd" d="M114.754 73.2056C114.488 73.4713 114.468 74.0015 114.861 74.3943C115.254 74.787 115.784 74.7667 116.049 74.501C116.315 74.2352 116.335 73.705 115.943 73.3123C115.55 72.9195 115.02 72.9398 114.754 73.2056ZM114.251 75.0039C113.592 74.3445 113.476 73.2645 114.145 72.596C114.813 71.9275 115.893 72.0433 116.552 72.7027C117.211 73.362 117.327 74.4421 116.659 75.1105C115.991 75.779 114.911 75.6632 114.251 75.0039Z" fill="#39431E"/>
<path d="M124.626 72.0685C125.357 73.8295 123.959 77.212 120.959 78.8979C117.959 80.5838 114.926 80.5086 114.184 78.7583C113.453 76.9973 115.098 74.7745 118.098 73.0994C121.098 71.4135 123.884 70.3075 124.626 72.0685Z" fill="#A1CC3A"/>
<path fill-rule="evenodd" clip-rule="evenodd" d="M122.153 71.6551C121.067 71.9138 119.674 72.6048 118.172 73.4807L118.171 73.4814C116.71 74.328 115.617 75.2926 114.981 76.229C114.344 77.1658 114.209 77.9975 114.478 78.672C114.733 79.2938 115.417 79.718 116.541 79.7435C117.653 79.7688 119.072 79.3867 120.513 78.5458C121.918 77.7267 122.948 76.4936 123.538 75.2575C124.14 73.9984 124.241 72.8403 123.96 72.1351C123.838 71.835 123.653 71.6805 123.395 71.6043C123.107 71.5189 122.697 71.5257 122.153 71.6551ZM123.692 70.5288C124.261 70.6975 124.705 71.0865 124.955 71.7027L124.956 71.7054C125.408 72.8346 125.174 74.3546 124.505 75.7539C123.825 77.177 122.649 78.5836 121.043 79.5205C119.474 80.4356 117.865 80.8924 116.517 80.8617C115.182 80.8314 113.973 80.3058 113.483 79.1057L113.481 79.1019C113.018 77.9424 113.341 76.6998 114.099 75.5849C114.857 74.4691 116.094 73.4038 117.644 72.5056C119.152 71.6257 120.662 70.8627 121.912 70.565C122.536 70.4163 123.153 70.3692 123.692 70.5288Z" fill="#39431E"/>
<path d="M115.48 76.5811C115.667 75.9226 115.011 75.1598 114.015 74.8773C113.018 74.5948 112.06 74.8996 111.873 75.5581C111.686 76.2166 112.342 76.9794 113.339 77.2619C114.335 77.5444 115.294 77.2396 115.48 76.5811Z" fill="#5C6C30"/>
<path fill-rule="evenodd" clip-rule="evenodd" d="M112.489 76.2698C112.692 76.5055 113.028 76.7257 113.456 76.8472C113.885 76.9686 114.286 76.9577 114.582 76.8635C114.883 76.7681 115.024 76.6093 115.066 76.4635C115.107 76.3178 115.07 76.1081 114.864 75.8693C114.662 75.6336 114.325 75.4135 113.897 75.292C113.469 75.1705 113.067 75.1814 112.771 75.2756C112.471 75.371 112.329 75.5299 112.288 75.6757C112.246 75.8214 112.283 76.0311 112.489 76.2698ZM111.835 76.8321C111.51 76.4542 111.313 75.9532 111.458 75.4405C111.604 74.9277 112.035 74.605 112.51 74.454C112.989 74.3018 113.564 74.3015 114.132 74.4626C114.7 74.6236 115.19 74.9261 115.518 75.3071C115.843 75.6849 116.04 76.186 115.895 76.6987C115.75 77.2114 115.319 77.5342 114.844 77.6852C114.365 77.8374 113.789 77.8376 113.221 77.6766C112.653 77.5156 112.163 77.2131 111.835 76.8321Z" fill="#39431E"/>
<path d="M114.016 79.8865C115.149 79.7034 115.989 79.0644 115.892 78.4592C115.794 77.854 114.796 77.5119 113.662 77.695C112.528 77.8781 111.688 78.5171 111.786 79.1222C111.884 79.7274 112.882 80.0696 114.016 79.8865Z" fill="#5C6C30"/>
<path fill-rule="evenodd" clip-rule="evenodd" d="M112.523 78.5933C112.234 78.8135 112.2 78.9844 112.211 79.0534C112.223 79.1225 112.308 79.2742 112.652 79.3921C112.976 79.5032 113.436 79.5434 113.947 79.4608C114.458 79.3783 114.882 79.1955 115.155 78.9879C115.444 78.7677 115.477 78.5969 115.466 78.5278C115.455 78.4587 115.37 78.307 115.026 78.1891C114.701 78.078 114.242 78.0378 113.731 78.1204C113.219 78.2029 112.796 78.3858 112.523 78.5933ZM112.001 77.9072C112.407 77.5981 112.971 77.3699 113.593 77.2693C114.216 77.1688 114.822 77.2081 115.305 77.3736C115.768 77.5323 116.231 77.8543 116.317 78.3904C116.404 78.9265 116.066 79.3777 115.676 79.6741C115.27 79.9831 114.707 80.2113 114.084 80.3119C113.462 80.4124 112.855 80.3731 112.373 80.2076C111.91 80.0489 111.447 79.7269 111.36 79.1908C111.274 78.6547 111.612 78.2035 112.001 77.9072Z" fill="#39431E"/>
<path d="M112.914 66.6291C113.202 67.6228 116.143 68.5027 119.54 68.0886C122.936 67.6746 125.455 66.5256 125.167 65.5319C124.878 64.5382 122.337 64.2277 118.94 64.6521C115.533 65.0558 112.625 65.6354 112.914 66.6291Z" fill="#A1CC3A"/>
<path fill-rule="evenodd" clip-rule="evenodd" d="M124.277 64.278C124.673 64.4961 125.024 64.8256 125.148 65.3074C125.286 65.8421 125.06 66.3189 124.753 66.6713C124.447 67.0238 123.996 67.3351 123.471 67.6041C122.413 68.146 120.914 68.587 119.224 68.8192C117.508 69.0548 115.896 68.9245 114.661 68.5842C114.045 68.4145 113.502 68.1871 113.083 67.9113C112.68 67.646 112.311 67.2825 112.188 66.806C112.035 66.211 112.356 65.754 112.716 65.4692C113.07 65.1891 113.573 64.9707 114.133 64.7902C115.267 64.4248 116.841 64.1509 118.501 63.9293C120.179 63.6932 121.677 63.6565 122.81 63.8298C123.375 63.9162 123.88 64.0592 124.277 64.278ZM122.655 64.9521C121.656 64.7994 120.267 64.825 118.642 65.0537L118.639 65.0542C116.985 65.2749 115.489 65.5396 114.45 65.8744C113.924 66.044 113.566 66.2162 113.365 66.3751C113.275 66.4463 113.242 66.4955 113.231 66.5149C113.252 66.5858 113.349 66.748 113.656 66.9502C113.956 67.1472 114.388 67.3366 114.935 67.4872C116.026 67.7877 117.496 67.9126 119.084 67.6946C120.696 67.4732 122.074 67.0579 122.998 66.5847C123.463 66.3462 123.779 66.1103 123.956 65.9064C124.132 65.7042 124.109 65.6151 124.106 65.6041L124.106 65.6039C124.09 65.5413 124.026 65.42 123.776 65.2826C123.528 65.1459 123.156 65.0288 122.655 64.9521Z" fill="#39431E"/>
<path opacity="0.3" d="M122.06 67.4481C127.353 65.7064 122.181 64.1595 122.181 64.1595C122.181 64.1595 115.755 63.4888 112.894 66.4529C112.894 66.4637 119.65 65.555 122.06 67.4481Z" fill="#39431E"/>
<path d="M123.119 66.9799C125.184 66.3591 127.196 63.3275 126.56 60.3268C125.936 57.3262 123.744 55.3914 121.679 56.0122C119.614 56.633 118.81 59.0956 119.434 62.0962C120.059 65.1071 121.044 67.6007 123.119 66.9799Z" fill="#A1CC3A"/>
<path fill-rule="evenodd" clip-rule="evenodd" d="M125.119 56.2395C126.151 57.1392 126.94 58.5281 127.288 60.1762C127.653 61.8775 127.255 63.571 126.486 64.9189C125.724 66.2557 124.554 67.3231 123.291 67.698L123.29 67.6982C122.623 67.8954 122 67.8529 121.445 67.5839C120.907 67.3229 120.485 66.8741 120.147 66.3471C119.478 65.3033 119.04 63.7938 118.711 62.2262M125.119 56.2395C124.085 55.3369 122.769 54.9042 121.451 55.2955L125.119 56.2395ZM124.373 57.0356C123.55 56.3174 122.629 56.0686 121.778 56.3213C120.895 56.5835 120.255 57.2343 119.901 58.2148C119.542 59.207 119.487 60.5209 119.801 62.0123L119.801 62.0126C120.128 63.5682 120.536 64.9134 121.093 65.7826C121.369 66.2122 121.655 66.4845 121.945 66.625C122.218 66.7574 122.542 66.7967 122.964 66.6721C123.87 66.4029 124.842 65.576 125.512 64.4015C126.175 63.2382 126.501 61.8035 126.198 60.3927L126.198 60.3909C125.889 58.9268 125.199 57.7563 124.373 57.0356ZM121.451 55.2955C120.165 55.6773 119.297 56.6256 118.85 57.8615L121.451 55.2955ZM118.85 57.8615C118.408 59.0855 118.369 60.605 118.711 62.2261L118.85 57.8615Z" fill="#39431E"/>
<path d="M125.306 60.2112C129.311 62.9554 132.978 65.0933 130.943 67.444C129.344 69.2842 126.068 67.4866 122.063 64.7423C118.059 61.9981 115.534 58.7646 116.426 57.5095C117.319 56.2543 121.302 57.4669 125.306 60.2112Z" fill="#EFEFEF"/>
<path fill-rule="evenodd" clip-rule="evenodd" d="M118.022 57.4868C117.535 57.5045 117.295 57.6427 117.189 57.795C117.083 57.9484 117.036 58.223 117.187 58.6865C117.335 59.1418 117.651 59.7011 118.13 60.33C119.086 61.5837 120.633 63.0364 122.548 64.3787C124.49 65.7401 126.215 66.8362 127.632 67.3728C129.061 67.9135 129.997 67.8268 130.59 67.1295C131.014 66.6284 131.109 66.1873 131.023 65.766C130.93 65.3139 130.615 64.8163 130.073 64.2573C129.168 63.3257 127.772 62.3578 126.199 61.2679C125.875 61.0433 125.543 60.8135 125.207 60.5777C123.292 59.2356 121.396 58.2782 119.889 57.8094C119.134 57.5742 118.5 57.4695 118.022 57.4868ZM120.14 57.004C121.75 57.5052 123.725 58.5089 125.691 59.8871C126.013 60.1131 126.336 60.3363 126.654 60.557C128.227 61.6457 129.711 62.6732 130.678 63.6698C131.263 64.2719 131.709 64.9111 131.849 65.5968C131.996 66.3131 131.796 67.0107 131.234 67.6745L131.233 67.6752C130.276 68.8015 128.85 68.7358 127.334 68.1616C125.806 67.5831 124.002 66.4282 122.064 65.0694C120.098 63.6914 118.481 62.1813 117.459 60.8413C116.95 60.1733 116.573 59.528 116.385 58.9473C116.198 58.3749 116.171 57.7823 116.496 57.3136C116.823 56.8439 117.39 56.6657 117.991 56.6439C118.601 56.6217 119.337 56.7542 120.14 57.004Z" fill="#333333"/>
<path d="M118.948 58.9083C116.546 60.8256 113.724 58.3214 115.135 57.9106C117.936 57.0889 116.761 55.0935 118.183 55.1521C120.166 55.2206 120.618 57.578 118.948 58.9083Z" fill="#CCCCCC"/>
<path fill-rule="evenodd" clip-rule="evenodd" d="M116.918 57.3903C116.562 57.7971 116.053 58.1509 115.307 58.4038L115.307 58.4041C115.262 58.4191 115.24 58.4334 115.229 58.4416C115.23 58.4528 115.232 58.4748 115.245 58.511C115.301 58.6761 115.501 58.9366 115.857 59.1542C116.541 59.5715 117.619 59.7216 118.639 58.78L118.639 58.7798C119.35 58.1241 119.592 57.2328 119.47 56.5243C119.351 55.8326 118.898 55.3246 118.152 55.2948L118.15 55.2947L118.148 55.2946C118.027 55.2888 117.969 55.3099 117.943 55.324C117.919 55.3369 117.891 55.3599 117.855 55.4185C117.816 55.4834 117.778 55.5755 117.732 55.714C117.711 55.7757 117.69 55.8407 117.668 55.9131C117.665 55.9203 117.663 55.9275 117.661 55.9348C117.636 56.0144 117.608 56.1013 117.578 56.1912C117.454 56.5538 117.273 56.9853 116.918 57.3903ZM115.23 58.4325C115.23 58.4326 115.23 58.4331 115.23 58.434C115.23 58.433 115.23 58.4325 115.23 58.4325ZM115.224 58.4462C115.223 58.4482 115.222 58.449 115.222 58.449C115.222 58.4489 115.223 58.4479 115.224 58.4462ZM118.185 54.4075C117.959 54.3968 117.748 54.432 117.56 54.5325C117.369 54.6343 117.237 54.7846 117.141 54.9434C117.049 55.096 116.986 55.2656 116.934 55.4188C116.911 55.4893 116.888 55.5628 116.865 55.6336C116.863 55.6411 116.861 55.6486 116.858 55.6561C116.833 55.7355 116.809 55.8132 116.782 55.8919C116.676 56.2037 116.542 56.5089 116.297 56.7887C116.053 57.0666 115.676 57.3454 115.048 57.5587C114.796 57.6436 114.576 57.8062 114.461 58.0661C114.348 58.321 114.373 58.5887 114.449 58.8107C114.596 59.2416 114.976 59.6429 115.433 59.922C116.376 60.4982 117.86 60.6811 119.197 59.4473C120.123 58.5934 120.478 57.3923 120.302 56.3663C120.122 55.3241 119.382 54.456 118.185 54.4075Z" fill="#333333"/>
<path opacity="0.42" d="M118.614 34.7433L115.087 32.84L98.8748 62.8954L102.402 64.7987L118.614 34.7433Z" fill="#C7E9F5"/>
<path opacity="0.42" d="M120.931 41.701L118.731 40.5139L107.067 62.1379L109.267 63.3249L120.931 41.701Z" fill="#C7E9F5"/>
<path opacity="0.42" d="M95.256 27.5855L93.056 26.3984L81.3919 48.0224L83.5919 49.2094L95.256 27.5855Z" fill="#C7E9F5"/>
<path fill-rule="evenodd" clip-rule="evenodd" d="M101.344 26.7582C91.4158 26.7582 83.3678 34.882 83.3678 44.9032C83.3678 54.9244 91.4158 63.0482 101.344 63.0482C111.271 63.0482 119.32 54.9244 119.32 44.9032C119.32 34.882 111.271 26.7582 101.344 26.7582ZM81.2239 44.9032C81.2239 33.6869 90.2318 24.5942 101.344 24.5942C112.455 24.5942 121.463 33.6869 121.463 44.9032C121.463 56.1195 112.455 65.2122 101.344 65.2122C90.2318 65.2122 81.2239 56.1195 81.2239 44.9032Z" fill="#EFEFEF"/>
<path fill-rule="evenodd" clip-rule="evenodd" d="M101.344 27.5035C91.8338 27.5035 84.1129 35.2872 84.1129 44.9032C84.1129 54.5193 91.8338 62.3029 101.344 62.3029C110.853 62.3029 118.574 54.5193 118.574 44.9032C118.574 35.2872 110.853 27.5035 101.344 27.5035ZM80.4788 44.9032C80.4788 33.2818 89.8138 23.849 101.344 23.849C112.873 23.849 122.208 33.2818 122.208 44.9032C122.208 56.5247 112.873 65.9575 101.344 65.9575C89.8138 65.9575 80.4788 56.5247 80.4788 44.9032ZM83.3677 44.9032C83.3677 34.882 91.4158 26.7583 101.344 26.7583C111.271 26.7583 119.319 34.882 119.319 44.9032C119.319 54.9244 111.271 63.0482 101.344 63.0482C91.4158 63.0482 83.3677 54.9244 83.3677 44.9032ZM101.344 24.5943C90.2318 24.5943 81.2239 33.6869 81.2239 44.9032C81.2239 56.1196 90.2318 65.2122 101.344 65.2122C112.455 65.2122 121.463 56.1196 121.463 44.9032C121.463 33.6869 112.455 24.5943 101.344 24.5943Z" fill="#333333"/>
<path d="M121.185 63.3594C121.616 62.612 121.427 61.695 120.762 61.3111C120.097 60.9272 119.209 61.2219 118.777 61.9692C118.346 62.7165 118.535 63.6336 119.2 64.0175C119.864 64.4013 120.753 64.1067 121.185 63.3594Z" fill="#5C6C30"/>
<path fill-rule="evenodd" clip-rule="evenodd" d="M119.15 62.1848C118.814 62.7682 118.996 63.4024 119.415 63.6442C119.834 63.8861 120.475 63.7273 120.811 63.1439C121.148 62.5605 120.965 61.9263 120.547 61.6845C120.128 61.4426 119.487 61.6014 119.15 62.1848ZM118.984 64.3908C118.074 63.8649 117.878 62.665 118.404 61.7538C118.93 60.8425 120.067 60.412 120.978 60.9379C121.888 61.4638 122.084 62.6637 121.558 63.5749C121.032 64.4862 119.895 64.9167 118.984 64.3908Z" fill="#39431E"/>
<path d="M125.324 60.3337C126.188 59.4726 126.439 58.3234 125.885 57.7668C125.331 57.2103 124.181 57.4572 123.316 58.3184C122.452 59.1795 122.201 60.3287 122.755 60.8852C123.31 61.4418 124.46 61.1948 125.324 60.3337Z" fill="#5C6C30"/>
<path fill-rule="evenodd" clip-rule="evenodd" d="M122.925 59.8081C122.843 60.1856 122.922 60.4417 123.061 60.581C123.2 60.7204 123.455 60.8008 123.833 60.7197C124.206 60.6397 124.638 60.4093 125.02 60.0284C125.402 59.6474 125.634 59.2163 125.715 58.844C125.798 58.4665 125.719 58.2105 125.58 58.0711C125.441 57.9317 125.185 57.8513 124.807 57.9324C124.435 58.0124 124.003 58.2428 123.621 58.6237C123.238 59.0047 123.006 59.4358 122.925 59.8081ZM122.083 59.624C122.205 59.0673 122.53 58.4932 123.012 58.013C123.494 57.5329 124.069 57.2092 124.626 57.0896C125.178 56.9711 125.775 57.0455 126.19 57.4626C126.606 57.8798 126.678 58.4766 126.558 59.0281C126.436 59.5848 126.11 60.1589 125.628 60.6391C125.146 61.1193 124.571 61.4429 124.014 61.5626C123.462 61.6811 122.866 61.6066 122.45 61.1895C122.035 60.7723 121.962 60.1755 122.083 59.624Z" fill="#39431E"/>
<path d="M123.332 57.8136C123.702 56.508 123.455 55.2944 122.779 55.1028C122.104 54.9112 121.256 55.8142 120.886 57.1198C120.516 58.4253 120.763 59.639 121.439 59.8305C122.114 60.0221 122.962 59.1191 123.332 57.8136Z" fill="#5C6C30"/>
<path fill-rule="evenodd" clip-rule="evenodd" d="M121.193 58.8067C121.281 59.2408 121.453 59.3864 121.556 59.4158C121.66 59.4452 121.883 59.4114 122.186 59.0884C122.472 58.7832 122.747 58.2963 122.918 57.696C123.088 57.0956 123.109 56.5368 123.026 56.1266C122.937 55.6925 122.765 55.5469 122.662 55.5175C122.558 55.4881 122.335 55.5219 122.032 55.8449C121.746 56.1501 121.471 56.637 121.3 57.2374C121.13 57.8377 121.109 58.3966 121.193 58.8067ZM120.348 58.9791C120.231 58.4081 120.271 57.7074 120.471 57.0022C120.671 56.297 121.005 55.6796 121.404 55.2548C121.786 54.8478 122.325 54.5259 122.897 54.6881C123.469 54.8503 123.759 55.4073 123.87 55.9543C123.987 56.5252 123.947 57.2259 123.747 57.9311C123.547 58.6364 123.213 59.2537 122.814 59.6785C122.432 60.0855 121.893 60.4074 121.321 60.2452C120.749 60.083 120.46 59.526 120.348 58.9791Z" fill="#39431E"/>
<defs>
<linearGradient id="paint0_linear_234_9451" x1="14.9036" y1="71.9839" x2="51.4066" y2="110.294" gradientUnits="userSpaceOnUse">
<stop stop-color="#FF8E3D"/>
<stop offset="1" stop-color="#FF6F3D"/>
</linearGradient>
<linearGradient id="paint1_linear_234_9451" x1="152.388" y1="95.3962" x2="152.388" y2="136.759" gradientUnits="userSpaceOnUse">
<stop stop-color="#FF8E3D"/>
<stop offset="1" stop-color="#FF6F3D"/>
</linearGradient>
</defs>
</svg>
