<svg width="16" height="17" viewBox="0 0 16 17" fill="none" xmlns="http://www.w3.org/2000/svg">
<path d="M8 15C4.41015 15 1.5 12.0899 1.5 8.5C1.5 4.91015 4.41015 2 8 2C11.5899 2 14.5 4.91015 14.5 8.5C14.5 12.0899 11.5899 15 8 15ZM8 16.5C12.4183 16.5 16 12.9183 16 8.5C16 4.08172 12.4183 0.5 8 0.5C3.58172 0.5 0 4.08172 0 8.5C0 12.9183 3.58172 16.5 8 16.5ZM8 12C8.41421 12 8.75 12.3358 8.75 12.75V13.25C8.75 13.6642 8.41421 14 8 14C7.58579 14 7.25 13.6642 7.25 13.25V12.75C7.25 12.3358 7.58579 12 8 12ZM11.0026 7.49372C11.2486 6.89986 11.313 6.2464 11.1876 5.61596C11.0621 4.98552 10.7526 4.40642 10.2981 3.9519C9.84358 3.49738 9.26448 3.18785 8.63404 3.06245C8.0036 2.93705 7.35014 3.00141 6.75628 3.24739C6.16242 3.49338 5.65484 3.90994 5.29772 4.4444C4.94061 4.97886 4.75 5.60721 4.75 6.25C4.75 6.66421 5.08579 7 5.5 7C5.91421 7 6.25 6.66421 6.25 6.25C6.25 5.90388 6.35263 5.56554 6.54493 5.27775C6.73722 4.98997 7.01053 4.76567 7.3303 4.63321C7.65007 4.50076 8.00194 4.4661 8.34141 4.53363C8.68087 4.60115 8.99269 4.76782 9.23744 5.01256C9.48218 5.25731 9.64885 5.56913 9.71637 5.90859C9.7839 6.24806 9.74924 6.59993 9.61679 6.9197C9.48433 7.23947 9.26003 7.51278 8.97225 7.70507C8.88004 7.76668 8.78266 7.81908 8.68149 7.86185C8.0637 8.12305 7.25 8.7481 7.25 9.75V10.25C7.25 10.6642 7.58578 11 8 11C8.41421 11 8.75 10.6642 8.75 10.25V9.75C8.75 9.69701 8.76977 9.62135 8.85796 9.52158C8.9499 9.41757 9.09395 9.31603 9.26562 9.24345C9.45351 9.16401 9.63438 9.06668 9.8056 8.95228C10.3401 8.59516 10.7566 8.08758 11.0026 7.49372Z" fill="#65686F"/>
</svg>
