<svg width="294" height="157" viewBox="0 0 294 157" fill="none" xmlns="http://www.w3.org/2000/svg">
<path d="M233.742 124.95L194.736 127.118C100.745 127.118 139.328 131.054 106.235 131.054C72.4997 131.054 59.3161 132.872 34.3587 132.692C10.7691 131.054 -9.55584 87.6516 16.3388 65.1991C45.7862 34.2807 50.0134 1.90469e-06 100.868 0C139.824 -1.45902e-06 149.686 24.9002 223.403 17.6922C274.45 12.701 299.878 98.9454 285.981 127.118C274.837 149.71 233.742 124.95 233.742 124.95Z" fill="#E9F7FF"/>
<path fill-rule="evenodd" clip-rule="evenodd" d="M72.3484 88.6299L102.077 128.538C103.121 129.939 106.536 131.828 106.536 131.828C106.536 131.828 90.2579 131.337 67.815 134.613C45.372 137.889 34.1289 131.708 34.1289 131.708C34.1289 131.708 35.5994 129.901 36.6911 128.502L67.815 88.5934C68.8628 87.2498 71.3351 87.2697 72.3484 88.6299Z" fill="#E1C6C6"/>
<path fill-rule="evenodd" clip-rule="evenodd" d="M70.3434 88.594C80.0133 100.491 82.4781 119.641 94.4233 131.709C94.4233 131.709 90.2579 131.337 67.815 134.614C45.372 137.89 34.1289 131.709 34.1289 131.709C34.1289 131.709 35.5994 129.902 36.6911 128.502L67.815 88.594C68.8628 87.2504 69.3302 87.2338 70.3434 88.594Z" fill="#E6CECE"/>
<path d="M75.2733 99.3534C76.9797 97.2677 79.9727 99.0621 79.6342 98.2158C79.255 97.2677 76.0924 92.9417 75.2733 91.9588L71.8604 87.7875C70.3436 86.0811 68.2579 86.6499 66.3619 89.3043L63.897 92.5276C62.3802 94.429 59.3465 98.9742 59.3465 98.9742C63.5178 95.1821 65.2627 98.8264 67.1203 97.0781C70.3436 94.0445 72.8098 102.364 75.2733 99.3534Z" fill="white"/>
<path fill-rule="evenodd" clip-rule="evenodd" d="M189.995 97.0059H167.093C166.883 96.5292 166.766 96.0019 166.766 95.4472C166.766 93.6029 168.06 92.0608 169.789 91.6796C170.419 88.8991 172.905 86.8232 175.876 86.8232C178.055 86.8232 179.972 87.9392 181.089 89.6306C181.676 89.2986 182.355 89.1091 183.079 89.1091C185.317 89.1091 187.131 90.9234 187.131 93.1614C187.131 93.4026 187.11 93.6389 187.069 93.8686C187.147 93.862 187.225 93.8586 187.304 93.8586C188.808 93.8586 190.028 95.0779 190.028 96.5819C190.028 96.7262 190.016 96.8677 189.995 97.0059Z" fill="white"/>
<path fill-rule="evenodd" clip-rule="evenodd" d="M218.067 79.7733L253.638 127.375C254.887 129.045 256.209 132.036 256.209 132.036C256.209 132.036 248.346 142.521 215.255 136.623C182.164 130.726 169.223 136.623 169.223 136.623C169.223 136.623 174.095 129.001 175.401 127.331L212.642 79.7297C213.896 78.1271 216.854 78.1509 218.067 79.7733Z" fill="#B59C9C"/>
<path fill-rule="evenodd" clip-rule="evenodd" d="M218.067 79.7733C223.544 99.1633 238.949 115.67 247.245 134.43C247.245 134.43 248.346 142.521 215.255 136.623C182.164 130.726 169.223 136.623 169.223 136.623C169.223 136.623 174.095 129.001 175.401 127.331L212.642 79.7297C213.896 78.1271 216.854 78.1509 218.067 79.7733Z" fill="#BCA7A7"/>
<path d="M210.461 92.5276C209.081 94.0099 208.565 88.7355 205.342 88.3563C205.342 88.3563 205.621 87.3808 206.365 86.4775L212.678 78.5423C213.847 77.1224 216.462 77.1636 217.561 78.6192L224.197 87.4082C224.543 87.8668 226.712 90.3765 226.395 90.8484C223.733 90.8484 221.714 86.4572 219.183 89.3043C216.149 92.7172 215.58 87.029 210.461 92.5276Z" fill="white"/>
<path fill-rule="evenodd" clip-rule="evenodd" d="M149.349 67.7396L205.885 140.618C207.869 143.176 212.47 148.91 212.47 148.91C212.47 148.91 185.932 162.018 143.176 151.858C100.419 141.698 76.666 146.407 76.666 146.407C76.666 146.407 79.4625 143.108 81.5385 140.552L140.728 67.673C142.72 65.2193 147.422 65.2557 149.349 67.7396Z" fill="#FAE0D2"/>
<path fill-rule="evenodd" clip-rule="evenodd" d="M147.512 66.6895C170.203 95.9396 181.262 135.377 201.331 152.677C201.331 152.677 177.413 160.376 140.728 152.677C104.042 144.977 75.0278 147.599 75.0278 147.599C96.8937 121.801 119.408 92.9398 140.728 66.6895C142.72 64.2359 145.585 64.2056 147.512 66.6895Z" fill="#FFE9DD"/>
<path d="M130.725 99.273C126.794 98.1263 131.512 87.7249 120.209 92.148C117.255 90.99 132.159 76.0659 138.752 67.9747C141.865 64.399 145.141 62.6648 149.4 67.3287C155.696 75.2756 169.394 89.094 167.8 91.5791C159.609 88.1589 170.323 102.401 157.1 94.3149C152.349 91.4098 151.366 87.1506 149.4 87.1506C147.435 87.1506 145.305 93.3756 140.554 93.3756C135.804 93.3756 134.657 100.42 130.725 99.273Z" fill="white"/>
<path fill-rule="evenodd" clip-rule="evenodd" d="M121.854 114.577H94.4364C94.1841 114.007 94.0439 113.375 94.0439 112.711C94.0439 110.503 95.5933 108.657 97.6642 108.201C98.4183 104.872 101.395 102.387 104.951 102.387C107.559 102.387 109.855 103.723 111.191 105.748C111.895 105.35 112.708 105.123 113.574 105.123C116.253 105.123 118.425 107.295 118.425 109.975C118.425 110.263 118.4 110.546 118.351 110.821C118.444 110.813 118.538 110.809 118.632 110.809C120.433 110.809 121.893 112.269 121.893 114.07C121.893 114.242 121.879 114.412 121.854 114.577Z" fill="white"/>
<path fill-rule="evenodd" clip-rule="evenodd" d="M282.012 45.6186C281.581 38.8087 275.921 33.4189 269.002 33.4189C264.389 33.4189 260.336 35.8143 258.019 39.4288C257.445 39.254 256.836 39.16 256.204 39.16C252.769 39.16 249.985 41.9445 249.985 45.3794C249.985 45.4595 249.986 45.5392 249.989 45.6186H282.012Z" fill="#D0E7F9"/>
<path fill-rule="evenodd" clip-rule="evenodd" d="M27.8451 70.2817H4.25924C4.31068 65.2945 8.36944 61.2676 13.3688 61.2676C16.5845 61.2676 19.411 62.9337 21.0323 65.4498C21.5988 65.2262 22.2162 65.1034 22.8622 65.1034C25.6162 65.1034 27.8487 67.3359 27.8487 70.0899C27.8487 70.1541 27.8475 70.2181 27.8451 70.2817Z" fill="#D0E7F9"/>
<path fill-rule="evenodd" clip-rule="evenodd" d="M67.8605 140.27H1.14763C0.412677 138.772 0 137.087 0 135.306C0 129.075 5.05163 124.023 11.2831 124.023C11.8422 124.023 12.3918 124.064 12.929 124.142C14.8243 116.084 22.06 110.085 30.6968 110.085C39.3104 110.085 46.5304 116.052 48.4492 124.077C52.3591 124.858 55.5452 127.645 56.8889 131.319C57.8622 130.895 58.9367 130.66 60.066 130.66C64.4647 130.66 68.0306 134.226 68.0306 138.625C68.0306 139.189 67.972 139.739 67.8605 140.27Z" fill="white"/>
<path fill-rule="evenodd" clip-rule="evenodd" d="M234.13 146.446H293.802C293.858 146.086 293.888 145.717 293.888 145.342C293.888 141.423 290.711 138.246 286.792 138.246C286.585 138.246 286.381 138.254 286.18 138.272C286.285 137.673 286.34 137.058 286.34 136.429C286.34 130.598 281.613 125.87 275.781 125.87C273.897 125.87 272.128 126.364 270.597 127.229C267.687 122.822 262.691 119.914 257.015 119.914C249.274 119.914 242.796 125.323 241.155 132.568C236.648 133.561 233.275 137.579 233.275 142.385C233.275 143.83 233.58 145.204 234.13 146.446Z" fill="white"/>
<path d="M171.109 44.0908C174.222 44.0908 175.369 48.0224 175.369 48.0224C175.369 48.0224 176.515 44.0908 179.3 44.0908" stroke="#BADAF4" stroke-width="2" stroke-linecap="round" stroke-linejoin="round"/>
<path d="M179.956 36.2275C182.446 36.2275 183.363 39.1762 183.363 39.1762C183.363 39.1762 184.28 36.2275 186.508 36.2275" stroke="#BADAF4" stroke-width="2" stroke-linecap="round" stroke-linejoin="round"/>
<path d="M164.229 38.5205C165.848 38.5205 166.444 40.4863 166.444 40.4863C166.444 40.4863 167.04 38.5205 168.488 38.5205" stroke="#BADAF4" stroke-width="2" stroke-linecap="round" stroke-linejoin="round"/>
<path d="M256.865 80.2705C258.484 80.2705 259.08 82.2363 259.08 82.2363C259.08 82.2363 259.676 80.2705 261.124 80.2705" stroke="#BADAF4" stroke-width="2" stroke-linecap="round" stroke-linejoin="round"/>
<path d="M80.3008 43.9755L96.1197 71.9504M96.1197 71.9504L87.1811 50.8558M96.1197 71.9504L88.9831 34.8018M96.1197 71.9504L103.235 34.8018M96.1197 71.9504L105.201 50.8558M96.1197 71.9504L112.081 43.9755M96.1197 71.9504V41.8459" stroke="#CBE4F6"/>
<path d="M93.7339 68.3848H98.3208V70.6782C98.3208 71.9448 97.294 72.9716 96.0273 72.9716V72.9716C94.7607 72.9716 93.7339 71.9448 93.7339 70.6782V68.3848Z" fill="#BCA7A7"/>
<rect x="93.4062" y="68.0566" width="5.24214" height="0.655268" fill="#CBE4F6"/>
<rect x="94.3892" y="69.3672" width="0.655268" height="2.62107" fill="#E1C6C6"/>
<rect x="95.6992" y="69.3672" width="0.655268" height="2.62107" fill="#E1C6C6"/>
<rect x="97.0103" y="69.3672" width="0.655268" height="2.62107" fill="#E1C6C6"/>
<circle cx="95.9402" cy="37.9212" r="17.4436" fill="#D0E7F9"/>
<ellipse cx="95.9403" cy="37.9212" rx="11.3763" ry="17.4436" fill="#E9F7FF"/>
<ellipse cx="95.9402" cy="37.9212" rx="4.55052" ry="17.4436" fill="#D0E7F9"/>
</svg>
