<svg width="200" height="140" viewBox="0 0 200 140" fill="none" xmlns="http://www.w3.org/2000/svg">
<path d="M72 50H119.586L129 59.4141V127C129 127.552 128.552 128 128 128H72C71.4477 128 71 127.552 71 127V51C71 50.4823 71.3933 50.0562 71.8975 50.0049L72 50Z" fill="white" stroke="#AAAAAA" stroke-width="2"/>
<rect x="100" y="96" width="24" height="2" rx="1" fill="#CCCCCC"/>
<rect x="76" y="90" width="21" height="2" rx="1" fill="#FF6F3D"/>
<rect x="100" y="102" width="24" height="2" rx="1" fill="#CCCCCC"/>
<rect x="100" y="108" width="24" height="2" rx="1" fill="#CCCCCC"/>
<rect x="76" y="114" width="48" height="2" rx="1" fill="#CCCCCC"/>
<rect x="76" y="120" width="48" height="2" rx="1" fill="#FF6F3D"/>
<path d="M83 103L77 110H97L90 101L86 106L83 103Z" fill="#FF6F3D"/>
<circle cx="81" cy="98" r="2" fill="#FF6F3D"/>
<path d="M70.9976 84.0002C70.3643 88.2782 67.203 94.3878 61.9879 95.229C58.7085 95.7579 56.3166 94.7954 55.3548 94.1518" stroke="#AAAAAA" stroke-width="2" stroke-linecap="round"/>
<path d="M50.5696 94.1997C50.8259 94.7012 51.5529 95.3797 52.5437 95.4751C53.8689 95.6026 54.6724 94.8088 55.3539 94.1512" stroke="#AAAAAA" stroke-width="2" stroke-linecap="round"/>
<path d="M129.564 86.5458C133.886 86.6893 140.463 84.6738 142.225 79.6938C143.333 76.5623 142.814 74.0366 142.354 72.9751" stroke="#AAAAAA" stroke-width="2" stroke-linecap="round"/>
<path d="M144.344 69C144.699 69.4369 145.026 70.3759 144.714 71.3209C144.295 72.5849 143.245 72.9995 142.368 73.3576" stroke="#AAAAAA" stroke-width="2" stroke-linecap="round"/>
<path d="M94 71C94 69.3431 92.433 68 90.5 68C88.567 68 87 69.3431 87 71" stroke="#AAAAAA" stroke-width="2" stroke-linecap="round"/>
<path d="M113 71C113 69.3431 111.433 68 109.5 68C107.567 68 106 69.3431 106 71" stroke="#AAAAAA" stroke-width="2" stroke-linecap="round"/>
<path d="M94.6231 81.3238C95.8764 83.5627 97.8191 85 100 85C102.181 85 104.124 83.5627 105.377 81.3238C105.721 80.7095 105.24 80 104.536 80H95.4642C94.7602 80 94.2792 80.7095 94.6231 81.3238Z" fill="#AAAAAA"/>
<path d="M119 50L129 60H120C119.448 60 119 59.5523 119 59V50Z" fill="#AAAAAA"/>
<rect x="12" y="43" width="36" height="36" rx="18" fill="white"/>
<rect x="12" y="43" width="36" height="36" rx="18" stroke="#9ADAF3" stroke-width="2"/>
<path d="M20 74.9001C20 71.0893 23.0893 68 26.9001 68H33.0999C36.9107 68 40 71.0893 40 74.9001C40 75.7695 39.4567 76.5462 38.6401 76.8445L35.4889 77.9954C31.9441 79.29 28.0559 79.29 24.5111 77.9954L21.3599 76.8445C20.5433 76.5462 20 75.7695 20 74.9001Z" fill="#9ADAF3"/>
<circle cx="30" cy="58" r="6" fill="#9ADAF3"/>
<circle cx="46" cy="45" r="10" fill="#FF6F3D"/>
<rect x="45" y="40" width="2" height="10" rx="1" fill="white"/>
<rect x="41" y="46" width="2" height="10" rx="1" transform="rotate(-90 41 46)" fill="white"/>
<path d="M157.221 108.115L169.988 112.762L175.646 110.124L182.344 91.7192C182.533 91.2002 182.266 90.6264 181.747 90.4375L165.772 84.6231C165.253 84.4342 164.679 84.7018 164.49 85.2208L156.624 106.834C156.435 107.353 156.702 107.927 157.221 108.115Z" fill="white" stroke="#9ADAF3" stroke-width="2"/>
<path d="M169.098 113.5L176.788 109.914L171.15 107.862L169.098 113.5Z" fill="#9ADAF3"/>
<path d="M69.9111 19.1101C69.8305 19.6472 69.2068 19.9047 68.7708 19.581L64.0184 16.0517C63.5695 15.7183 63.6559 15.0227 64.1727 14.8093L69.8028 12.4844C70.3196 12.271 70.8716 12.703 70.7887 13.256L69.9111 19.1101Z" fill="#95C03D"/>
<path d="M187.911 52.1101C187.831 52.6472 187.207 52.9047 186.771 52.581L182.018 49.0517C181.569 48.7183 181.656 48.0227 182.173 47.8093L187.803 45.4844C188.32 45.271 188.872 45.703 188.789 46.256L187.911 52.1101Z" fill="#5FC1E8"/>
<path d="M99.8962 30.7289C100.088 31.2371 99.6683 31.766 99.1298 31.6956L93.2602 30.9287C92.7057 30.8563 92.4423 30.2067 92.7896 29.7686L96.5738 24.9954C96.9211 24.5573 97.6137 24.6656 97.8107 25.1889L99.8962 30.7289Z" fill="#5FC1E8"/>
<path d="M164.876 17.1007C164.79 17.637 164.164 17.8885 163.731 17.5606L159.013 13.9856C158.567 13.648 158.66 12.9532 159.179 12.7448L164.831 10.4743C165.35 10.2659 165.898 10.7032 165.81 11.2553L164.876 17.1007Z" fill="#F36700"/>
<path d="M135 41L145 77" stroke="#9ADAF3" stroke-width="2" stroke-linecap="round"/>
<path d="M136 44.1406L151.455 39.9995L150.161 46.5579L154.561 51.5906L139.106 55.7317L136 44.1406Z" fill="#D9F4FF" stroke="#9ADAF3" stroke-width="2" stroke-linejoin="round"/>
</svg>
